<svg width="250" height="167" viewBox="0 0 250 167" fill="none" xmlns="http://www.w3.org/2000/svg">
<path d="M18.08 136.066C13.1168 136.066 8.86273 134.289 5.31764 130.735C1.77255 127.181 0 122.915 0 117.94C0 112.893 1.77255 108.627 5.31764 105.144C8.86273 101.59 13.1168 99.813 18.08 99.813C23.114 99.813 27.3681 101.59 30.9132 105.144V100.239H36.16V135.568H30.9132V130.664C27.3681 134.289 23.114 136.066 18.08 136.066ZM18.08 105.073C14.5349 105.073 11.557 106.353 9.00454 108.841C6.52297 111.329 5.24674 114.385 5.24674 117.94C5.24674 121.494 6.52297 124.479 9.00454 127.038C11.4861 129.526 14.5349 130.806 18.08 130.806C21.6251 130.806 24.6029 129.526 27.1554 127.038C29.637 124.55 30.9132 121.494 30.9132 117.94C30.9132 114.385 29.637 111.4 27.1554 108.841C24.6739 106.353 21.6251 105.073 18.08 105.073Z" fill="#604196"/>
<path d="M77.8502 125.97C76.3612 129.026 74.1633 131.443 71.3272 133.22C68.4202 135.068 65.1587 135.993 61.6846 135.993C56.7214 135.993 52.4673 134.215 48.9222 130.661C45.3771 127.107 43.6046 122.842 43.6046 117.866C43.6046 112.89 45.3771 108.625 48.9222 105.071C52.4673 101.517 56.7214 99.7394 61.6846 99.7394C65.1587 99.7394 68.3493 100.664 71.3272 102.512C74.1633 104.36 76.3612 106.777 77.8502 109.762L73.0289 111.895C71.9653 109.833 70.4055 108.198 68.4202 106.919C66.3641 105.639 64.0952 105 61.6846 105C58.1395 105 55.1616 106.279 52.6091 108.767C50.0566 111.255 48.8513 114.312 48.8513 117.866C48.8513 121.42 50.1275 124.406 52.6091 126.965C55.0907 129.453 58.1395 130.732 61.6846 130.732C64.0952 130.732 66.2932 130.092 68.4202 128.813C70.4055 127.605 71.9653 125.97 73.0289 123.837L77.8502 125.97Z" fill="#604196"/>
<path d="M85.579 93.9191H90.8258V100.175H96.9942V105.435H90.8258V123.988C90.8258 125.694 91.393 127.187 92.5983 128.395C93.8036 129.604 95.2926 130.243 96.9942 130.243V135.504C93.8036 135.504 91.1094 134.366 88.9114 132.091C86.7134 129.817 85.579 127.116 85.579 123.988V93.9191Z" fill="#604196"/>
<path d="M103.659 100.17H108.905V135.57H103.659V100.17Z" fill="#604196"/>
<path d="M166.194 135.571V114.388C166.194 111.829 165.272 109.625 163.499 107.848C161.727 106 159.529 105.147 156.976 105.147C154.424 105.147 152.226 106.071 150.453 107.848C148.681 109.625 147.759 111.829 147.759 114.388V135.642H142.512V114.459C142.512 111.9 141.591 109.697 139.818 107.919C137.975 106.071 135.848 105.218 133.295 105.218C130.743 105.218 128.545 106.142 126.772 107.919C125 109.768 124.078 111.9 124.078 114.459V135.642H118.831V100.313H124.078V103.228C126.772 101.024 129.821 99.8869 133.295 99.8869C135.706 99.8869 137.975 100.456 140.102 101.593C142.158 102.73 143.859 104.223 145.207 106.142C146.554 104.223 148.255 102.73 150.241 101.593C152.368 100.456 154.637 99.8869 157.047 99.8869C161.018 99.8869 164.421 101.309 167.328 104.152C170.164 106.995 171.582 110.407 171.582 114.459V135.571H166.194Z" fill="#604196"/>
<path d="M199.163 136.065C193.845 136.065 189.236 134.145 185.408 130.307C181.579 126.468 179.665 121.919 179.665 116.517C179.665 111.114 181.579 106.565 185.408 102.726C189.236 98.8875 193.774 96.9683 199.163 96.9683C204.551 96.9683 208.38 98.1056 210.649 100.38V97.4659H218.661V135.567H210.649V132.653C208.38 134.927 204.551 136.065 199.163 136.065ZM199.163 105.072C196.043 105.072 193.349 106.209 191.08 108.484C188.882 110.688 187.747 113.389 187.747 116.588C187.747 119.786 188.882 122.488 191.08 124.691C193.278 126.895 195.972 128.032 199.163 128.032C202.353 128.032 205.047 126.895 207.245 124.691C209.443 122.488 210.578 119.786 210.578 116.588C210.578 113.389 209.443 110.688 207.245 108.484C205.047 106.209 202.282 105.072 199.163 105.072Z" fill="#189FB5"/>
<path d="M228.516 97.4689H236.528V135.57H228.516V97.4689Z" fill="#189FB5"/>
<path d="M104.155 91.0704C103.02 92.2078 103.02 94.1271 104.155 95.3355C105.289 96.4728 107.204 96.4728 108.409 95.3355C109.543 94.1981 109.543 92.2789 108.409 91.0704C107.204 89.9331 105.289 89.9331 104.155 91.0704Z" fill="#604196"/>
<path d="M232.945 79.541L227.28 85.2208L232.945 90.9006L238.611 85.2208L232.945 79.541Z" fill="#189FB5"/>
<path d="M204.666 51.092L199.001 56.7718L227.377 85.2212L233.042 79.5414L204.666 51.092Z" fill="#604196"/>
<path d="M164.889 11.2893L159.223 16.9692L181.935 39.7387L187.6 34.0589L164.889 11.2893Z" fill="#604196"/>
<path d="M215.966 5.55579L198.95 22.6161L181.933 5.55579L176.261 11.2425L198.95 33.9896L221.638 11.2425L215.966 5.55579Z" fill="#604196"/>
<path d="M238.656 16.9277L232.983 11.241L204.623 39.6748L232.983 68.1086L238.656 62.4218L215.967 39.6748L238.656 16.9277Z" fill="#189FB5"/>
<path d="M250 28.2976L244.328 22.6108L227.311 39.6711L244.328 56.7314L250 51.0447L238.656 39.6711L250 28.2976Z" fill="#189FB5"/>
<path d="M193.309 39.6958L187.644 45.3756L193.309 51.0554L198.974 45.3756L193.309 39.6958Z" fill="#189FB5"/>
<path d="M153.573 22.609L147.901 28.2958L170.59 51.0429L147.901 73.861L153.573 79.5478L176.262 56.7296L181.934 51.0429L153.573 22.609Z" fill="#189FB5"/>
<path d="M159.243 51.0518L142.227 33.9915L136.555 39.6782L147.899 51.0518L136.555 62.4253L142.227 68.112L159.243 51.0518Z" fill="#189FB5"/>
<path d="M204.622 73.8649L193.278 62.4203L187.605 56.7335L170.589 73.8649L176.261 79.5516L187.605 68.107L198.95 79.5516L204.622 73.8649Z" fill="#604196"/>
<path d="M24.9565 153.765C24.9565 151.987 26.3037 151.134 28.2889 151.134C29.2107 151.134 29.8488 151.277 30.4869 151.49V151.277C30.4869 150.068 29.7779 149.499 28.4307 149.499C27.509 149.499 26.8709 149.713 26.091 149.997L25.5947 148.646C26.4455 148.22 27.3672 148.007 28.6434 148.007C29.8488 148.007 30.6996 148.362 31.2668 148.931C31.834 149.499 32.1176 150.352 32.1176 151.419V156.181H30.416V155.186C29.8488 155.826 28.9979 156.395 27.7926 156.395C26.3037 156.252 24.9565 155.399 24.9565 153.765ZM30.4869 153.196V152.627C29.9906 152.485 29.3525 152.272 28.5725 152.272C27.3672 152.272 26.6582 152.769 26.6582 153.622C26.6582 154.404 27.3672 154.902 28.2889 154.902C29.5652 154.973 30.4869 154.262 30.4869 153.196Z" fill="#189FB5"/>
<path d="M35.5912 152.129C35.5912 149.783 37.3638 147.864 39.7745 147.864C41.2634 147.864 42.256 148.432 42.965 149.285L41.8306 150.494C41.2634 149.925 40.6253 149.427 39.7036 149.427C38.3564 149.427 37.2929 150.636 37.2929 152.058C37.2929 153.55 38.2855 154.688 39.7745 154.688C40.6253 154.688 41.3343 154.261 41.9015 153.693L42.965 154.759C42.1851 155.612 41.2634 156.252 39.7036 156.252C37.2929 156.252 35.5912 154.403 35.5912 152.129Z" fill="#189FB5"/>
<path d="M46.7231 153.907V149.571H45.6596V148.007H46.7231V145.803H48.4956V148.007H50.6936V149.571H48.4956V153.622C48.4956 154.333 48.8502 154.689 49.4883 154.689C49.9137 154.689 50.2682 154.618 50.6227 154.404V155.826C50.1973 156.11 49.701 156.253 48.992 156.253C47.6448 156.253 46.7231 155.613 46.7231 153.907Z" fill="#189FB5"/>
<path d="M54.0264 153.125V148.007H55.7989V152.627C55.7989 153.907 56.4371 154.618 57.5715 154.618C58.7059 154.618 59.4858 153.836 59.4858 152.556V148.007H61.2584V156.039H59.4858V154.831C58.9895 155.613 58.2096 156.252 56.9334 156.252C55.0899 156.252 54.0264 155.044 54.0264 153.125Z" fill="#189FB5"/>
<path d="M64.6611 153.765C64.6611 151.987 66.0082 151.134 67.9935 151.134C68.9152 151.134 69.5533 151.277 70.1914 151.49V151.277C70.1914 150.068 69.4824 149.499 68.1353 149.499C67.2136 149.499 66.5754 149.713 65.7955 149.997L65.2992 148.646C66.15 148.22 67.0717 148.007 68.348 148.007C69.5533 148.007 70.4041 148.362 70.9714 148.931C71.5386 149.499 71.8222 150.352 71.8222 151.419V156.181H70.1205V155.186C69.5533 155.826 68.7025 156.395 67.4972 156.395C66.0082 156.252 64.6611 155.399 64.6611 153.765ZM70.1914 153.196V152.627C69.6951 152.485 69.057 152.272 68.2771 152.272C67.0718 152.272 66.3627 152.769 66.3627 153.622C66.3627 154.404 67.0718 154.902 67.9935 154.902C69.2697 154.973 70.1914 154.262 70.1914 153.196Z" fill="#189FB5"/>
<path d="M75.793 144.949H77.5656V156.11H75.793V144.949Z" fill="#189FB5"/>
<path d="M81.607 145.021H83.5213V146.727H81.607V145.021ZM81.6779 148.007H83.4504V156.039H81.6779V148.007Z" fill="#189FB5"/>
<path d="M87.1372 154.902L91.8167 149.5H87.279V148.078H94.0855V149.287L89.406 154.689H94.0855V156.111H87.1372V154.902Z" fill="#189FB5"/>
<path d="M97.7015 145.021H99.6159V146.727H97.7015V145.021ZM97.7724 148.007H99.545V156.039H97.7724V148.007Z" fill="#189FB5"/>
<path d="M103.587 148.006H105.36V149.285C105.856 148.503 106.636 147.864 107.912 147.864C109.755 147.864 110.819 149.072 110.819 150.991V156.109H109.046V151.489C109.046 150.209 108.408 149.499 107.274 149.499C106.139 149.499 105.36 150.28 105.36 151.56V156.109H103.587V148.006Z" fill="#189FB5"/>
<path d="M114.576 157.603L115.285 156.252C116.136 156.821 117.058 157.105 118.192 157.105C119.823 157.105 120.745 156.252 120.745 154.617V153.977C120.036 154.83 119.185 155.47 117.909 155.47C115.994 155.47 114.222 154.048 114.222 151.703C114.222 149.286 115.994 147.935 117.909 147.935C119.256 147.935 120.107 148.575 120.745 149.357V148.148H122.517V154.546C122.517 155.897 122.163 156.892 121.525 157.603C120.816 158.313 119.681 158.669 118.263 158.669C116.845 158.527 115.64 158.242 114.576 157.603ZM120.745 151.703C120.745 150.281 119.61 149.428 118.334 149.428C117.058 149.428 115.994 150.352 115.994 151.703C115.994 153.053 117.058 153.977 118.334 153.977C119.61 153.977 120.745 152.982 120.745 151.703Z" fill="#189FB5"/>
<path d="M132.585 145.021H134.5V146.727H132.585V145.021ZM132.656 148.007H134.429V156.039H132.656V148.007Z" fill="#189FB5"/>
<path d="M138.471 148.006H140.243V149.285C140.74 148.503 141.52 147.864 142.796 147.864C144.639 147.864 145.703 149.072 145.703 150.991V156.109H143.93V151.489C143.93 150.209 143.292 149.499 142.158 149.499C141.023 149.499 140.243 150.28 140.243 151.56V156.109H138.471V148.006Z" fill="#189FB5"/>
<path d="M149.885 153.907V149.571H148.822V148.007H149.885V145.803H151.658V148.007H153.856V149.571H151.658V153.622C151.658 154.333 152.012 154.689 152.65 154.689C153.076 154.689 153.43 154.618 153.785 154.404V155.826C153.359 156.11 152.863 156.253 152.154 156.253C150.878 156.253 149.885 155.613 149.885 153.907Z" fill="#189FB5"/>
<path d="M156.693 152.058C156.693 149.712 158.323 147.864 160.592 147.864C163.145 147.864 164.421 149.854 164.421 152.2C164.421 152.342 164.421 152.555 164.421 152.697H158.465C158.678 154.048 159.6 154.83 160.805 154.83C161.727 154.83 162.365 154.474 163.003 153.835L164.066 154.759C163.286 155.683 162.223 156.252 160.734 156.252C158.465 156.252 156.693 154.546 156.693 152.058ZM162.648 151.489C162.506 150.28 161.797 149.285 160.521 149.285C159.387 149.285 158.536 150.209 158.394 151.489H162.648Z" fill="#189FB5"/>
<path d="M168.037 144.949H169.809V156.11H168.037V144.949Z" fill="#189FB5"/>
<path d="M173.921 144.949H175.694V156.11H173.921V144.949Z" fill="#189FB5"/>
<path d="M179.735 145.021H181.649V146.727H179.735V145.021ZM179.806 148.007H181.578V156.039H179.806V148.007Z" fill="#189FB5"/>
<path d="M185.62 157.603L186.329 156.252C187.18 156.821 188.101 157.105 189.236 157.105C190.866 157.105 191.788 156.252 191.788 154.617V153.977C191.079 154.83 190.228 155.47 188.952 155.47C187.038 155.47 185.265 154.048 185.265 151.703C185.265 149.286 187.038 147.935 188.952 147.935C190.299 147.935 191.15 148.575 191.788 149.357V148.148H193.561V154.546C193.561 155.897 193.206 156.892 192.568 157.603C191.859 158.313 190.725 158.669 189.307 158.669C187.889 158.527 186.683 158.242 185.62 157.603ZM191.788 151.703C191.788 150.281 190.654 149.428 189.377 149.428C188.101 149.428 187.038 150.352 187.038 151.703C187.038 153.053 188.101 153.977 189.377 153.977C190.654 153.977 191.788 152.982 191.788 151.703Z" fill="#189FB5"/>
<path d="M197.035 152.058C197.035 149.712 198.666 147.864 200.935 147.864C203.487 147.864 204.763 149.854 204.763 152.2C204.763 152.342 204.763 152.555 204.763 152.697H198.808C199.02 154.048 199.942 154.83 201.147 154.83C202.069 154.83 202.707 154.474 203.345 153.835L204.409 154.759C203.629 155.683 202.565 156.252 201.076 156.252C198.808 156.252 197.035 154.546 197.035 152.058ZM202.991 151.489C202.849 150.28 202.14 149.285 200.864 149.285C199.729 149.285 198.878 150.209 198.737 151.489H202.991Z" fill="#189FB5"/>
<path d="M208.238 148.006H210.011V149.285C210.507 148.503 211.287 147.864 212.563 147.864C214.407 147.864 215.47 149.072 215.47 150.991V156.109H213.698V151.489C213.698 150.209 213.06 149.499 211.925 149.499C210.791 149.499 210.011 150.28 210.011 151.56V156.109H208.238V148.006Z" fill="#189FB5"/>
<path d="M218.803 152.129C218.803 149.783 220.575 147.864 222.986 147.864C224.475 147.864 225.468 148.432 226.177 149.285L225.042 150.494C224.475 149.925 223.837 149.427 222.915 149.427C221.568 149.427 220.504 150.636 220.504 152.058C220.504 153.55 221.497 154.688 222.986 154.688C223.837 154.688 224.546 154.261 225.113 153.693L226.177 154.759C225.397 155.612 224.475 156.252 222.915 156.252C220.575 156.252 218.803 154.403 218.803 152.129Z" fill="#189FB5"/>
<path d="M228.87 152.058C228.87 149.712 230.501 147.864 232.77 147.864C235.322 147.864 236.598 149.854 236.598 152.2C236.598 152.342 236.598 152.555 236.598 152.697H230.642C230.855 154.048 231.777 154.83 232.982 154.83C233.904 154.83 234.542 154.474 235.18 153.835L236.244 154.759C235.464 155.683 234.4 156.252 232.911 156.252C230.713 156.252 228.87 154.546 228.87 152.058ZM234.897 151.489C234.755 150.28 234.046 149.285 232.77 149.285C231.635 149.285 230.784 150.209 230.642 151.489H234.897Z" fill="#189FB5"/>
</svg>
