<svg width="41" height="37" viewBox="0 0 41 37" fill="none" xmlns="http://www.w3.org/2000/svg">
<rect x="0.412109" width="40" height="37" rx="5" fill="#189FB5"/>
<path d="M25.4105 17.5011C25.4105 18.9355 24.9449 20.2606 24.1605 21.3356L28.1169 25.2952C28.5076 25.6859 28.5076 26.3203 28.1169 26.7109C27.7263 27.1016 27.0919 27.1016 26.7012 26.7109L22.7448 22.7513C21.6697 23.5389 20.3447 24.0014 18.9102 24.0014C15.3194 24.0014 12.4099 21.0919 12.4099 17.5011C12.4099 13.9103 15.3194 11.0007 18.9102 11.0007C22.501 11.0007 25.4105 13.9103 25.4105 17.5011ZM18.9102 22.0013C19.5012 22.0013 20.0864 21.8849 20.6324 21.6587C21.1784 21.4326 21.6745 21.1011 22.0924 20.6832C22.5102 20.2653 22.8417 19.7692 23.0679 19.2232C23.294 18.6772 23.4104 18.092 23.4104 17.5011C23.4104 16.9101 23.294 16.3249 23.0679 15.7789C22.8417 15.2329 22.5102 14.7368 22.0924 14.3189C21.6745 13.901 21.1784 13.5696 20.6324 13.3434C20.0864 13.1172 19.5012 13.0008 18.9102 13.0008C18.3193 13.0008 17.7341 13.1172 17.1881 13.3434C16.6421 13.5696 16.146 13.901 15.7281 14.3189C15.3102 14.7368 14.9787 15.2329 14.7526 15.7789C14.5264 16.3249 14.41 16.9101 14.41 17.5011C14.41 18.092 14.5264 18.6772 14.7526 19.2232C14.9787 19.7692 15.3102 20.2653 15.7281 20.6832C16.146 21.1011 16.6421 21.4326 17.1881 21.6587C17.7341 21.8849 18.3193 22.0013 18.9102 22.0013Z" fill="white"/>
</svg>
