<svg id="Group_41" data-name="Group 41" xmlns="http://www.w3.org/2000/svg" width="24.219" height="21.626" viewBox="0 0 24.219 21.626">
  <g id="Group_40" data-name="Group 40" transform="translate(6.01)">
    <path id="Path_42" data-name="Path 42" d="M238.522,104.589a1,1,0,0,0-.7,1.717l5.848,5.749,5.755-5.755a1,1,0,1,0-1.418-1.418l-4.35,4.349-4.431-4.355A1,1,0,0,0,238.522,104.589Z" transform="translate(-237.519 -96.615)" fill="#fff"/>
    <path id="Path_43" data-name="Path 43" d="M251.23,105.609a1,1,0,0,0-1,1v13.026a1,1,0,1,0,2.005,0V106.612A1,1,0,0,0,251.23,105.609Z" transform="translate(-245.131 -105.609)" fill="#fff"/>
  </g>
  <path id="Path_44" data-name="Path 44" d="M244.116,142.945h-19.1a2.486,2.486,0,0,1-2.483-2.483v-6.94a1,1,0,1,1,2.005,0v6.94a.479.479,0,0,0,.478.478h19.1a.629.629,0,0,0,.628-.628v-6.79a1,1,0,0,1,2.005,0v6.79A2.636,2.636,0,0,1,244.116,142.945Z" transform="translate(-222.531 -121.319)" fill="#fff"/>
</svg>
