<svg xmlns="http://www.w3.org/2000/svg" width="29.708" height="26.484" viewBox="0 0 29.708 26.484">
  <g id="Group_300" data-name="Group 300" transform="translate(-37.183 -339.911)">
    <path id="Path_667" data-name="Path 667" d="M37.183,350.778a4.233,4.233,0,0,1,.529-.556q6.859-5.035,13.728-10.056a.835.835,0,0,1,1.205,0l13.8,10.1a.863.863,0,0,1,.444.764.735.735,0,0,1-.415.651.767.767,0,0,1-.846-.083l-2.479-1.815-10.9-7.981c-.062-.045-.126-.088-.212-.148l-1.77,1.291-11.648,8.525c-.633.463-.991.4-1.436-.231Z" fill="#003139"/>
    <path id="Path_668" data-name="Path 668" d="M55.91,364.824h6.164v-.359q0-5.874,0-11.747a.879.879,0,0,1,.267-.732.765.765,0,0,1,1.24.354,1.575,1.575,0,0,1,.049.429q0,6.322,0,12.645c0,.039,0,.078,0,.116a.791.791,0,0,1-.869.862c-1.624.005-3.249,0-4.873,0-.871,0-1.741,0-2.611,0-.644,0-.919-.276-.92-.914,0-2.408,0-4.815,0-7.222a2.318,2.318,0,1,0-4.632-.032c-.009,2.379,0,4.757,0,7.135,0,.1,0,.194,0,.29a.742.742,0,0,1-.712.736c-.144.01-.29.007-.435.007q-3.567,0-7.136,0c-.709,0-.987-.274-.987-.976q0-6.338,0-12.675c0-.659.405-1.047.956-.924a.752.752,0,0,1,.594.7c.007.116,0,.232,0,.348v11.962h6.164v-.355c0-2.088-.005-4.176,0-6.264a3.87,3.87,0,1,1,7.74,0c.013,2.089,0,4.177,0,6.265Z" fill="#003139"/>
  </g>
</svg>
