<svg xmlns="http://www.w3.org/2000/svg" width="35.345" height="32.97" viewBox="0 0 35.345 32.97">
  <g id="Group_424" data-name="Group 424" transform="translate(-41.827 -420)">
    <path id="Path_654" data-name="Path 654" d="M41.327,156.093c-.486,0-.972,0-1.458,0a.745.745,0,0,1-.8-.725.714.714,0,0,1,.734-.785c1.031-.02,7.063-.02,8.094,0a.714.714,0,0,1,.729.79.746.746,0,0,1-.806.719C47.323,156.1,41.825,156.093,41.327,156.093Z" transform="translate(16.32 274.757)" fill="#003139"/>
    <path id="Path_656" data-name="Path 656" d="M41.327,156.093c-.486,0-.972,0-1.458,0a.745.745,0,0,1-.8-.725.714.714,0,0,1,.734-.785c1.031-.02,7.063-.02,8.094,0a.714.714,0,0,1,.729.79.746.746,0,0,1-.806.719C47.323,156.1,41.825,156.093,41.327,156.093Z" transform="translate(16.32 284.757)" fill="#003139"/>
    <path id="Path_655" data-name="Path 655" d="M41.327,156.093c-.486,0-.972,0-1.458,0a.745.745,0,0,1-.8-.725.714.714,0,0,1,.734-.785c1.031-.02,12.063-.02,13.094,0a.714.714,0,0,1,.729.79.746.746,0,0,1-.806.719C52.323,156.1,41.825,156.093,41.327,156.093Z" transform="translate(16.32 279.757)" fill="#003139"/>
    <path id="Path_657" data-name="Path 657" d="M71.071,246.688v26.293a.916.916,0,0,0-.068.185,5.681,5.681,0,0,1-.765,2.2,6.18,6.18,0,0,1-5.606,3.143q-11.3,0-22.6,0a5.325,5.325,0,0,0-.551.022,5.256,5.256,0,0,1-5.739-5.062c-.026-2.713-.02-5.427,0-8.141a5.277,5.277,0,0,1,3.806-4.911,10.505,10.505,0,0,1,2.738-.2c.387-.007.774,0,1.186,0v-.454c0-4.117.013-8.234-.01-12.35a1.654,1.654,0,0,1,1.175-1.824h25.33A1.775,1.775,0,0,1,71.071,246.688ZM44.106,277.414h.947c6.211,0,13.421,0,19.632,0,.263,0,.527-.041.787-.066,2.914-.284,4.564-3.563,4.558-5.257-.023-7.762-.01-17.191-.01-24.953v-.372H44.705v25C44.705,273.08,44.764,276.6,44.106,277.414Zm-.634-15.907c-.886,0-1.724-.021-2.561.005-1.305.04-4.229.553-4.229,3.89-.022,2.655.04,6.142.04,8.8,0,2.063,3.256,3.7,4.976,3.25,1.075-.284,1.772-.244,1.772-3.24,0-3.276,0-8.552,0-11.828Z" transform="translate(6.102 174.416)" fill="#003139"/>
  </g>
</svg>
