<svg xmlns="http://www.w3.org/2000/svg" width="16.25" height="18.571" viewBox="0 0 16.25 18.571">
  <path id="Icon_metro-files-empty" data-name="Icon metro-files-empty" d="M19.984,8.4A16.442,16.442,0,0,0,18.4,6.6a16.449,16.449,0,0,0-1.808-1.581,2.893,2.893,0,0,0-1.649-.765H8.271A1.453,1.453,0,0,0,6.82,5.7V19.049A1.453,1.453,0,0,0,8.271,20.5H19.3a1.453,1.453,0,0,0,1.451-1.451v-9A2.892,2.892,0,0,0,19.983,8.4Zm-2.4-.988A15.83,15.83,0,0,1,18.9,8.892H16.106V6.1A15.819,15.819,0,0,1,17.582,7.417Zm2.006,11.632a.294.294,0,0,1-.29.29H8.271a.294.294,0,0,1-.29-.29V5.7a.294.294,0,0,1,.29-.29h6.674V9.473a.58.58,0,0,0,.58.58h4.063ZM14.273,2.693a2.893,2.893,0,0,0-1.649-.765H5.95A1.453,1.453,0,0,0,4.5,3.379V16.727a1.453,1.453,0,0,0,1.161,1.422V3.379a.294.294,0,0,1,.29-.29h8.83c-.175-.144-.345-.277-.507-.4Z" transform="translate(-4.499 -1.928)" fill="#fff"/>
</svg>
