<svg xmlns="http://www.w3.org/2000/svg" width="15.87" height="21.025" viewBox="0 0 15.87 21.025">
  <g id="Group_432" data-name="Group 432" transform="translate(0.65 -2.22)">
    <path id="Path_55" data-name="Path 55" d="M2.465,0H8.05c1.362,0,6.743,6.034,6.743,7.253v10.4a2.347,2.347,0,0,1-2.465,2.206H2.465A2.347,2.347,0,0,1,0,17.651V2.206A2.347,2.347,0,0,1,2.465,0Z" transform="translate(0 2.87)" fill="#fa9627" opacity="0.2"/>
    <g id="Icon_feather-file" data-name="Icon feather-file" transform="translate(0 2.87)">
      <path id="Path_52" data-name="Path 52" d="M14.2,3H7.821A1.9,1.9,0,0,0,6,4.972v15.78a1.9,1.9,0,0,0,1.821,1.972H18.749a1.9,1.9,0,0,0,1.821-1.972V9.9Z" transform="translate(-6 -3)" fill="none" stroke="#fa9627" stroke-linecap="round" stroke-linejoin="round" stroke-width="1.3"/>
      <path id="Path_53" data-name="Path 53" d="M19.5,3V9.9h6.9" transform="translate(-11.834 -3)" fill="none" stroke="#fa9627" stroke-linecap="round" stroke-linejoin="round" stroke-width="1.3"/>
    </g>
    <text id="PDF" transform="translate(1.785 17.63)" fill="#fa9627" font-size="6" font-family="SourceSansPro-Bold, Source Sans Pro" font-weight="700"><tspan x="0" y="0">PDF</tspan></text>
  </g>
</svg>
