<svg xmlns="http://www.w3.org/2000/svg" width="15.369" height="20.347" viewBox="0 0 15.369 20.347">
  <g id="Group_433" data-name="Group 433" transform="translate(0.65 -4.35)">
    <path id="Path_56" data-name="Path 56" d="M2.345,0H7.656c1.3,0,6.413,5.959,6.413,7.128v9.8a2.239,2.239,0,0,1-2.345,2.116H2.345A2.239,2.239,0,0,1,0,16.93V2.116A2.239,2.239,0,0,1,2.345,0Z" transform="translate(0 5)" fill="#fa66a4" opacity="0.2"/>
    <g id="Icon_feather-file" data-name="Icon feather-file" transform="translate(0 5)">
      <path id="Path_52" data-name="Path 52" d="M13.914,3H7.759A1.836,1.836,0,0,0,6,4.9V20.142a1.836,1.836,0,0,0,1.759,1.9H18.31a1.836,1.836,0,0,0,1.759-1.9V9.666Z" transform="translate(-6 -3)" fill="none" stroke="#fa6682" stroke-linecap="round" stroke-linejoin="round" stroke-width="1.3"/>
      <path id="Path_53" data-name="Path 53" d="M19.5,3V9.666h6.666" transform="translate(-12.097 -3)" fill="none" stroke="#fa6682" stroke-linecap="round" stroke-linejoin="round" stroke-width="1.3"/>
    </g>
    <text id="ZIP" transform="translate(2.535 20.523)" fill="#fa66a4" font-size="6" font-family="SourceSansPro-Bold, Source Sans Pro" font-weight="700"><tspan x="0" y="0">ZIP</tspan></text>
  </g>
</svg>
