<svg xmlns="http://www.w3.org/2000/svg" xmlns:xlink="http://www.w3.org/1999/xlink" width="38" height="45" viewBox="0 0 38 45">
  <defs>
    <filter id="Union_4" x="0" y="0" width="38" height="45" filterUnits="userSpaceOnUse">
      <feOffset dy="3" input="SourceAlpha"/>
      <feGaussianBlur stdDeviation="2" result="blur"/>
      <feFlood flood-opacity="0.102"/>
      <feComposite operator="in" in2="blur"/>
      <feComposite in="SourceGraphic"/>
    </filter>
  </defs>
  <g id="view_doc" data-name="view doc" transform="translate(6 3)">
    <g id="HbEGMJ.tif" transform="translate(-89.914 -570.575)">
      <g id="Group_419" data-name="Group 419" transform="translate(91.914 574.064)">
        <path id="Path_760" data-name="Path 760" d="M91.914,594.432V574.989a1.4,1.4,0,0,1,1.527-.925c2.522.026,5.044.011,7.567.007a.4.4,0,0,1,.374.189c.607.865,1.231,1.718,1.837,2.584a.529.529,0,0,0,.493.261c2.124-.01,4.249-.006,6.373-.006q1.93,0,3.86,0a1.224,1.224,0,0,1,1.379,1.371v2.522c.5,0,.963-.009,1.427,0a1.176,1.176,0,0,1,1.087,1.6l-4.293,11.768a1.161,1.161,0,0,1-1.342.933H93.26a1.135,1.135,0,0,1-.278-.007,1.369,1.369,0,0,1-.561-.192A4.028,4.028,0,0,1,91.914,594.432Zm10.806,0q4.761,0,9.522,0a.405.405,0,0,0,.455-.3q2.134-5.876,4.281-11.745c.129-.353.017-.513-.35-.513q-9.508,0-19.017-.005a.431.431,0,0,0-.477.336q-1.58,4.366-3.18,8.726-.565,1.545-1.126,3.091c-.091.25,0,.386.268.4.068,0,.136,0,.2,0Zm-9.942-3.018.039.008c.035-.082.074-.162.1-.245l3.369-9.194a1.229,1.229,0,0,1,1.416-.992h16.74c0-.859,0-1.678,0-2.5,0-.44-.077-.516-.514-.516q-5.369,0-10.739,0a.4.4,0,0,1-.372-.19c-.627-.892-1.268-1.775-1.9-2.667a.4.4,0,0,0-.37-.192q-3.618.008-7.236,0c-.454,0-.54.088-.54.554q0,7.84,0,15.682Z" transform="translate(-91.914 -574.064)" fill="#1f7888" stroke="#1f7888" stroke-width="1"/>
      </g>
    </g>
    <g id="tooltip">
      <g id="Group_396" data-name="Group 396" transform="translate(1)" opacity="0">
        <g id="Group_395" data-name="Group 395" transform="translate(-40.219 8)">
          <g transform="matrix(1, 0, 0, 1, 33.22, -11)" filter="url(#Union_4)">
            <g id="Union_4-2" data-name="Union 4" transform="translate(6 3)" fill="#fff">
              <path d="M 23.00040054321289 32.50030136108398 L 3.000600576400757 32.50030136108398 C 1.621760487556458 32.50030136108398 0.500000536441803 31.37894058227539 0.500000536441803 30.00060081481934 L 0.500000536441803 2.999700784683228 C 0.500000536441803 1.621360659599304 1.621760487556458 0.5000006556510925 3.000600576400757 0.5000006556510925 L 23.00040054321289 0.5000006556510925 C 24.37874031066895 0.5000006556510925 25.50010108947754 1.621360659599304 25.50010108947754 2.999700784683228 L 25.50010108947754 30.00060081481934 C 25.50010108947754 31.37894058227539 24.37874031066895 32.50030136108398 23.00040054321289 32.50030136108398 Z" stroke="none"/>
              <path d="M 23.00040054321289 32.00030136108398 C 24.10304069519043 32.00030136108398 25.00010108947754 31.10324096679688 25.00010108947754 30.00060081481934 L 25.00010108947754 2.999700784683228 C 25.00010108947754 1.897060632705688 24.10304069519043 1.000000715255737 23.00040054321289 1.000000715255737 L 3.000600576400757 1.000000715255737 C 1.897470593452454 1.000000715255737 1.000000596046448 1.897060632705688 1.000000596046448 2.999700784683228 L 1.000000596046448 30.00060081481934 C 1.000000596046448 31.10324096679688 1.897470593452454 32.00030136108398 3.000600576400757 32.00030136108398 L 23.00040054321289 32.00030136108398 M 23.00040054321289 33.00030136108398 L 3.000600576400757 33.00030136108398 C 1.343700528144836 33.00030136108398 5.447387820822769e-07 31.65750122070312 5.447387820822769e-07 30.00060081481934 L 5.447387820822769e-07 2.999700784683228 C 5.447387820822769e-07 1.342800736427307 1.343700528144836 6.805419729971618e-07 3.000600576400757 6.805419729971618e-07 L 23.00040054321289 6.805419729971618e-07 C 24.65730094909668 6.805419729971618e-07 26.00010108947754 1.342800736427307 26.00010108947754 2.999700784683228 L 26.00010108947754 30.00060081481934 C 26.00010108947754 31.65750122070312 24.65730094909668 33.00030136108398 23.00040054321289 33.00030136108398 Z" stroke="none" fill="#d8d8d8"/>
            </g>
          </g>
        </g>
        <text id="T" transform="translate(12 20)" fill="#003139" font-size="10" font-family="SourceSansPro-Regular, Source Sans Pro"><tspan x="-2.68" y="0">T</tspan></text>
      </g>
    </g>
  </g>
</svg>
