<svg xmlns="http://www.w3.org/2000/svg" width="15.72" height="20.928" viewBox="0 0 15.72 20.928">
  <g id="Group_431" data-name="Group 431" transform="translate(0.5 -2.77)">
    <path id="Path_59" data-name="Path 59" d="M2.244,0H7.327c1.239,0,7.361,5.979,7.361,7.219V17.952c0,1.239-2.228,2.244-3.468,2.244H2.244A2.244,2.244,0,0,1,0,17.952V2.244A2.244,2.244,0,0,1,2.244,0Z" transform="translate(0.115 3)" fill="#e2ebff"/>
    <g id="Icon_feather-file" data-name="Icon feather-file" transform="translate(0 3.27)">
      <path id="Path_52" data-name="Path 52" d="M14.28,3H7.84A1.921,1.921,0,0,0,6,4.993V20.935a1.921,1.921,0,0,0,1.84,1.993H18.88a1.921,1.921,0,0,0,1.84-1.993V9.975Z" transform="translate(-6 -3)" fill="none" stroke="#3483e2" stroke-linecap="round" stroke-linejoin="round" stroke-width="1"/>
      <path id="Path_53" data-name="Path 53" d="M19.5,3V9.975h6.975" transform="translate(-11.755 -3)" fill="none" stroke="#3483e2" stroke-linecap="round" stroke-linejoin="round" stroke-width="1"/>
    </g>
    <text id="doc" transform="translate(1.366 18.568)" fill="#3483e2" font-size="6" font-family="SourceSansPro-Bold, Source Sans Pro" font-weight="700" letter-spacing="0.05em"><tspan x="0" y="0">DOC</tspan></text>
  </g>
</svg>
