<svg xmlns="http://www.w3.org/2000/svg" width="19.735" height="19.591" viewBox="0 0 19.735 19.591">
  <g id="clients" transform="translate(-34.507 -147.243)">
    <path id="Path_634" data-name="Path 634" d="M35.508,166.834a3.04,3.04,0,0,1-.385-.164,1.164,1.164,0,0,1-.614-1.044q0-8.588,0-17.176A1.244,1.244,0,0,1,36,147.26q2.9.445,5.8.882c1.058.162,2.117.32,3.173.492a1.215,1.215,0,0,1,1.052,1.253c0,1.478,0,2.955,0,4.433v.245c.6.12,1.185.238,1.774.355,1.815.361,3.633.718,5.447,1.084a1.189,1.189,0,0,1,.955.877.609.609,0,0,0,.041.082v8.867c-.045.111-.083.226-.136.334a1.336,1.336,0,0,1-.866.668Zm2.28-.825v-.234q0-1.677,0-3.353a1.247,1.247,0,0,1,1.343-1.347q1.137,0,2.274,0a1.654,1.654,0,0,1,.4.043,1.222,1.222,0,0,1,.926,1.278c0,1.124,0,2.249,0,3.373v.223h2.456v-.266q0-5.445,0-10.889,0-2.458,0-4.915c0-.307-.1-.436-.4-.484-.487-.079-.976-.152-1.463-.226L39.9,148.7c-1.331-.2-2.662-.405-3.993-.6-.41-.061-.574.088-.575.5q0,8.442,0,16.884c0,.394.137.527.538.528h1.919Zm8.248,0h6.8a1.307,1.307,0,0,0,.268-.019.357.357,0,0,0,.293-.294,1.237,1.237,0,0,0,.018-.249q0-4.046,0-8.092c0-.038,0-.077,0-.116a.406.406,0,0,0-.376-.434q-2.516-.5-5.032-1l-1.971-.389ZM41.908,166v-.183q0-1.694,0-3.388c0-.372-.154-.526-.525-.526H39.15c-.386,0-.525.137-.525.518q0,1.694,0,3.388c0,.062.006.124.009.191Z" fill="#003139"/>
    <path id="Path_635" data-name="Path 635" d="M69.147,182.618a1.336,1.336,0,0,0,.866-.668c.053-.108.091-.222.136-.334v1Z" transform="translate(-15.907 -15.784)" fill="#003139"/>
    <path id="Path_636" data-name="Path 636" d="M40.29,155.392c.269,0,.539,0,.808,0a.4.4,0,0,0,.436-.389.386.386,0,0,0-.394-.427q-.836-.017-1.673,0a.386.386,0,0,0-.4.425.4.4,0,0,0,.432.392C39.764,155.394,40.027,155.392,40.29,155.392Zm.011,2.467c.27,0,.539,0,.808,0a.4.4,0,0,0,.423-.381.386.386,0,0,0-.386-.434q-.846-.017-1.693,0a.384.384,0,0,0-.386.434.4.4,0,0,0,.424.381C39.763,157.862,40.032,157.859,40.3,157.859Zm-.009,2.468c.269,0,.539,0,.808,0a.4.4,0,0,0,.434-.391.393.393,0,0,0-.415-.428q-.818-.015-1.635,0a.392.392,0,0,0-.414.429.4.4,0,0,0,.434.39C39.766,160.329,40.029,160.327,40.292,160.327Zm0,2.467c.269,0,.539,0,.808,0a.4.4,0,0,0,.434-.391.393.393,0,0,0-.415-.428q-.818-.014-1.635,0a.392.392,0,0,0-.414.429.4.4,0,0,0,.434.39C39.766,162.8,40.029,162.794,40.292,162.794Zm4.127-7.4c.269,0,.539,0,.808,0a.413.413,0,0,0,.425-.406.4.4,0,0,0-.4-.41q-.836-.016-1.673,0a.388.388,0,0,0-.4.423.4.4,0,0,0,.43.394C43.881,155.394,44.15,155.392,44.419,155.391Zm-.005,2.468c.263,0,.526,0,.788,0a.417.417,0,0,0,.449-.4.406.406,0,0,0-.412-.418q-.827-.015-1.654,0a.39.39,0,0,0-.405.418.4.4,0,0,0,.425.4C43.875,157.862,44.145,157.859,44.414,157.859Zm-.009,2.468c.269,0,.539,0,.808,0a.414.414,0,0,0,.438-.392.408.408,0,0,0-.421-.428q-.818-.014-1.635,0a.393.393,0,0,0-.413.429.4.4,0,0,0,.434.39C43.879,160.329,44.142,160.327,44.405,160.327Zm0,2.467c.269,0,.539,0,.808,0a.414.414,0,0,0,.435-.4.405.405,0,0,0-.407-.422q-.827-.015-1.654,0a.39.39,0,0,0-.408.433.4.4,0,0,0,.438.386C43.883,162.8,44.146,162.794,44.409,162.794Z" transform="translate(-2.095 -3.363)" fill="#003139"/>
    <path id="Path_637" data-name="Path 637" d="M40.29,155.392c-.263,0-.526,0-.788,0A.4.4,0,0,1,39.07,155a.386.386,0,0,1,.4-.425q.836-.016,1.673,0a.386.386,0,0,1,.394.427.4.4,0,0,1-.436.389C40.829,155.393,40.56,155.392,40.29,155.392Z" transform="translate(-2.095 -3.363)" fill="#003139"/>
    <path id="Path_638" data-name="Path 638" d="M40.3,159.955c-.269,0-.539,0-.808,0a.4.4,0,0,1-.424-.381.384.384,0,0,1,.386-.434q.846-.018,1.693,0a.386.386,0,0,1,.386.434.4.4,0,0,1-.423.381C40.84,159.958,40.571,159.955,40.3,159.955Z" transform="translate(-2.095 -5.459)" fill="#003139"/>
    <path id="Path_639" data-name="Path 639" d="M40.292,164.516c-.263,0-.526,0-.788,0a.4.4,0,0,1-.434-.39.392.392,0,0,1,.414-.429q.817-.015,1.635,0a.393.393,0,0,1,.415.428.4.4,0,0,1-.434.391C40.831,164.518,40.562,164.516,40.292,164.516Z" transform="translate(-2.095 -7.552)" fill="#003139"/>
    <path id="Path_640" data-name="Path 640" d="M40.292,169.078c-.263,0-.526,0-.788,0a.4.4,0,0,1-.434-.39.392.392,0,0,1,.414-.429q.817-.015,1.635,0a.393.393,0,0,1,.415.428.4.4,0,0,1-.434.391C40.831,169.08,40.562,169.078,40.292,169.078Z" transform="translate(-2.095 -9.647)" fill="#003139"/>
    <path id="Path_641" data-name="Path 641" d="M47.912,155.391c-.269,0-.539,0-.807,0a.4.4,0,0,1-.43-.394.388.388,0,0,1,.4-.423q.836-.015,1.673,0a.4.4,0,0,1,.4.41.413.413,0,0,1-.425.406C48.451,155.395,48.181,155.391,47.912,155.391Z" transform="translate(-5.587 -3.363)" fill="#003139"/>
    <path id="Path_642" data-name="Path 642" d="M47.906,159.954c-.269,0-.539,0-.808,0a.4.4,0,0,1-.425-.4.39.39,0,0,1,.405-.418q.827-.015,1.654,0a.406.406,0,0,1,.412.418.417.417,0,0,1-.449.4C48.432,159.955,48.169,159.954,47.906,159.954Z" transform="translate(-5.587 -5.457)" fill="#003139"/>
    <path id="Path_643" data-name="Path 643" d="M47.9,164.516c-.263,0-.526,0-.789,0a.4.4,0,0,1-.434-.39.393.393,0,0,1,.413-.429q.818-.015,1.635,0a.408.408,0,0,1,.421.428.414.414,0,0,1-.438.392C48.437,164.518,48.167,164.516,47.9,164.516Z" transform="translate(-5.587 -7.552)" fill="#003139"/>
    <path id="Path_644" data-name="Path 644" d="M47.9,169.079c-.263,0-.526,0-.788,0a.4.4,0,0,1-.438-.386.391.391,0,0,1,.408-.433q.827-.015,1.654,0a.405.405,0,0,1,.407.422.414.414,0,0,1-.435.4C48.441,169.081,48.171,169.079,47.9,169.079Z" transform="translate(-5.588 -9.648)" fill="#003139"/>
    <path id="Path_645" data-name="Path 645" d="M61.586,169.078c-.263,0-.526,0-.788,0a.4.4,0,0,1-.437-.387.391.391,0,0,1,.409-.432q.818-.015,1.635,0a.409.409,0,0,1,.425.425.418.418,0,0,1-.455.395C62.112,169.08,61.849,169.078,61.586,169.078Z" transform="translate(-11.872 -9.647)" fill="#003139"/>
    <path id="Path_646" data-name="Path 646" d="M61.585,173.641c-.263,0-.526,0-.788,0a.4.4,0,0,1-.436-.388.391.391,0,0,1,.41-.431q.818-.015,1.635,0a.409.409,0,0,1,.424.426.418.418,0,0,1-.456.394C62.111,173.642,61.848,173.641,61.585,173.641Z" transform="translate(-11.872 -11.742)" fill="#003139"/>
    <path id="Path_647" data-name="Path 647" d="M61.585,178.2c-.263,0-.526,0-.788,0a.4.4,0,0,1-.436-.388.392.392,0,0,1,.411-.431q.817-.015,1.635,0a.409.409,0,0,1,.423.426.418.418,0,0,1-.456.394C62.111,178.2,61.848,178.2,61.585,178.2Z" transform="translate(-11.872 -13.837)" fill="#003139"/>
  </g>
</svg>
