<svg xmlns="http://www.w3.org/2000/svg" width="95.055" height="66.406" viewBox="0 0 95.055 66.406">
  <g id="Group_539" data-name="Group 539" transform="translate(-15.245 -628.594)">
    <g id="portal" transform="translate(56.999 682)">
      <path id="Path_694" data-name="Path 694" d="M77,0h53V13H86.766Z" transform="translate(-77)" fill="#fff"/>
      <path id="Path_766" data-name="Path 766" d="M.83-3.155V-6.781H1.8a1.791,1.791,0,0,1,1.3.449,1.79,1.79,0,0,1,.466,1.347,2.416,2.416,0,0,1-.119.793,1.521,1.521,0,0,1-.344.574,1.435,1.435,0,0,1-.543.346,2.1,2.1,0,0,1-.723.116Zm.643-.521h.283A1.105,1.105,0,0,0,2.607-4a1.414,1.414,0,0,0,.3-.989,1.343,1.343,0,0,0-.3-.97,1.135,1.135,0,0,0-.848-.3H1.473Zm3.93.588a1.412,1.412,0,0,1-.527-.1,1.25,1.25,0,0,1-.427-.28,1.277,1.277,0,0,1-.285-.446,1.648,1.648,0,0,1-.1-.6,1.615,1.615,0,0,1,.105-.6,1.373,1.373,0,0,1,.28-.449,1.24,1.24,0,0,1,.4-.283,1.147,1.147,0,0,1,.466-.1,1.184,1.184,0,0,1,.488.094.952.952,0,0,1,.352.266,1.17,1.17,0,0,1,.213.41,1.794,1.794,0,0,1,.072.521q0,.094-.008.177a1.182,1.182,0,0,1-.019.133H4.682a.879.879,0,0,0,.258.563.774.774,0,0,0,.546.2,1,1,0,0,0,.33-.053,1.466,1.466,0,0,0,.3-.147l.216.4a1.957,1.957,0,0,1-.432.211A1.5,1.5,0,0,1,5.4-3.089ZM4.677-4.774H5.885a.807.807,0,0,0-.136-.5.49.49,0,0,0-.419-.18.6.6,0,0,0-.427.172A.815.815,0,0,0,4.677-4.774ZM7.049-2.08v-3.8h.527l.044.288h.022a1.948,1.948,0,0,1,.382-.249.967.967,0,0,1,.438-.105,1.009,1.009,0,0,1,.452.1.937.937,0,0,1,.335.28,1.3,1.3,0,0,1,.211.438,2.1,2.1,0,0,1,.072.571,1.864,1.864,0,0,1-.1.624,1.415,1.415,0,0,1-.258.46,1.126,1.126,0,0,1-.371.285,1.011,1.011,0,0,1-.438.1.879.879,0,0,1-.355-.078,1.357,1.357,0,0,1-.344-.222l.017.455v.854ZM8.236-3.616a.555.555,0,0,0,.455-.236,1.131,1.131,0,0,0,.183-.7,1.227,1.227,0,0,0-.139-.637.486.486,0,0,0-.449-.227.884.884,0,0,0-.6.3v1.269a.953.953,0,0,0,.288.177A.771.771,0,0,0,8.236-3.616Zm3.054.527a1.288,1.288,0,0,1-.488-.094,1.214,1.214,0,0,1-.413-.277,1.326,1.326,0,0,1-.285-.449,1.631,1.631,0,0,1-.105-.6,1.631,1.631,0,0,1,.105-.6,1.326,1.326,0,0,1,.285-.449,1.249,1.249,0,0,1,.413-.28,1.256,1.256,0,0,1,.488-.1,1.276,1.276,0,0,1,.491.1,1.212,1.212,0,0,1,.413.28,1.385,1.385,0,0,1,.285.449,1.594,1.594,0,0,1,.108.6,1.594,1.594,0,0,1-.108.6,1.385,1.385,0,0,1-.285.449,1.179,1.179,0,0,1-.413.277A1.309,1.309,0,0,1,11.29-3.089Zm0-.521a.544.544,0,0,0,.471-.247,1.129,1.129,0,0,0,.172-.657,1.139,1.139,0,0,0-.172-.662.544.544,0,0,0-.471-.247.537.537,0,0,0-.468.247,1.154,1.154,0,0,0-.169.662,1.143,1.143,0,0,0,.169.657A.537.537,0,0,0,11.29-3.61Zm2.666.521A1.508,1.508,0,0,1,13.4-3.2a1.8,1.8,0,0,1-.474-.269l.3-.41a1.73,1.73,0,0,0,.363.224.948.948,0,0,0,.391.08.49.49,0,0,0,.327-.091.3.3,0,0,0,.105-.236.232.232,0,0,0-.05-.147.479.479,0,0,0-.133-.114,1.279,1.279,0,0,0-.188-.091l-.211-.086q-.133-.05-.272-.116a1.092,1.092,0,0,1-.247-.161.811.811,0,0,1-.177-.219.6.6,0,0,1-.069-.3.737.737,0,0,1,.266-.588,1.082,1.082,0,0,1,.726-.227,1.256,1.256,0,0,1,.51.1,1.9,1.9,0,0,1,.394.227l-.294.388a1.52,1.52,0,0,0-.291-.169.765.765,0,0,0-.308-.064.447.447,0,0,0-.3.086.274.274,0,0,0-.1.213.217.217,0,0,0,.047.141.436.436,0,0,0,.125.1,1.27,1.27,0,0,0,.18.083q.1.039.213.078.139.05.277.114a1.138,1.138,0,0,1,.252.158.72.72,0,0,1,.183.23.706.706,0,0,1,.069.324.788.788,0,0,1-.069.33.762.762,0,0,1-.2.266.985.985,0,0,1-.333.18A1.435,1.435,0,0,1,13.956-3.089Zm1.63-.067V-5.877h.637v2.722Zm.322-3.2a.407.407,0,0,1-.283-.1.334.334,0,0,1-.111-.261.343.343,0,0,1,.111-.263.4.4,0,0,1,.283-.1.4.4,0,0,1,.283.1.343.343,0,0,1,.111.263.334.334,0,0,1-.111.261A.407.407,0,0,1,15.907-6.354ZM18-3.089a1,1,0,0,1-.4-.072.681.681,0,0,1-.266-.2.838.838,0,0,1-.15-.31,1.589,1.589,0,0,1-.047-.4v-1.3h-.388v-.477l.421-.028.078-.743h.532v.743h.693v.5h-.693v1.3q0,.477.382.477a.676.676,0,0,0,.147-.017.689.689,0,0,0,.136-.044l.111.471a2.122,2.122,0,0,1-.252.069A1.431,1.431,0,0,1,18-3.089ZM20.2-3.155V-6.781h1.142a2.648,2.648,0,0,1,.557.055,1.2,1.2,0,0,1,.446.188.908.908,0,0,1,.294.346,1.19,1.19,0,0,1,.105.529,1.2,1.2,0,0,1-.105.521,1.021,1.021,0,0,1-.291.369,1.216,1.216,0,0,1-.438.216,2.055,2.055,0,0,1-.546.069h-.521v1.33ZM20.846-5h.471q.8,0,.8-.66a.515.515,0,0,0-.208-.474,1.166,1.166,0,0,0-.613-.13h-.449Zm2.528,1.846V-5.877h.637v2.722Zm.322-3.2a.407.407,0,0,1-.283-.1.334.334,0,0,1-.111-.261.343.343,0,0,1,.111-.263.4.4,0,0,1,.283-.1.4.4,0,0,1,.283.1.343.343,0,0,1,.111.263.334.334,0,0,1-.111.261A.407.407,0,0,1,23.7-6.354Zm2.267,3.265a1.411,1.411,0,0,1-.518-.094,1.168,1.168,0,0,1-.419-.277,1.282,1.282,0,0,1-.277-.449,1.712,1.712,0,0,1-.1-.6,1.559,1.559,0,0,1,.111-.6,1.328,1.328,0,0,1,.3-.449,1.3,1.3,0,0,1,.435-.28,1.4,1.4,0,0,1,.518-.1,1.08,1.08,0,0,1,.457.089,1.487,1.487,0,0,1,.341.216l-.31.416a1.056,1.056,0,0,0-.219-.147.531.531,0,0,0-.236-.053.665.665,0,0,0-.538.247,1,1,0,0,0-.205.662,1,1,0,0,0,.2.657.646.646,0,0,0,.524.247.677.677,0,0,0,.3-.069,1.357,1.357,0,0,0,.258-.164l.261.421a1.357,1.357,0,0,1-.424.249A1.353,1.353,0,0,1,25.963-3.089Zm1.425-.067V-7.069h.626v2.445h.017l1.009-1.253h.7l-.931,1.109,1.025,1.613h-.693l-.7-1.181-.427.488v.693Zm5.416.067a1.659,1.659,0,0,1-.568-.091,1.062,1.062,0,0,1-.432-.291,1.348,1.348,0,0,1-.277-.513,2.6,2.6,0,0,1-.1-.762V-6.781h.643V-4.7a2,2,0,0,0,.053.5.867.867,0,0,0,.15.324.551.551,0,0,0,.23.175.807.807,0,0,0,.3.053.852.852,0,0,0,.3-.053.563.563,0,0,0,.238-.175A.87.87,0,0,0,33.5-4.2a1.9,1.9,0,0,0,.055-.5V-6.781h.615v2.034a2.673,2.673,0,0,1-.094.762,1.32,1.32,0,0,1-.274.513,1.062,1.062,0,0,1-.432.291A1.659,1.659,0,0,1,32.8-3.089ZM35.02-2.08v-3.8h.527l.044.288h.022A1.948,1.948,0,0,1,36-5.838a.967.967,0,0,1,.438-.105,1.009,1.009,0,0,1,.452.1.937.937,0,0,1,.335.28,1.3,1.3,0,0,1,.211.438,2.1,2.1,0,0,1,.072.571,1.865,1.865,0,0,1-.1.624,1.415,1.415,0,0,1-.258.46,1.126,1.126,0,0,1-.371.285,1.011,1.011,0,0,1-.438.1.879.879,0,0,1-.355-.078,1.357,1.357,0,0,1-.344-.222l.017.455v.854Zm1.186-1.535a.555.555,0,0,0,.455-.236,1.131,1.131,0,0,0,.183-.7,1.227,1.227,0,0,0-.139-.637.486.486,0,0,0-.449-.227.884.884,0,0,0-.6.3v1.269a.953.953,0,0,0,.288.177A.771.771,0,0,0,36.206-3.616Z" transform="translate(11 11.08)" fill="#003139"/>
    </g>
    <path id="Path_767" data-name="Path 767" d="M1.463-5.055v-7.686H3.632a5.261,5.261,0,0,1,1.591.224,3.192,3.192,0,0,1,1.214.69,3.027,3.027,0,0,1,.778,1.185,4.846,4.846,0,0,1,.271,1.709,4.946,4.946,0,0,1-.271,1.721A3.188,3.188,0,0,1,6.45-6a3.149,3.149,0,0,1-1.185.713,4.735,4.735,0,0,1-1.538.236ZM3.2-6.458h.33a2.9,2.9,0,0,0,.9-.13,1.653,1.653,0,0,0,.684-.419,1.964,1.964,0,0,0,.442-.76,3.688,3.688,0,0,0,.159-1.167,3.588,3.588,0,0,0-.159-1.149,1.861,1.861,0,0,0-.442-.743,1.609,1.609,0,0,0-.684-.395,3.171,3.171,0,0,0-.9-.118H3.2Zm5.753,1.4v-7.686H11.59a5.455,5.455,0,0,1,1.191.124,2.688,2.688,0,0,1,.967.413,2.042,2.042,0,0,1,.654.766,2.578,2.578,0,0,1,.242,1.173A2.634,2.634,0,0,1,14.4-9.1a2.263,2.263,0,0,1-.654.813,2.785,2.785,0,0,1-.955.472,4.23,4.23,0,0,1-1.155.153h-.955v2.605ZM10.682-9.04h.849q1.415,0,1.415-1.226a.938.938,0,0,0-.377-.849,1.978,1.978,0,0,0-1.085-.248h-.8ZM19-4.914A2.907,2.907,0,0,1,16.718-5.8a4.161,4.161,0,0,1-.79-2.818v-4.126h1.745v4.3a2.7,2.7,0,0,0,.342,1.58,1.17,1.17,0,0,0,.99.448,1.2,1.2,0,0,0,1-.448,2.628,2.628,0,0,0,.354-1.58v-4.3h1.674v4.126A4.228,4.228,0,0,1,21.262-5.8,2.836,2.836,0,0,1,19-4.914Zm7.168-.141v-7.686h2.641A5.455,5.455,0,0,1,30-12.618a2.688,2.688,0,0,1,.967.413,2.042,2.042,0,0,1,.654.766,2.578,2.578,0,0,1,.242,1.173A2.634,2.634,0,0,1,31.625-9.1a2.263,2.263,0,0,1-.654.813,2.785,2.785,0,0,1-.955.472,4.23,4.23,0,0,1-1.155.153h-.955v2.605ZM27.905-9.04h.849q1.415,0,1.415-1.226a.938.938,0,0,0-.377-.849,1.978,1.978,0,0,0-1.085-.248h-.8ZM35.32-4.914a2.877,2.877,0,0,1-1.073-.206,2.722,2.722,0,0,1-.914-.6,2.858,2.858,0,0,1-.631-.961,3.392,3.392,0,0,1-.236-1.3,3.392,3.392,0,0,1,.236-1.3,2.858,2.858,0,0,1,.631-.961,2.722,2.722,0,0,1,.914-.6,2.878,2.878,0,0,1,1.073-.206,2.833,2.833,0,0,1,1.067.206,2.737,2.737,0,0,1,.908.6,2.857,2.857,0,0,1,.631.961,3.392,3.392,0,0,1,.236,1.3,3.392,3.392,0,0,1-.236,1.3,2.857,2.857,0,0,1-.631.961,2.737,2.737,0,0,1-.908.6A2.833,2.833,0,0,1,35.32-4.914Zm0-1.4a.879.879,0,0,0,.8-.448,2.336,2.336,0,0,0,.271-1.214,2.336,2.336,0,0,0-.271-1.214.879.879,0,0,0-.8-.448.876.876,0,0,0-.808.448,2.379,2.379,0,0,0-.265,1.214,2.379,2.379,0,0,0,.265,1.214A.876.876,0,0,0,35.32-6.316Zm4.032,1.261V-10.9h1.415l.118,1.026h.047a2.262,2.262,0,0,1,.766-.884,1.666,1.666,0,0,1,.9-.283,2.3,2.3,0,0,1,.407.029,1.243,1.243,0,0,1,.289.088l-.283,1.5A2.8,2.8,0,0,0,42.7-9.5a2.031,2.031,0,0,0-.33-.024,1.264,1.264,0,0,0-.69.236,1.707,1.707,0,0,0-.6.837v3.4Zm6.944.141a2.334,2.334,0,0,1-.925-.165,1.621,1.621,0,0,1-.625-.46,1.871,1.871,0,0,1-.354-.713,3.576,3.576,0,0,1-.112-.925v-2.37h-.8v-1.285l.9-.071.2-1.556h1.438V-10.9h1.4v1.356h-1.4V-7.2a1.018,1.018,0,0,0,.206.713.719.719,0,0,0,.548.218,1.235,1.235,0,0,0,.289-.035,1.927,1.927,0,0,0,.265-.083l.271,1.261q-.236.071-.554.141A3.453,3.453,0,0,1,46.3-4.914Zm3.5,0a1.862,1.862,0,0,1-.725-.136,1.553,1.553,0,0,1-.548-.377,1.746,1.746,0,0,1-.348-.56,1.9,1.9,0,0,1-.124-.7A1.637,1.637,0,0,1,48.83-8.12a5.739,5.739,0,0,1,2.511-.7.986.986,0,0,0-.23-.619.889.889,0,0,0-.69-.23,2.089,2.089,0,0,0-.749.141,5.441,5.441,0,0,0-.8.389l-.625-1.144a6.13,6.13,0,0,1,1.185-.554,4.025,4.025,0,0,1,1.314-.212,2.239,2.239,0,0,1,1.727.642,2.865,2.865,0,0,1,.6,2v3.348H51.66l-.118-.6h-.047a3.741,3.741,0,0,1-.79.536A2,2,0,0,1,49.8-4.914Zm.589-1.344a.953.953,0,0,0,.507-.13,2.478,2.478,0,0,0,.448-.365V-7.778a3.139,3.139,0,0,0-1.273.377.712.712,0,0,0-.354.589.487.487,0,0,0,.183.419A.8.8,0,0,0,50.386-6.258Zm5.741,1.344a1.8,1.8,0,0,1-.754-.141,1.219,1.219,0,0,1-.489-.395,1.677,1.677,0,0,1-.265-.613,3.62,3.62,0,0,1-.083-.808v-6.448h1.733V-6.8a.55.55,0,0,0,.1.377.287.287,0,0,0,.206.106h.1a.379.379,0,0,0,.112-.024L57-5.055a1.841,1.841,0,0,1-.36.1A2.791,2.791,0,0,1,56.128-4.914Z" transform="translate(52.999 683.159)" fill="#003139"/>
    <path id="Path_771" data-name="Path 771" d="M-.255,43.742V.1S6.616.094,14.53.094C23.8.541,28.545,6.414,30.119,11.081c3.5,12.349-7.24,17.939-7.24,17.939L34.854,43.731H24.029L9.987,26.212s12.029-.895,11.4-11.218C19.3,7.334,11.47,7.444,8.8,7.445V43.731" transform="translate(15.5 628.5)" fill="#003139"/>
    <g id="Group_539-2" data-name="Group 539">
      <path id="Path_772" data-name="Path 772" d="M-8453.228,12553.551l.034,17.917h5.884s5.929-.438,6.442-4.251-3.287-4.939-3.287-4.939,3.409-1.642,2.911-4.822-3.84-3.814-6.223-3.9S-8453.228,12553.551-8453.228,12553.551Z" transform="translate(8501 -11906)" fill="#fff"/>
      <path id="Path_773" data-name="Path 773" d="M-8449.677,12556.449v4.5s4.493.231,4.8-1.982a2.161,2.161,0,0,0-2.172-2.515Z" transform="translate(8501 -11906)" fill="#99cd4a"/>
      <path id="Path_774" data-name="Path 774" d="M-8449.677,12563.685v4.628s5.359.339,5.251-1.965-1.893-2.613-3.224-2.663S-8449.677,12563.685-8449.677,12563.685Z" transform="translate(8501 -11906)" fill="#99cd4a"/>
    </g>
    <g id="Group_540" data-name="Group 540">
      <path id="Path_775" data-name="Path 775" d="M-8431.52,12553.511l-9.171,18h3.367l1.247-2.547h9.236l1.134,2.547h3.456Z" transform="translate(8501 -11906)" fill="#fff"/>
      <path id="Path_776" data-name="Path 776" d="M-8431.437,12560.23l-3.449,6.231h6.419Z" transform="translate(8501 -11906)" fill="#99cd4a"/>
    </g>
    <path id="Path_777" data-name="Path 777" d="M-8421.326,12553.721v17.814h3.546v-9.894l10.355,9.713v-17.761h-3.693v9.748Z" transform="translate(8501 -11906)" fill="#fff"/>
    <path id="Path_778" data-name="Path 778" d="M-8405.533,12553.594v17.91h3.241v-7.723l6.895,7.723h4.4l-8.725-9.6,9.021-8.309h-4.264l-7.466,6.947v-6.947Z" transform="translate(8501 -11906)" fill="#fff"/>
  </g>
</svg>
