<svg id="Group_354" data-name="Group 354" xmlns="http://www.w3.org/2000/svg" width="96.527" height="86.921" viewBox="0 0 96.527 86.921">
  <path id="Path_721" data-name="Path 721" d="M310.289,365.341v-2.009q0-21.96,0-43.922c0-3.826,1.574-5.384,5.433-5.387q7.518-.006,15.038,0a3.77,3.77,0,0,1,1.326.068c.339.134.778.548.782.844s-.436.747-.766.848a5.739,5.739,0,0,1-1.626.072q-7.519,0-15.038,0c-2.367,0-3.3.885-3.3,3.2q-.015,22.483,0,44.965c0,.385.062.77.1,1.23h69.047c0-2.04,0-4.011,0-5.983a3.824,3.824,0,0,1,.023-1.327,5.914,5.914,0,0,1,.927-1.266c.31.432.857.849.888,1.3.115,1.68.06,3.372.067,5.059,0,.689,0,1.379,0,2.31.724,0,1.345.021,1.964,0a2.977,2.977,0,0,1,3.111,1.575c.632,1.251.019,2.211-.623,3.289-1.6,2.691-3.82,3.457-6.939,3.44-23.127-.13-46.255-.071-69.383-.071a7.323,7.323,0,0,1-6.31-4.907,2.746,2.746,0,0,1,2.571-3.3C308.412,365.279,309.252,365.341,310.289,365.341Zm36.45,1.835v-.006H309.206a4.07,4.07,0,0,0-1.472.071c-.364.149-.842.644-.83.97.045,1.2,2.721,3.457,3.959,3.457,23.482,0,46.966-.032,70.449.052,2.081.007,3.541-.5,4.513-2.3.289-.535.5-1.111.746-1.669a6.814,6.814,0,0,0-1.852-.555Q365.73,367.152,346.74,367.176Z" transform="translate(-304.937 -286.716)" fill="#99cd4a"/>
  <path id="Path_722" data-name="Path 722" d="M400.055,292.107h-7.026q-3.127,0-6.255,0c-2.007,0-2.053-.047-2.056-2.12q-.01-5.435,0-10.871v-1.689c-.647-.039-1.128-.093-1.61-.093-8.736,0-17.473.026-26.209-.034-1.374-.01-1.737.378-1.734,1.746q.066,29.039.03,58.08V338.8h44.862v-1.645q0-7.074,0-14.148a3.053,3.053,0,0,1,.053-1.176c.154-.341.56-.792.849-.787s.664.454.87.789c.135.219.049.58.049.877,0,5.411-.038,10.822.026,16.233.017,1.386-.482,1.815-1.815,1.813q-22.487-.044-44.973,0c-1.38,0-1.788-.518-1.786-1.851q.045-30.827,0-61.655c0-1.377.505-1.822,1.838-1.818,9.879.033,19.757,0,29.636.055a3.328,3.328,0,0,1,2.069.856q7.076,6.714,14.019,13.564a3.755,3.755,0,0,1,.942,2.165,25.173,25.173,0,0,1,0,4.46c-.033.419-.618.8-.95,1.191-.274-.4-.753-.787-.784-1.2C399.992,295.142,400.055,293.752,400.055,292.107Zm-1.464-1.9L386.7,278.726V290.21Z" transform="translate(-319.094 -275.434)" fill="#99cd4a"/>
  <path id="Path_723" data-name="Path 723" d="M429.31,292.939a13.459,13.459,0,0,0,.022,2.028,6.012,6.012,0,0,0,.615,2.028,2.691,2.691,0,0,1,.017,2.9c-1.416,2.615-2.68,5.313-4.088,7.933-.245.456-.9.7-1.359,1.034-.043-.6-.316-1.317-.09-1.8,1.194-2.559,2.54-5.048,3.766-7.592a6.367,6.367,0,0,0,.3-1.747l-.485-.121c-.562,1.089-1.116,2.182-1.686,3.267-5.012,9.537-9.889,19.149-15.126,28.56-1.459,2.621-3.973,4.658-6.039,6.931a.969.969,0,0,1-.917.182,1.2,1.2,0,0,1-.456-.966c.735-3.273,1.076-6.733,2.407-9.753,2.675-6.072,6.27-11.749,8.786-17.876,2.239-5.454,5.119-10.553,7.577-15.874.352-.762.635-1.633,1.813-1.295.143.041.413-.193.558-.357,1.242-1.4,1.66-1.441,3.367-.434,1.327.782,1.162,1.8.5,2.942ZM409,328.974a5.571,5.571,0,0,0,1.138-1.106c3.888-6.982,6.879-14.423,11.218-21.192,2.444-3.812,4.181-8.076,6.289-12.242l-3.492-1.735-6.551,12.981a8.827,8.827,0,0,1,1.739.918c.3.265.382.789.561,1.2a4.116,4.116,0,0,1-1.266.282,5.8,5.8,0,0,1-1.4-.532c-3.3,6.54-6.557,12.976-9.717,19.227.284,1.075,2.322.566,1.5,2.21l-2.281.167-.59,3.15.524.221Z" transform="translate(-333.853 -279.489)" fill="#99cd4a"/>
  <path id="Path_724" data-name="Path 724" d="M372.31,348.23c1.8.055,2.924.942,2.476,3.181l.369,0a5.549,5.549,0,0,1,.669-1.083,1.711,1.711,0,0,1,1.03-.587c.246,0,.609.457.716.777.586,1.759,1.02,1.9,2.294.575.709-.735,1.357-.726,1.724.2.628,1.586,1.909,1.884,3.357,1.931,1.188.039,2.382-.033,3.564.056a2.982,2.982,0,0,1,1.478.582,1.09,1.09,0,0,1,.283,1.012,1.166,1.166,0,0,1-.934.5c-1.619-.059-3.234-.205-4.851-.32A1.82,1.82,0,0,1,383.9,355c-1.193-.534-2.412-1.593-3.552-1.51a6.785,6.785,0,0,1-3.676-.275c-.483-.22-1.487.587-2.192,1.024-.307.19-.4.823-.7.913-.67.206-1.605.511-2.069.212-.82-.53-.182-1.237.255-1.882a4.989,4.989,0,0,0,.921-2.124c.042-.4-.56-.959-.99-1.293-.579-.449-1.055-.248-1.626.3-1.421,1.371-2.963,2.617-4.488,3.876-.542.447-1.3.908-1.728.019-.158-.324.294-1.138.681-1.5,1.3-1.211,2.712-2.305,4.057-3.47a1.925,1.925,0,0,0,.509-2.221,17.421,17.421,0,0,1-.571-5.111A3.725,3.725,0,0,1,370.3,339.5a2.019,2.019,0,0,1,3.074,2.057C373.235,343.706,372.712,345.828,372.31,348.23Zm-1.266-2.541.642-4.865C370.251,342,370.1,343.617,371.044,345.689Z" transform="translate(-322.223 -294.078)" fill="#99cd4a"/>
  <path id="Path_725" data-name="Path 725" d="M380.909,327.494q-6.842,0-13.685,0a3.361,3.361,0,0,1-1.319-.088,1.411,1.411,0,0,1-.724-.928c-.033-.232.395-.661.7-.775a3.914,3.914,0,0,1,1.323-.087q13.907-.005,27.816,0c.3,0,.649-.1.88.03a8.122,8.122,0,0,1,1.144.9c-.371.316-.719.862-1.117.9-1.227.122-2.475.052-3.714.052Q386.561,327.5,380.909,327.494Z" transform="translate(-322.562 -290.104)" fill="#99cd4a"/>
  <path id="Path_726" data-name="Path 726" d="M381.023,318.333q-6.916,0-13.831,0a2.777,2.777,0,0,1-1.172-.051c-.372-.194-.618-.63-.92-.961a5.154,5.154,0,0,1,.919-.787,2.063,2.063,0,0,1,.88-.042q14.128,0,28.256,0a2.358,2.358,0,0,1,1.024.06c.334.176.78.564.771.848-.009.307-.436.709-.775.868a2.931,2.931,0,0,1-1.173.064Q388.013,318.335,381.023,318.333Z" transform="translate(-322.539 -287.438)" fill="#99cd4a"/>
  <path id="Path_727" data-name="Path 727" d="M384.717,307.049c1.879,0,3.761-.063,5.633.045.485.028.939.6,1.407.92-.478.311-.952.881-1.436.891q-5.558.112-11.121,0c-.478-.01-.942-.6-1.413-.922.481-.311.948-.861,1.445-.891C381.055,306.983,382.888,307.048,384.717,307.049Z" transform="translate(-326.251 -284.677)" fill="#99cd4a"/>
  <path id="Path_728" data-name="Path 728" d="M372.079,293.356c-1.878,0-3.759.065-5.629-.045-.468-.028-.9-.62-1.353-.953.448-.288.891-.816,1.345-.826,3.754-.074,7.509-.087,11.263-.014.457.008.9.637,1.353.978-.448.291-.886.81-1.348.833-1.873.1-3.754.04-5.631.04Z" transform="translate(-322.538 -280.125)" fill="#99cd4a"/>
  <path id="Path_729" data-name="Path 729" d="M372.08,286.051c-1.878,0-3.758.055-5.631-.036-.46-.022-.9-.515-1.343-.791.445-.336.884-.954,1.336-.964q5.63-.119,11.264,0c.458.01.9.627,1.357.962-.45.277-.889.768-1.352.791C375.837,286.1,373.957,286.048,372.08,286.051Z" transform="translate(-322.54 -277.999)" fill="#99cd4a"/>
  <path id="Path_730" data-name="Path 730" d="M372.159,334.775c1.836,0,3.677-.066,5.507.045.482.029.932.609,1.4.937-.444.286-.883.811-1.331.819q-5.657.1-11.315,0c-.441-.008-.872-.542-1.308-.832.465-.323.915-.9,1.4-.923C368.383,334.71,370.273,334.775,372.159,334.775Z" transform="translate(-322.541 -292.789)" fill="#99cd4a"/>
  <path id="Path_731" data-name="Path 731" d="M326.016,284.527c1.667,1.845,3.275,3.609,4.837,5.415.064.074-.259.661-.51.78a1.038,1.038,0,0,1-.94-.127q-2.2-2.107-4.308-4.319a1.055,1.055,0,0,1-.095-.934C325.107,285.084,325.478,284.937,326.016,284.527Z" transform="translate(-310.788 -278.094)" fill="#99cd4a"/>
  <path id="Path_732" data-name="Path 732" d="M341.561,283.357a15.631,15.631,0,0,1-.044,2.666c-.08.453-.613.828-.94,1.238-.283-.393-.79-.774-.811-1.181a49.49,49.49,0,0,1,0-5.342c.024-.42.592-.809.91-1.211.294.386.777.742.841,1.163A18.016,18.016,0,0,1,341.561,283.357Z" transform="translate(-315.107 -276.631)" fill="#99cd4a"/>
  <path id="Path_733" data-name="Path 733" d="M324.437,302.8a17.707,17.707,0,0,1-2.665-.038c-.426-.064-.788-.547-1.179-.84.367-.313.722-.878,1.1-.9,1.875-.093,3.759-.084,5.635,0,.345.015.667.539,1,.828-.358.315-.685.845-1.081.9A19.623,19.623,0,0,1,324.437,302.8Z" transform="translate(-309.518 -282.903)" fill="#99cd4a"/>
</svg>
