<svg xmlns="http://www.w3.org/2000/svg" width="16.753" height="13.417" viewBox="0 0 16.753 13.417"><defs><style>.a,.b{fill:#1f7888;}.a{opacity:0;}</style></defs><path class="a" d="M14.956,9.134A8.379,8.379,0,0,0,7.524,4.5,8.38,8.38,0,0,0,.091,9.135a.845.845,0,0,0,0,.763,8.379,8.379,0,0,0,7.433,4.634A8.38,8.38,0,0,0,14.956,9.9.845.845,0,0,0,14.956,9.134ZM7.524,13.278a3.762,3.762,0,1,1,3.762-3.762A3.762,3.762,0,0,1,7.524,13.278Zm0-6.27a2.49,2.49,0,0,0-.661.1A1.25,1.25,0,0,1,5.115,8.855,2.5,2.5,0,1,0,7.524,7.008Z" transform="translate(0.855 -2.791)"/><path class="b" d="M8.376,10.482A3.757,3.757,0,0,1,4.636,6.993L1.89,4.869A8.734,8.734,0,0,0,.929,6.326a.849.849,0,0,0,0,.765,8.4,8.4,0,0,0,7.448,4.649,8.122,8.122,0,0,0,2.039-.274L9.057,10.413a3.769,3.769,0,0,1-.681.068ZM16.591,12,13.7,9.765A8.679,8.679,0,0,0,15.824,7.09a.849.849,0,0,0,0-.765A8.4,8.4,0,0,0,8.376,1.677a8.059,8.059,0,0,0-3.856.988L1.19.088A.419.419,0,0,0,.6.162L.088.824a.42.42,0,0,0,.074.588l15.4,11.916a.419.419,0,0,0,.588-.074l.514-.662A.42.42,0,0,0,16.591,12ZM11.782,8.283l-1.029-.8a2.482,2.482,0,0,0-3.039-3.2,1.25,1.25,0,0,1,.244.739,1.223,1.223,0,0,1-.04.262L5.99,3.8a3.723,3.723,0,0,1,2.386-.868,3.769,3.769,0,0,1,3.769,3.773,3.687,3.687,0,0,1-.364,1.575Z" transform="translate(0 0)"/></svg>