<svg width="40" height="40" viewBox="0 0 40 40" fill="none" xmlns="http://www.w3.org/2000/svg">
<path fill-rule="evenodd" clip-rule="evenodd" d="M20 0C8.95431 0 0 8.95431 0 20C0 31.0457 8.95431 40 20 40C31.0457 40 40 31.0457 40 20C40 8.95431 31.0457 0 20 0ZM10 25.8284V26C10 26.5523 10.4477 27 11 27H29C29.5523 27 30 26.5523 30 26V25.8284C30 25.298 29.7893 24.7893 29.4142 24.4142L28.4645 23.4645C27.5268 22.5268 27 21.255 27 19.9289V17C27 13.6863 24.3137 11 21 11V10C21 9.44772 20.5523 9 20 9C19.4477 9 19 9.44772 19 10V11C15.6863 11 13 13.6863 13 17V19.9289C13 21.255 12.4732 22.5268 11.5355 23.4645L10.5858 24.4142C10.2107 24.7893 10 25.298 10 25.8284ZM23 29V30C23 31.1046 22.1046 32 21 32H19C17.8954 32 17 31.1046 17 30V29H23Z" fill="#189FB5"/>
<path fill-rule="evenodd" clip-rule="evenodd" d="M20 0C8.95431 0 0 8.95431 0 20C0 31.0457 8.95431 40 20 40C31.0457 40 40 31.0457 40 20C40 8.95431 31.0457 0 20 0ZM10 25.8284V26C10 26.5523 10.4477 27 11 27H29C29.5523 27 30 26.5523 30 26V25.8284C30 25.298 29.7893 24.7893 29.4142 24.4142L28.4645 23.4645C27.5268 22.5268 27 21.255 27 19.9289V17C27 13.6863 24.3137 11 21 11V10C21 9.44772 20.5523 9 20 9C19.4477 9 19 9.44772 19 10V11C15.6863 11 13 13.6863 13 17V19.9289C13 21.255 12.4732 22.5268 11.5355 23.4645L10.5858 24.4142C10.2107 24.7893 10 25.298 10 25.8284ZM23 29V30C23 31.1046 22.1046 32 21 32H19C17.8954 32 17 31.1046 17 30V29H23Z" fill="#189FB5"/>
<path d="M22 15C22 12.7909 23.7909 11 26 11V11C28.2091 11 30 12.7909 30 15V15C30 17.2091 28.2091 19 26 19V19C23.7909 19 22 17.2091 22 15V15Z" fill="#E15554"/>
</svg>
