<svg width="40" height="40" viewBox="0 0 40 40" fill="none" xmlns="http://www.w3.org/2000/svg">
<path d="M12 15.5584C12 15.3424 12.2554 15.228 12.4165 15.3719L19.8335 21.9942C19.9283 22.0789 20.0717 22.0789 20.1665 21.9942L27.5835 15.3719C27.7446 15.228 28 15.3424 28 15.5584V16.3166C28 16.3879 27.9696 16.4557 27.9165 16.5031L24.4177 19.627C24.1951 19.8258 24.1951 20.1742 24.4177 20.373L27.9165 23.4969C27.9696 23.5443 28 23.6121 28 23.6834V24.4416C28 24.6576 27.7446 24.772 27.5835 24.6281L23.533 21.0116C23.3433 20.8422 23.0567 20.8422 22.867 21.0116L20.1665 23.4228C20.0717 23.5075 19.9283 23.5075 19.8335 23.4228L17.133 21.0116C16.9433 20.8422 16.6567 20.8422 16.467 21.0116L12.4165 24.6281C12.2554 24.772 12 24.6576 12 24.4416V23.6834C12 23.6121 12.0304 23.5443 12.0835 23.4969L15.5823 20.373C15.8049 20.1742 15.8049 19.8258 15.5823 19.627L12.0835 16.5031C12.0304 16.4557 12 16.3879 12 16.3166V15.5584Z" fill="#2B7E88"/>
<path fill-rule="evenodd" clip-rule="evenodd" d="M40 20C40 31.0457 31.0457 40 20 40C8.9543 40 0 31.0457 0 20C0 8.9543 8.9543 0 20 0C31.0457 0 40 8.9543 40 20ZM9 14C9 12.8954 9.89543 12 11 12H29C30.1046 12 31 12.8954 31 14V26C31 27.1046 30.1046 28 29 28H11C9.89543 28 9 27.1046 9 26V14Z" fill="#2B7E88"/>
</svg>
