<svg width="20" height="22" viewBox="0 0 20 22" fill="none" xmlns="http://www.w3.org/2000/svg">
<path d="M7.45536 11.0716H6.11607C5.89509 11.0716 5.71429 10.8908 5.71429 10.6698V9.3305C5.71429 9.10951 5.89509 8.92871 6.11607 8.92871H7.45536C7.67634 8.92871 7.85714 9.10951 7.85714 9.3305V10.6698C7.85714 10.8908 7.67634 11.0716 7.45536 11.0716ZM11.0714 10.6698V9.3305C11.0714 9.10951 10.8906 8.92871 10.6696 8.92871H9.33036C9.10938 8.92871 8.92857 9.10951 8.92857 9.3305V10.6698C8.92857 10.8908 9.10938 11.0716 9.33036 11.0716H10.6696C10.8906 11.0716 11.0714 10.8908 11.0714 10.6698ZM14.2857 10.6698V9.3305C14.2857 9.10951 14.1049 8.92871 13.8839 8.92871H12.5446C12.3237 8.92871 12.1429 9.10951 12.1429 9.3305V10.6698C12.1429 10.8908 12.3237 11.0716 12.5446 11.0716H13.8839C14.1049 11.0716 14.2857 10.8908 14.2857 10.6698ZM17.5 5.17871V16.9644C17.5 17.8517 16.7801 18.5716 15.8929 18.5716H4.10714C3.21987 18.5716 2.5 17.8517 2.5 16.9644V5.17871C2.5 4.29143 3.21987 3.57157 4.10714 3.57157H5.71429V1.8305C5.71429 1.60951 5.89509 1.42871 6.11607 1.42871H7.45536C7.67634 1.42871 7.85714 1.60951 7.85714 1.8305V3.57157H12.1429V1.8305C12.1429 1.60951 12.3237 1.42871 12.5446 1.42871H13.8839C14.1049 1.42871 14.2857 1.60951 14.2857 1.8305V3.57157H15.8929C16.7801 3.57157 17.5 4.29143 17.5 5.17871ZM15.8929 16.7635V6.78585H4.10714V16.7635C4.10714 16.874 4.19754 16.9644 4.30804 16.9644H15.692C15.8025 16.9644 15.8929 16.874 15.8929 16.7635Z" fill="#2B7E88"/>
<path d="M20 18H0V22H20V18Z" fill="#125667" mask="url(#path-1-outside-1_3768_630)"/>
</svg>
