<svg width="20" height="20" viewBox="0 0 20 20" fill="none" xmlns="http://www.w3.org/2000/svg">
<path d="M8.66666 6.66656H11.3333V8.66659H13.3333V11.3333H11.3333V13.3332H8.66666V11.3333H6.66667V8.66659H8.66666V6.66656Z" fill="#189FB5"/>
<path fill-rule="evenodd" clip-rule="evenodd" d="M0 3.33333C0 1.49238 1.49238 0 3.33333 0H16.6667C18.5076 0 20 1.49238 20 3.33333V16.6667C20 18.5076 18.5076 20 16.6667 20H3.33333C1.49238 20 0 18.5076 0 16.6667V3.33333ZM4.66667 6C4.66667 5.26362 5.26362 4.66667 6 4.66667H14C14.7364 4.66667 15.3333 5.26362 15.3333 6V14C15.3333 14.7364 14.7364 15.3333 14 15.3333H6C5.26362 15.3333 4.66667 14.7364 4.66667 14V6Z" fill="#189FB5"/>
</svg>
