<svg width="20" height="21" viewBox="0 0 20 21" fill="none" xmlns="http://www.w3.org/2000/svg">
<path d="M9.5 3.84277C9.5 3.56663 9.72386 3.34277 10 3.34277C10.2761 3.34277 10.5 3.56663 10.5 3.84277V4.84277C10.5 5.11892 10.2761 5.34277 10 5.34277C9.72386 5.34277 9.5 5.11892 9.5 4.84277V3.84277Z" fill="white"/>
<path d="M16.5 9.84277C16.7761 9.84277 17 10.0666 17 10.3428C17 10.6189 16.7761 10.8428 16.5 10.8428H15.5C15.2239 10.8428 15 10.6189 15 10.3428C15 10.0666 15.2239 9.84277 15.5 9.84277H16.5Z" fill="white"/>
<path d="M14.9497 14.5849C15.1449 14.7802 15.1449 15.0968 14.9497 15.292C14.7544 15.4873 14.4378 15.4873 14.2426 15.292L13.5355 14.5849C13.3402 14.3897 13.3402 14.0731 13.5355 13.8778C13.7307 13.6826 14.0473 13.6826 14.2426 13.8778L14.9497 14.5849Z" fill="white"/>
<path d="M5.05009 14.5849C4.85482 14.7802 4.85482 15.0968 5.05009 15.292C5.24535 15.4873 5.56193 15.4873 5.75719 15.292L6.4643 14.5849C6.65956 14.3897 6.65956 14.0731 6.4643 13.8778C6.26904 13.6826 5.95246 13.6826 5.75719 13.8778L5.05009 14.5849Z" fill="white"/>
<path d="M9.5 15.8428C9.5 15.5666 9.72386 15.3428 10 15.3428C10.2761 15.3428 10.5 15.5666 10.5 15.8428V16.8428C10.5 17.1189 10.2761 17.3428 10 17.3428C9.72386 17.3428 9.5 17.1189 9.5 16.8428V15.8428Z" fill="white"/>
<path d="M4.5 9.84277C4.77614 9.84277 5 10.0666 5 10.3428C5 10.6189 4.77614 10.8428 4.5 10.8428H3.5C3.22386 10.8428 3 10.6189 3 10.3428C3 10.0666 3.22386 9.84277 3.5 9.84277H4.5Z" fill="white"/>
<path d="M6.46432 6.10055C6.65958 6.29581 6.65958 6.61239 6.46432 6.80765C6.26906 7.00292 5.95247 7.00292 5.75721 6.80765L5.0501 6.10055C4.85484 5.90529 4.85484 5.5887 5.0501 5.39344C5.24537 5.19818 5.56195 5.19818 5.75721 5.39344L6.46432 6.10055Z" fill="white"/>
<path d="M13.5354 6.10055C13.3402 6.29581 13.3402 6.61239 13.5354 6.80765C13.7307 7.00292 14.0473 7.00292 14.2425 6.80765L14.9497 6.10055C15.1449 5.90529 15.1449 5.5887 14.9497 5.39344C14.7544 5.19818 14.4378 5.19818 14.2425 5.39344L13.5354 6.10055Z" fill="white"/>
<path d="M9.5 10.8428L9.50011 7.34277C9.50011 7.06663 9.72397 6.84277 10.0001 6.84277C10.2763 6.84277 10.5001 7.06663 10.5001 7.34277V9.34277C10.5001 9.59277 10.5001 9.71777 10.5626 9.78027C10.6251 9.84277 10.7501 9.84277 11.0001 9.84277H12.5001C12.7763 9.84277 13.0001 10.0666 13.0001 10.3428C13.0001 10.6189 12.7763 10.8428 12.5001 10.8428H9.5Z" fill="white"/>
<path fill-rule="evenodd" clip-rule="evenodd" d="M0 2.34277C0 1.2382 0.895447 0.342773 2 0.342773H18C19.1046 0.342773 20 1.2382 20 2.34277V18.3428C20 19.4473 19.1046 20.3428 18 20.3428H2C0.895447 20.3428 0 19.4473 0 18.3428V2.34277ZM2 10.3428C2 5.9245 5.58173 2.34277 10 2.34277C14.4183 2.34277 18 5.9245 18 10.3428C18 14.761 14.4183 18.3428 10 18.3428C5.58173 18.3428 2 14.761 2 10.3428Z" fill="white"/>
</svg>
