<svg width="164" height="146" viewBox="0 0 164 146" fill="none" xmlns="http://www.w3.org/2000/svg">
<g clip-path="url(#clip0_3516_30380)">
<path d="M122.311 91.3932C122.187 91.1783 122.111 90.9387 122.089 90.6913C122.067 90.444 122.1 90.1948 122.185 89.9614C122.27 89.728 122.405 89.516 122.58 89.3405C122.756 89.1649 122.968 89.0299 123.201 88.9451L123.114 82.9092L125.757 84.598L125.435 90.0709C125.551 90.4725 125.517 90.9028 125.337 91.2804C125.157 91.6579 124.845 91.9565 124.46 92.1195C124.075 92.2824 123.644 92.2985 123.248 92.1647C122.852 92.0308 122.519 91.7563 122.311 91.3932Z" fill="#EFAD88"/>
<path d="M119.125 58.623C118.341 58.7614 117.63 59.1672 117.112 59.7713C116.594 60.3753 116.301 61.1402 116.284 61.9357C116.245 63.7023 116.835 64.3609 117.668 64.5989C119.208 65.0389 121.661 73.9376 121.661 73.9376C121.661 73.9376 121.921 82.2372 122.341 81.8274C122.761 81.4176 122.285 82.3739 122.413 82.6658C122.541 82.9576 121.808 83.3946 122.504 83.7261C123.201 84.0576 122.761 86.6976 122.761 86.6976L125.841 86.4776C125.841 86.4776 125.329 84.3269 126.025 84.1923C126.721 84.0576 126.404 83.4455 126.123 82.9815C125.841 82.5176 126.621 81.8563 126.231 81.6369C125.841 81.4176 126.941 72.8376 126.941 72.8376L122.64 60.1832C122.276 59.6028 121.747 59.1442 121.121 58.8663C120.494 58.5883 119.8 58.5036 119.125 58.623Z" fill="#009FB5"/>
<path d="M109.781 59.1207L111.997 55.2373H114.99L117.235 59.3407L109.781 59.1207Z" fill="#009FB5"/>
<path d="M103.822 24.1992C102.051 18.2692 97.0498 14.398 91.0063 13.5487C90.9398 13.5394 90.8767 13.5517 90.8105 13.5475C90.7249 13.5213 90.6376 13.5012 90.5492 13.4873C82.2381 12.4132 73.1653 14.3369 65.9443 18.855C59.0226 23.1858 51.0694 25.6295 42.9047 25.5752C42.6511 25.5735 42.3965 25.579 42.141 25.5917C35.8576 25.9052 30.3124 30.4791 28.6137 36.495C28.3908 37.2843 28.7793 37.9896 29.404 38.4369C30.5016 39.2231 31.2514 39.7741 32.6019 40.0602C35.0116 40.5707 37.4296 41.0401 39.8559 41.4685V31.8041C39.8569 30.8892 40.2208 30.012 40.8678 29.3651C41.5148 28.7181 42.3919 28.3542 43.3068 28.3531H90.71C91.625 28.3542 92.5021 28.7181 93.1491 29.3651C93.796 30.012 94.16 30.8892 94.161 31.8041V43.8397C94.8112 43.6364 95.4459 43.3866 96.0602 43.0922C98.3469 41.9627 100.301 40.2578 101.729 38.145C104.474 34.163 105.198 28.8112 103.822 24.1992Z" fill="#F2F2F2"/>
<path d="M83.8628 80.7571H41.9578C40.9908 80.7559 40.0637 80.3713 39.38 79.6875C38.6962 79.0038 38.3116 78.0767 38.3104 77.1097V60.8494C33.2064 59.2869 27.8308 58.8157 22.5328 59.4664C22.4445 59.4804 22.3572 59.5005 22.2716 59.5266C22.2054 59.5309 22.1423 59.5185 22.0758 59.5279C16.0323 60.3771 11.0309 64.2484 9.26054 70.1784C7.88358 74.7903 8.60843 80.1421 11.3528 84.1242C12.7815 86.237 14.7352 87.9418 17.0219 89.0713C20.1651 90.5854 23.4735 90.6992 26.9041 90.8061C37.2045 91.1276 47.5148 90.7379 57.7616 89.6398C62.8043 89.0989 67.826 88.3921 72.8268 87.5193C75.3864 87.0714 77.9375 86.5781 80.4802 86.0393C81.8307 85.7532 82.5805 85.2022 83.6781 84.4161C84.3028 83.9688 84.6913 83.2635 84.4683 82.4742C84.3027 81.8897 84.1005 81.3162 83.8628 80.7571Z" fill="#F2F2F2"/>
<path d="M87.5715 75.9336H46.4456C45.6519 75.9327 44.8909 75.6169 44.3296 75.0556C43.7683 74.4944 43.4526 73.7334 43.4517 72.9396V34.7205C43.4526 33.9268 43.7683 33.1658 44.3296 32.6045C44.8909 32.0432 45.6519 31.7275 46.4456 31.7266H87.5715C88.3652 31.7275 89.1262 32.0432 89.6875 32.6045C90.2488 33.1658 90.5645 33.9268 90.5654 34.7205V72.9396C90.5645 73.7334 90.2488 74.4944 89.6875 75.0556C89.1262 75.6169 88.3652 75.9327 87.5715 75.9336Z" fill="#E6E6E6"/>
<path d="M79.0251 73.4799H48.575C47.7813 73.479 47.0203 73.1632 46.459 72.602C45.8977 72.0407 45.582 71.2797 45.5811 70.4859V36.3075C45.582 35.5137 45.8977 34.7527 46.459 34.1914C47.0203 33.6301 47.7813 33.3144 48.575 33.3135H85.6614C86.4552 33.3144 87.2162 33.6301 87.7775 34.1914C88.3387 34.7527 88.6545 35.5137 88.6554 36.3075V63.8496C88.6525 66.4028 87.637 68.8507 85.8316 70.6561C84.0262 72.4615 81.5783 73.477 79.0251 73.4799Z" fill="white"/>
<path d="M124.841 135.545L122.85 135.545L121.903 127.865L124.842 127.865L124.841 135.545Z" fill="#EFAD88"/>
<path d="M124.911 137.622L118.789 137.621V137.544C118.789 136.912 119.04 136.306 119.487 135.859C119.933 135.412 120.54 135.161 121.172 135.161L122.29 134.312L124.377 135.161L124.911 135.161L124.911 137.622Z" fill="#2F2E41"/>
<path d="M109.881 135.545L107.89 135.545L106.943 127.865L109.882 127.865L109.881 135.545Z" fill="#EFAD88"/>
<path d="M109.951 137.622L103.828 137.621V137.544C103.828 136.912 104.079 136.306 104.526 135.859C104.973 135.412 105.579 135.161 106.211 135.161L107.33 134.312L109.416 135.161L109.951 135.161L109.951 137.622Z" fill="#2F2E41"/>
<path d="M125.476 129.189C126.202 128.714 125.781 128.745 125.781 128.745C125.781 128.745 124.157 115.576 122.921 111.585L121.491 92.1511C121.491 92.1511 121.4 92.5387 121.491 91.5965C121.582 90.6543 122.242 91.3143 121.582 90.6543C120.922 89.9943 120.482 89.658 120.922 89.1661C121.362 88.6743 122.576 87.6792 121.859 87.0768C121.142 86.4743 119.731 82.5451 119.731 82.5451L105.981 82.6551L106.531 82.5451C106.531 82.5451 104.815 81.9083 105.601 82.7376C106.387 83.5669 105.161 85.5976 104.721 87.5776C104.357 89.2175 103.275 89.6527 104.721 89.9976C106.167 90.3425 104.858 91.32 104.858 91.32C104.858 91.32 102.681 101.685 104.331 108.505C104.331 108.505 105.47 125.373 106.046 126.824C106.622 128.274 106.842 127.394 106.622 128.274C106.402 129.154 105.962 127.614 106.402 129.154C106.642 129.959 106.832 130.777 106.971 131.605L109.955 131.385C109.955 131.385 110.648 129.201 109.955 128.628C109.262 128.054 109.74 129.728 110.491 128.451C111.242 127.174 110.362 127.614 110.142 125.854C109.922 124.094 111.94 115.895 110.491 110.865L113.169 96.749L117.421 111.365C117.421 111.365 119.676 129.216 120.409 129.845C121.142 130.474 120.846 128.947 121.142 130.474C121.441 132.018 122.12 131.608 122.101 131.798C121.896 133.816 125.476 131.825 125.476 131.825C125.441 131.312 125.441 130.798 125.476 130.285C125.542 129.814 124.749 129.664 125.476 129.189Z" fill="#2F2E41"/>
<path d="M107.361 87.1378C106.481 87.1378 104.061 85.946 104.501 85.4419C104.941 84.9378 104.941 83.2644 104.941 82.7811C104.941 82.2978 106.921 64.4778 106.921 64.4778L106.771 60.1146C106.762 59.8531 106.805 59.5924 106.899 59.3482C106.993 59.1039 107.135 58.881 107.317 58.6928C107.499 58.5046 107.717 58.3549 107.958 58.2527C108.199 58.1505 108.458 58.0978 108.719 58.0978L110.661 57.4378L116.161 57.2178L118.904 58.0978C119.176 58.0978 119.444 58.1676 119.681 58.3006C119.918 58.4336 120.118 58.6253 120.26 58.8574C120.402 59.0894 120.482 59.3541 120.493 59.626C120.503 59.8979 120.444 60.168 120.32 60.4104C121.775 62.7863 122.506 65.5354 122.422 68.3204C122.359 70.404 121.303 72.9487 121.048 75.3027C121.026 75.5094 121.01 75.7145 121.001 75.9178C120.999 75.9744 120.548 76.2569 120.995 76.0873C121.441 75.9178 120.756 76.5163 120.988 76.877C121.221 77.2378 121.672 77.0167 121.007 77.4572C120.341 77.8978 121.806 82.153 121.661 82.2978C121.221 82.7378 120.341 82.9578 121.001 83.6178C121.661 84.2778 122.321 83.8378 121.441 84.7178C120.561 85.5978 117.925 87.1378 117.925 87.1378L107.361 87.1378Z" fill="#189FB5"/>
<path d="M113.243 54.6626C115.858 54.6626 117.978 52.5426 117.978 49.9275C117.978 47.3124 115.858 45.1924 113.243 45.1924C110.628 45.1924 108.508 47.3124 108.508 49.9275C108.508 52.5426 110.628 54.6626 113.243 54.6626Z" fill="#EFAD88"/>
<path d="M84.4027 64.6196C84.6299 64.5192 84.8763 64.4699 85.1245 64.475C85.3728 64.4801 85.617 64.5396 85.8398 64.6493C86.0626 64.7589 86.2586 64.9161 86.4141 65.1098C86.5696 65.3034 86.6807 65.5288 86.7397 65.77L92.7494 66.3385L90.7835 68.783L85.378 67.8684C84.9661 67.9406 84.5421 67.8592 84.1863 67.6396C83.8305 67.4201 83.5676 67.0776 83.4474 66.6772C83.3271 66.2767 83.358 65.8461 83.5341 65.4669C83.7102 65.0876 84.0192 64.7862 84.4027 64.6196Z" fill="#EFAD88"/>
<path d="M112.896 61.0939C112.758 60.3103 112.352 59.5989 111.748 59.0809C111.144 58.5628 110.379 58.2702 109.583 58.2527C107.817 58.2145 107.158 58.804 106.92 59.637C106.48 61.177 99.3969 66.5904 99.3969 66.5904L93.3137 65.932C92.9479 65.8132 93.1213 65.4801 91.746 65.7624C91.0685 65.3187 90.6305 65.3939 90.2533 65.6008L88.0002 65.357L88.2202 68.877C88.2202 68.877 90.6322 68.3032 91.0802 69.317C91.5283 70.3308 91.4257 70.4764 92.4002 69.757C93.3747 69.0376 93.2802 69.757 93.2802 69.757L100.32 71.517L111.336 64.6089C111.916 64.2449 112.375 63.7159 112.653 63.0897C112.931 62.4635 113.016 61.7685 112.896 61.0939Z" fill="#009FB5"/>
<path d="M115.081 54.1547L115.391 54.2537C114.421 54.3351 112.692 54.8763 112.861 54.5771C113.031 54.2779 112.39 53.1493 112.703 53.0063C113.028 52.8924 113.317 52.696 113.543 52.4365C113.741 52.1593 113.737 51.7017 113.44 51.5323C113.152 51.3651 112.795 51.5455 112.509 51.7149C112.221 51.8821 111.689 49.4225 111.825 48.6547C111.022 48.2147 110.05 49.0573 109.148 48.8923C108.595 48.7911 108.197 48.3379 107.946 47.8231C108.356 47.4345 108.661 46.9487 108.833 46.4107C108.45 46.6036 108.041 46.7393 107.619 46.8133C107.543 46.4139 107.553 46.0028 107.649 45.6077C107.723 45.2923 107.873 45 108.087 44.7567C108.301 44.5134 108.571 44.3266 108.875 44.2129C109.182 44.1109 109.516 44.1168 109.82 44.2295C110.124 44.3423 110.38 44.5553 110.547 44.8333C110.565 44.5339 110.489 44.2362 110.327 43.9832C110.166 43.7302 109.929 43.5348 109.649 43.4253C109.853 43.3196 110.079 43.2623 110.308 43.2581C110.538 43.2538 110.765 43.3027 110.973 43.4009C111.181 43.499 111.363 43.6439 111.505 43.824C111.648 44.0042 111.747 44.2148 111.794 44.4395C112.788 43.9416 113.928 43.8197 115.004 44.0963C116.069 44.3757 117.481 45.5571 117.481 45.5571C119.884 46.0873 119.769 55.2217 115.081 54.1547Z" fill="#2F2E41"/>
<path d="M140.167 135.734C140.222 135.737 140.276 135.722 140.322 135.693C140.369 135.664 140.405 135.621 140.426 135.57C140.447 135.519 140.453 135.463 140.441 135.41C140.429 135.356 140.401 135.308 140.361 135.27L140.343 135.197L140.35 135.18C140.405 135.049 140.498 134.938 140.616 134.86C140.734 134.782 140.873 134.741 141.014 134.741C141.156 134.742 141.294 134.784 141.412 134.863C141.53 134.942 141.621 135.054 141.676 135.185C141.892 135.707 142.168 136.23 142.236 136.782C142.266 137.026 142.254 137.274 142.199 137.513C142.708 136.403 142.973 135.195 142.974 133.973C142.975 133.667 142.957 133.36 142.923 133.055C142.895 132.806 142.856 132.558 142.806 132.311C142.533 130.975 141.947 129.723 141.096 128.657C140.684 128.432 140.351 128.087 140.142 127.667C140.066 127.516 140.012 127.355 139.983 127.188C140.073 126.95 140.12 126.698 140.123 126.444C140.188 126.345 140.303 126.296 140.374 126.201C140.726 125.724 141.21 125.807 141.463 126.455C142.004 126.728 142.009 127.18 141.677 127.615C141.466 127.892 141.437 128.266 141.252 128.562C141.271 128.587 141.291 128.61 141.31 128.635C141.658 129.082 141.962 129.563 142.216 130.07C142.154 129.502 142.228 128.928 142.431 128.394C142.638 127.897 143.024 127.478 143.364 127.048C143.454 126.933 143.576 126.846 143.715 126.8C143.854 126.754 144.004 126.75 144.145 126.789C144.286 126.828 144.413 126.908 144.508 127.019C144.604 127.13 144.665 127.266 144.683 127.412L144.685 127.431C144.635 127.459 144.585 127.489 144.537 127.521C144.476 127.562 144.429 127.62 144.402 127.688C144.374 127.756 144.368 127.83 144.384 127.902C144.4 127.973 144.437 128.038 144.49 128.088C144.544 128.138 144.611 128.171 144.683 128.182L144.69 128.183C144.672 128.365 144.641 128.546 144.595 128.723C145.032 130.411 144.089 131.026 142.744 131.054C142.714 131.069 142.685 131.084 142.655 131.099C142.911 131.823 143.071 132.577 143.132 133.343C143.167 133.794 143.165 134.248 143.126 134.699L143.128 134.683C143.226 134.181 143.493 133.729 143.886 133.401C144.469 132.922 145.293 132.746 145.922 132.361C145.989 132.318 146.067 132.295 146.147 132.295C146.226 132.294 146.304 132.317 146.371 132.36C146.438 132.402 146.491 132.463 146.525 132.535C146.559 132.607 146.571 132.687 146.561 132.766L146.558 132.783C146.464 132.821 146.373 132.865 146.285 132.915C146.234 132.943 146.185 132.973 146.136 133.005C146.075 133.046 146.028 133.104 146.001 133.172C145.974 133.24 145.968 133.314 145.983 133.386C145.999 133.457 146.036 133.522 146.09 133.572C146.143 133.622 146.21 133.655 146.282 133.666L146.29 133.667L146.305 133.669C146.145 134.052 145.92 134.404 145.64 134.71C145.367 136.184 144.195 136.324 142.941 135.895H142.94C142.803 136.493 142.603 137.075 142.345 137.631H140.22C140.213 137.608 140.206 137.583 140.199 137.56C140.396 137.572 140.593 137.56 140.787 137.525C140.629 137.331 140.472 137.136 140.314 136.943C140.31 136.939 140.307 136.935 140.304 136.931C140.224 136.832 140.143 136.734 140.063 136.635C140.059 136.332 140.094 136.029 140.167 135.734Z" fill="#F2F2F2"/>
<path d="M69.4175 137.933L155.157 138.001C155.227 138.001 155.293 137.973 155.342 137.924C155.391 137.875 155.419 137.808 155.419 137.739C155.419 137.669 155.391 137.603 155.342 137.554C155.293 137.504 155.227 137.477 155.157 137.477L69.4175 137.409C69.348 137.409 69.2814 137.437 69.2322 137.486C69.1831 137.535 69.1555 137.602 69.1555 137.671C69.1555 137.741 69.1831 137.807 69.2322 137.856C69.2814 137.905 69.348 137.933 69.4175 137.933Z" fill="#CACACA"/>
<path d="M54.501 49.6132C54.501 42.6655 60.1332 37.0332 67.081 37.0332V37.0332C74.0287 37.0332 79.661 42.6655 79.661 49.6132V66.6332C79.661 68.268 78.3357 69.5932 76.701 69.5932H57.461C55.8262 69.5932 54.501 68.268 54.501 66.6332V49.6132Z" fill="#009FB5"/>
<ellipse cx="67.0792" cy="54.0526" rx="9.62001" ry="9.62" fill="white"/>
<path fill-rule="evenodd" clip-rule="evenodd" d="M62.8559 49.83C63.1449 49.541 63.6134 49.541 63.9024 49.83L67.0792 53.0068L69.5159 50.57C69.8049 50.281 70.2734 50.281 70.5624 50.57C70.8514 50.859 70.8514 51.3276 70.5624 51.6165L67.6024 54.5765C67.3134 54.8655 66.8449 54.8655 66.5559 54.5765L62.8559 50.8765C62.5669 50.5876 62.5669 50.119 62.8559 49.83Z" fill="#009FB5"/>
<ellipse cx="67.0792" cy="54.0531" rx="1.85" ry="1.85" fill="white"/>
<ellipse cx="67.0794" cy="54.0525" rx="0.74" ry="0.74" fill="#009FB5"/>
<path fill-rule="evenodd" clip-rule="evenodd" d="M74.5459 44.8208C70.3121 40.9719 63.8463 40.9719 59.6125 44.8208V44.8208C59.5156 44.9089 59.3655 44.9018 59.2774 44.8048L58.601 44.0608C58.5129 43.9638 58.52 43.8138 58.617 43.7257V43.7257C63.4152 39.3636 70.7431 39.3636 75.5414 43.7257V43.7257C75.6384 43.8138 75.6455 43.9638 75.5574 44.0608L74.881 44.8048C74.7929 44.9018 74.6428 44.9089 74.5459 44.8208V44.8208Z" fill="white"/>
<path fill-rule="evenodd" clip-rule="evenodd" d="M57.4592 66.6333C57.4592 65.8159 58.1218 65.1533 58.9392 65.1533H60.4192C61.2366 65.1533 61.8992 65.8159 61.8992 66.6333C61.8992 67.4507 61.2366 68.1133 60.4192 68.1133H58.9392C58.1218 68.1133 57.4592 67.4507 57.4592 66.6333ZM72.2593 66.6333C72.2593 65.8159 72.9219 65.1533 73.7393 65.1533H75.2193C76.0367 65.1533 76.6993 65.8159 76.6993 66.6333C76.6993 67.4507 76.0367 68.1133 75.2193 68.1133H73.7393C72.9219 68.1133 72.2593 67.4507 72.2593 66.6333ZM66.3394 65.1533C65.522 65.1533 64.8594 65.8159 64.8594 66.6333C64.8594 67.4507 65.522 68.1133 66.3394 68.1133H67.8194C68.6368 68.1133 69.2994 67.4507 69.2994 66.6333C69.2994 65.8159 68.6368 65.1533 67.8194 65.1533H66.3394Z" fill="white"/>
<path fill-rule="evenodd" clip-rule="evenodd" d="M67.8192 44.4326H66.3392V45.1726C66.3392 45.5813 66.6705 45.9126 67.0792 45.9126C67.4879 45.9126 67.8192 45.5813 67.8192 45.1726V44.4326ZM75.9592 54.7926H76.6992V53.3126H75.9592C75.5505 53.3126 75.2192 53.6439 75.2192 54.0526C75.2192 54.4613 75.5505 54.7926 75.9592 54.7926ZM66.3392 63.6726V62.9326C66.3392 62.5239 66.6705 62.1926 67.0792 62.1926C67.4879 62.1926 67.8192 62.5239 67.8192 62.9326V63.6726H66.3392ZM57.4592 53.3126V54.7926H58.1992C58.6079 54.7926 58.9392 54.4613 58.9392 54.0526C58.9392 53.6439 58.6079 53.3126 58.1992 53.3126H57.4592Z" fill="#009FB5"/>
</g>
<defs>
<clipPath id="clip0_3516_30380">
<rect width="146.838" height="129.687" fill="white" transform="translate(8.58105 8.31348)"/>
</clipPath>
</defs>
</svg>
