<svg width="150" height="100" viewBox="0 0 150 100" fill="none" xmlns="http://www.w3.org/2000/svg">
<g clip-path="url(#clip0_3539_133)">
<path d="M121.724 87.5108C120.545 89.9589 118.372 91.78 116.094 93.2604C113.605 94.8771 110.923 96.1755 108.11 97.1253C107.725 97.2582 107.335 97.3817 106.944 97.4996H91.1271C91.0167 97.3799 90.9119 97.2545 90.8127 97.1253C89.7534 95.7684 89.1807 94.0297 89.3884 92.3265C89.6561 90.1386 91.318 88.1285 93.4704 87.6643C95.6247 87.1983 98.0801 88.4841 98.7352 90.5896C99.0946 86.532 99.5101 82.3059 101.666 78.8509C103.62 75.7234 107.002 73.4849 110.667 73.0844C112.822 72.8599 114.997 73.2581 116.933 74.2317C117.111 74.3216 117.287 74.4151 117.459 74.5125C118.621 75.1713 119.646 76.046 120.48 77.0897C122.765 79.9832 123.325 84.1887 121.724 87.5108Z" fill="#3BB273"/>
<path d="M117.343 74.7689C109.987 80.7593 104.175 88.4257 100.393 97.1253C100.339 97.2489 100.285 97.3743 100.232 97.4997H99.4875C99.54 97.3743 99.5924 97.2489 99.6467 97.1253C100.367 95.4409 101.163 93.7864 102.037 92.1749C103.897 88.7482 106.085 85.51 108.571 82.5062C111.055 79.4986 113.829 76.7433 116.854 74.2804C116.878 74.2609 116.905 74.2445 116.933 74.2318C116.985 74.2089 117.043 74.1982 117.1 74.2005C117.157 74.2028 117.213 74.218 117.264 74.245C117.314 74.272 117.358 74.3101 117.392 74.3564C117.426 74.4027 117.449 74.4561 117.459 74.5125C117.464 74.5617 117.456 74.6114 117.436 74.6565C117.415 74.7016 117.383 74.7405 117.343 74.7689Z" fill="#24764A"/>
<path d="M58.6591 57.4477C58.8438 57.265 58.9863 57.044 59.0764 56.8002C59.1665 56.5565 59.2021 56.296 59.1806 56.037C59.1591 55.778 59.0812 55.5269 58.9521 55.3013C58.8231 55.0757 58.6462 54.8812 58.4339 54.7314L57.5362 48.8135L53.8489 49.974L55.8689 55.2538C55.6409 55.6271 55.5578 56.0712 55.6353 56.5018C55.7128 56.9324 55.9456 57.3196 56.2895 57.59C56.6334 57.8605 57.0646 57.9954 57.5013 57.9691C57.9381 57.9429 58.35 57.7574 58.6591 57.4477Z" fill="#EFAD88"/>
<path d="M54.8605 54.6636L52.586 44.041C52.3644 43.0234 52.4077 41.966 52.7119 40.97C53.016 39.974 53.5708 39.0728 54.3231 38.3526C57.2346 35.547 60.9765 32.0106 62.269 31.0959C63.4822 30.2312 64.9501 29.7979 66.4383 29.8652L66.4695 29.8686L68.4261 31.7177L64.1639 38.7341L57.6934 42.7883L58.4135 53.1999L54.8605 54.6636Z" fill="#009FB5"/>
<path d="M62.8264 40.2285H53.2811C52.8677 40.2285 52.5325 40.5637 52.5325 40.9772C52.5325 41.3906 52.8677 41.7258 53.2811 41.7258H62.8264C63.2398 41.7258 63.575 41.3906 63.575 40.9772C63.575 40.5637 63.2398 40.2285 62.8264 40.2285Z" fill="#CCCCCC"/>
<path d="M62.8264 56.5117H53.2811C52.8677 56.5117 52.5325 56.8469 52.5325 57.2604C52.5325 57.6738 52.8677 58.009 53.2811 58.009H62.8264C63.2398 58.009 63.575 57.6738 63.575 57.2604C63.575 56.8469 63.2398 56.5117 62.8264 56.5117Z" fill="#CCCCCC"/>
<path d="M58.1473 97.3125C58.0538 97.3125 57.9636 97.2775 57.8946 97.2143C57.8256 97.1511 57.7827 97.0644 57.7745 96.9713L53.0026 41.01C52.9938 40.9111 53.0247 40.8127 53.0884 40.7366C53.1521 40.6605 53.2435 40.6128 53.3423 40.604C53.4412 40.5952 53.5396 40.6261 53.6157 40.6898C53.6918 40.7536 53.7395 40.8449 53.7483 40.9438L58.1419 92.6474L62.4107 40.9447C62.4149 40.8957 62.4287 40.8481 62.4514 40.8044C62.474 40.7608 62.505 40.7221 62.5427 40.6904C62.5803 40.6588 62.6238 40.6348 62.6706 40.62C62.7175 40.6052 62.7668 40.5997 62.8158 40.6039C62.8648 40.6081 62.9124 40.622 62.9561 40.6446C62.9997 40.6673 63.0385 40.6983 63.0701 40.7359C63.1017 40.7735 63.1257 40.817 63.1405 40.8639C63.1554 40.9107 63.1608 40.9601 63.1566 41.009L58.5203 96.9703C58.5122 97.0636 58.4695 97.1505 58.4005 97.2138C58.3316 97.2772 58.2414 97.3124 58.1478 97.3125H58.1473Z" fill="#CCCCCC"/>
<path d="M68.8595 27.6255C71.5717 27.6255 73.7704 25.4268 73.7704 22.7146C73.7704 20.0024 71.5717 17.8037 68.8595 17.8037C66.1473 17.8037 63.9486 20.0024 63.9486 22.7146C63.9486 25.4268 66.1473 27.6255 68.8595 27.6255Z" fill="#EFAD88"/>
<path d="M54.2237 95.068L51.8883 94.3237L53.648 84.9609L57.0951 86.0596L54.2237 95.068Z" fill="#FFB8B8"/>
<path d="M54.0937 97.1404L46.5752 94.744L46.6373 94.5487C46.8764 93.8016 47.4021 93.1798 48.0991 92.8197C48.796 92.4597 49.6073 92.3908 50.355 92.6281L55.0544 94.126L54.0937 97.1404Z" fill="#2F2E41"/>
<path d="M71.216 95.0195H68.7647L67.5981 85.5645H71.216V95.0195Z" fill="#EFAD88"/>
<path d="M64.1307 97.2025H71.6477V94.4131H66.9024C66.1676 94.4139 65.4631 94.7062 64.9435 95.2258C64.4239 95.7454 64.1316 96.4499 64.1307 97.1848V97.2025Z" fill="#2F2E41"/>
<path d="M71.1442 91.9517L70.3168 91.8283C67.8076 91.4544 67.6573 91.432 67.259 91.2571C67.0556 91.1677 67.0412 89.8172 67.1634 82.2255C67.253 76.6528 67.3646 69.7175 67.1479 65.9943C67.139 65.8474 67.0809 65.7078 66.9829 65.598C66.8849 65.4882 66.7528 65.4146 66.6078 65.389C66.4629 65.3635 66.3135 65.3875 66.1839 65.4573C66.0543 65.527 65.952 65.6383 65.8934 65.7733C64.0263 70.085 60.8939 79.7338 58.8211 86.1186C58.1001 88.3396 57.5306 90.0937 57.1703 91.1452C57.1007 91.3441 56.9595 91.5099 56.7742 91.6102C56.5889 91.7105 56.3729 91.7381 56.1683 91.6876C54.4625 91.2612 54.5766 91.0799 52.1471 90.4515C51.9369 90.3979 51.7555 90.2651 51.6411 90.0808C51.5266 89.8966 51.4878 89.6752 51.5328 89.463C51.9723 87.3907 60.014 53.7901 60.6295 50.596C60.6503 50.4867 60.6926 50.3825 60.7539 50.2897C60.8152 50.1968 60.8943 50.1169 60.9866 50.0548C61.0789 49.9926 61.1827 49.9494 61.2918 49.9275C61.4009 49.9057 61.5133 49.9057 61.6224 49.9275C63.433 50.2923 64.5345 50.6793 66.3237 51.0536C68.2544 51.4574 70.2508 51.8751 72.1981 52.2648C72.3919 52.3038 72.5656 52.4103 72.6883 52.5653C73.1701 53.1739 73.8846 53.5155 74.641 53.8771C75.151 54.1209 73.9954 54.0989 74.4395 54.4505C76.2381 55.8744 73.6517 84.7871 72.0889 91.3172C72.0387 91.5216 71.9141 91.6999 71.7394 91.8173C71.5646 91.9347 71.3524 91.9826 71.1442 91.9517Z" fill="#2F2E41"/>
<path d="M70.9526 27.0117C70.6659 25.7952 72.1153 23.1775 71.8286 21.9609C71.6344 21.137 69.6971 21.6971 69.245 20.9815C68.7929 20.2659 68.0356 19.6861 67.1892 19.6766C66.2163 19.6657 65.259 20.3874 64.3374 20.0755C63.4056 19.7601 63.1078 18.4841 63.5197 17.5907C63.9317 16.6974 64.8191 16.1282 65.6959 15.6821C67.189 14.9225 68.9275 14.3678 70.5256 14.8704C71.4916 15.1742 72.2993 15.8325 73.0809 16.4763C73.7934 17.0632 74.5179 17.6634 75.016 18.4406C75.9918 19.9631 75.9329 22.0145 75.099 23.6191C74.2652 25.2238 72.7458 26.4013 71.0716 27.0849" fill="#2F2E41"/>
<path d="M58.8941 55.323C59.4242 54.4375 60.2289 50.2888 61.2213 43.3253C61.8969 38.5716 62.4856 33.7415 62.7777 31.2742C62.8003 31.0745 62.8734 30.8838 62.9899 30.7201C63.1064 30.5564 63.2626 30.4249 63.4439 30.3381C63.6334 30.2466 63.8218 30.16 64.0091 30.0784C66.4278 29.0263 68.879 28.6778 71.2942 29.0422C73.7058 29.4126 75.9678 30.4433 77.8297 32.0202L77.8516 32.0409L77.8573 32.0705C77.8678 32.1254 78.8822 37.5914 76.8045 41.2844C74.7554 44.9282 74.7315 54.5778 74.7315 54.6748V54.7989L74.6122 54.7649C71.4245 53.854 59.1106 55.4475 58.9865 55.4638L58.7948 55.4888L58.8941 55.323Z" fill="#009FB5"/>
<path d="M77.425 42.6621H67.8797C67.4663 42.6621 67.1311 42.9973 67.1311 43.4108C67.1311 43.8242 67.4663 44.1594 67.8797 44.1594H77.425C77.8385 44.1594 78.1736 43.8242 78.1736 43.4108C78.1736 42.9973 77.8385 42.6621 77.425 42.6621Z" fill="#CCCCCC"/>
<path d="M77.425 58.9443H67.8797C67.4663 58.9443 67.1311 59.2795 67.1311 59.693C67.1311 60.1064 67.4663 60.4416 67.8797 60.4416H77.425C77.8385 60.4416 78.1736 60.1064 78.1736 59.693C78.1736 59.2795 77.8385 58.9443 77.425 58.9443Z" fill="#CCCCCC"/>
<path d="M72.7459 97.5002C72.6524 97.5002 72.5622 97.4651 72.4932 97.402C72.4242 97.3388 72.3814 97.2521 72.3731 97.1589L67.6012 43.4436C67.5969 43.3946 67.6022 43.3452 67.6169 43.2983C67.6316 43.2514 67.6555 43.2079 67.687 43.1702C67.7186 43.1325 67.7572 43.1014 67.8008 43.0787C67.8444 43.0559 67.892 43.042 67.941 43.0376C67.9899 43.0333 68.0393 43.0386 68.0862 43.0533C68.1331 43.0681 68.1766 43.0919 68.2143 43.1234C68.252 43.155 68.2831 43.1936 68.3059 43.2372C68.3286 43.2808 68.3426 43.3284 68.3469 43.3774L72.7406 92.8351L77.0093 43.3783C77.0178 43.2794 77.0653 43.1879 77.1413 43.124C77.2173 43.0601 77.3155 43.029 77.4144 43.0375C77.5134 43.0461 77.6048 43.0935 77.6687 43.1695C77.7326 43.2455 77.7638 43.3437 77.7552 43.4426L73.1189 97.158C73.1108 97.2513 73.0681 97.3382 72.9992 97.4015C72.9302 97.4648 72.84 97.5 72.7464 97.5002H72.7459Z" fill="#CCCCCC"/>
<path d="M69.6639 59.1822C69.6081 58.9284 69.6086 58.6654 69.6654 58.4118C69.7222 58.1583 69.8339 57.9202 69.9927 57.7145C70.1514 57.5087 70.3533 57.3403 70.5842 57.221C70.8151 57.1018 71.0693 57.0346 71.329 57.0242L75.2982 52.5439L77.7631 55.5218L73.1984 58.8564C73.1869 59.2938 73.0154 59.7118 72.7164 60.0311C72.4173 60.3505 72.0115 60.5491 71.5758 60.5892C71.1402 60.6294 70.7049 60.5083 70.3525 60.249C70.0002 59.9896 69.7551 59.6101 69.6639 59.1822Z" fill="#EFAD88"/>
<path d="M71.975 56.0634L78.2368 47.7143L75.0078 40.7949L75.2423 32.5887L77.8896 32.0996L77.9176 32.1137C79.2036 32.8658 80.2005 34.0272 80.749 35.4123C81.337 36.8826 82.5568 41.8846 83.4764 45.8219C83.7166 46.8352 83.6926 47.8932 83.4068 48.8946C83.1209 49.896 82.5828 50.8073 81.8438 51.5411L74.1622 59.2228L71.975 56.0634Z" fill="#009FB5"/>
<path d="M45.7256 95.1778L54.2925 97.2404C54.4587 97.2844 54.6351 97.2687 54.7909 97.196C54.9466 97.1233 55.072 96.9982 55.145 96.8425L62.5041 77.2763C62.5366 77.2011 62.5534 77.12 62.5535 77.0381C62.5536 76.9562 62.537 76.8751 62.5048 76.7998C62.4677 76.7153 62.4138 76.6392 62.3464 76.5761C62.279 76.513 62.1995 76.4642 62.1127 76.4328L55.6716 73.973C55.5698 73.9341 55.461 73.917 55.3521 73.9231C55.2433 73.9291 55.137 73.958 55.0401 74.0079C54.9559 74.0495 54.8816 74.1086 54.8222 74.1813C54.7627 74.254 54.7196 74.3386 54.6956 74.4294L54.6954 74.4303L50.1493 91.6751L50.0818 91.6793C50.0556 91.681 47.4494 91.8583 46.2775 93.2651C46.0587 93.5287 45.8968 93.8347 45.8018 94.1638C45.7069 94.493 45.6809 94.8382 45.7256 95.1778Z" fill="#CCCCCC"/>
<path d="M120.195 97.3131C120.195 97.3377 120.19 97.3621 120.181 97.3849C120.172 97.4076 120.158 97.4283 120.141 97.4457C120.123 97.4631 120.102 97.4769 120.08 97.4862C120.057 97.4956 120.033 97.5004 120.008 97.5003H27.5502C27.5006 97.5003 27.453 97.4806 27.4179 97.4455C27.3828 97.4104 27.363 97.3628 27.363 97.3131C27.363 97.2635 27.3828 97.2159 27.4179 97.1808C27.453 97.1457 27.5006 97.126 27.5502 97.126H120.008C120.033 97.1259 120.057 97.1307 120.08 97.14C120.102 97.1494 120.123 97.1632 120.141 97.1806C120.158 97.198 120.172 97.2187 120.181 97.2414C120.19 97.2642 120.195 97.2885 120.195 97.3131Z" fill="#CBCBCB"/>
<path d="M51.9299 84.2097L51.8905 84.582L59.7011 85.4092L59.7405 85.0369L51.9299 84.2097Z" fill="#B3B3B3"/>
<path d="M51.249 87.2933L51.0953 87.6348L57.3807 90.4627L57.5344 90.1213L51.249 87.2933Z" fill="#B3B3B3"/>
<path d="M60.5625 82.4152L53.1541 79.9615L53.3077 79.6201L60.7161 82.0738L60.5625 82.4152Z" fill="#B3B3B3"/>
<path d="M61.3111 80.7305L53.9027 77.1539L54.0564 76.8125L61.4648 80.3892L61.3111 80.7305Z" fill="#B3B3B3"/>
<path d="M50.5956 90.2242L50.3525 90.5088L55.694 95.0717L55.9371 94.7871L50.5956 90.2242Z" fill="#B3B3B3"/>
<path d="M49.0791 91.737L48.7382 91.8916L50.8829 96.6211L51.2238 96.4665L49.0791 91.737Z" fill="#B3B3B3"/>
<path d="M99.2967 91.9608V6.65183C99.2967 5.49985 99.3186 4.34542 99.2967 3.19358C99.2957 3.14322 99.2967 3.09275 99.2967 3.04238C99.2967 2.3198 98.1737 2.31861 98.1737 3.04238V88.3513C98.1737 89.5033 98.1518 90.6578 98.1737 91.8096C98.1746 91.86 98.1737 91.9104 98.1737 91.9608C98.1737 92.6834 99.2967 92.6846 99.2967 91.9608Z" fill="#F2F2F2"/>
<path d="M105.507 26.8859H92.0316C91.7091 26.8855 91.3999 26.7572 91.1718 26.5292C90.9437 26.3011 90.8154 25.9919 90.8151 25.6694V9.29272C90.8154 8.97019 90.9437 8.66097 91.1718 8.4329C91.3999 8.20484 91.7091 8.07654 92.0316 8.07617H105.507C105.83 8.07654 106.139 8.20484 106.367 8.4329C106.595 8.66097 106.723 8.97019 106.724 9.29272V25.6694C106.723 25.9919 106.595 26.3011 106.367 26.5292C106.139 26.7572 105.83 26.8855 105.507 26.8859Z" fill="#F2F2F2"/>
</g>
<defs>
<clipPath id="clip0_3539_133">
<rect width="95.2738" height="95" fill="white" transform="translate(27.363 2.5)"/>
</clipPath>
</defs>
</svg>
