<svg width="150" height="101" viewBox="0 0 150 101" fill="none" xmlns="http://www.w3.org/2000/svg">
<g clip-path="url(#clip0_3539_132)">
<path d="M95.7065 52.3256C96.3164 52.495 96.9672 52.4349 97.5357 52.1565C98.1042 51.8781 98.5508 51.4008 98.791 50.8152C99.0311 50.2295 99.048 49.5761 98.8386 48.9787C98.6291 48.3814 98.2078 47.8816 97.6545 47.5742L92.1662 41.3477L87.5242 42.3505L94.0531 48.7455C93.8926 49.0855 93.8086 49.4565 93.807 49.8325C93.8055 50.2085 93.8863 50.5802 94.044 50.9215C94.2016 51.2629 94.4321 51.5655 94.7194 51.8081C95.0066 52.0507 95.3436 52.2273 95.7065 52.3256Z" fill="#EFAD88"/>
<path d="M77.6499 30.034L91.329 47.2046L95.4987 45.2903L79.4204 20.2588L77.6499 30.034Z" fill="#FDD95B"/>
<path d="M139.838 89.3775C140.695 87.7144 140.229 85.6162 139.162 84.0792C138.095 82.5421 136.519 81.4469 134.978 80.3858L132.835 78.9102L133.859 84.0476C134.204 85.7846 134.63 87.6603 135.987 88.7989C136.519 89.2356 137.155 89.5277 137.834 89.6472C138.512 89.7667 139.21 89.7095 139.86 89.4811" fill="#3BB273"/>
<path d="M139.676 95.7011C139.665 95.7404 139.639 95.7737 139.603 95.7939C139.568 95.814 139.526 95.8194 139.486 95.8088C139.447 95.7969 139.415 95.7706 139.395 95.7354C139.375 95.7001 139.369 95.6586 139.379 95.6192C139.498 94.7492 139.616 93.8787 139.672 93.0022C139.766 91.5528 139.679 90.0653 139.143 88.7009C138.657 87.4739 137.794 86.4329 136.679 85.7279C136.512 85.6223 136.666 85.356 136.834 85.4619C137.479 85.8681 138.048 86.3837 138.516 86.9854C139.397 88.1212 139.829 89.5063 139.964 90.9244C140.116 92.5213 139.893 94.1213 139.676 95.7013L139.676 95.7011Z" fill="#24764A"/>
<path d="M117.865 85.9443C124.617 90.099 122.366 95.6386 122.366 95.6386L117.865 85.9443Z" fill="#3BB273"/>
<path d="M131.134 91.6233C125.82 91.5894 125.134 95.5377 125.134 95.5377L131.134 91.6233Z" fill="#3BB273"/>
<path d="M45.4117 95.9655C46.2403 95.9655 46.9121 95.2938 46.9121 94.4652C46.9121 93.6366 46.2403 92.9648 45.4117 92.9648C44.5831 92.9648 43.9114 93.6366 43.9114 94.4652C43.9114 95.2938 44.5831 95.9655 45.4117 95.9655Z" fill="#3F3D56"/>
<path d="M46.5029 64.2544C46.5029 64.2544 50.0492 53.4793 50.3219 52.7291C50.5947 51.9789 53.459 53.2065 54.2092 53.4111C54.9593 53.6157 54.7547 54.3658 54.7547 54.3658L50.9357 65.4137L52.0951 65.9593L55.6413 54.8432C57.6872 52.7291 56.1869 52.5927 56.1869 52.5927C56.1869 52.5927 51.8223 51.0924 50.1855 50.956C48.5488 50.8196 49.1626 52.7973 49.1626 52.7973L45.2072 63.2996L46.5029 64.2544Z" fill="#3F3D56"/>
<path d="M55.0275 66.8455L55.0268 66.8448C54.5236 66.1233 53.809 65.5755 52.9816 65.277C52.9522 65.2661 52.9181 65.2538 52.8793 65.2402C51.0004 64.5834 37.91 61.0488 37.91 61.0488C37.91 61.0488 35.3185 60.094 34.1592 62.6855C32.9998 65.277 26.1119 86.7591 26.1119 86.7591C26.1119 86.7591 39.5836 93.9634 43.511 94.7477C43.7535 94.8061 44.0037 94.8259 44.2523 94.8063C44.9199 94.7138 45.577 94.5569 46.2144 94.3378C46.9193 94.1081 47.5899 93.7839 48.2078 93.3742L55.8459 70.5282C55.8459 70.5282 56.937 68.0049 55.0275 66.8455Z" fill="#009FB5"/>
<path d="M55.0274 66.8456L55.0267 66.8449C54.5236 66.1234 53.809 65.5756 52.9815 65.2771C52.9522 65.2661 52.9181 65.2539 52.8792 65.2402C53.4971 66.3232 53.7317 68.0049 53.7317 68.0049C53.7317 68.0049 46.23 90.3054 45.548 92.4195C45.0284 94.031 43.9802 94.5786 43.511 94.7477C43.7535 94.8061 44.0036 94.8259 44.2523 94.8064C44.9199 94.7138 45.5769 94.5569 46.2143 94.3379C46.4007 94.1241 46.5659 93.8928 46.7074 93.647C46.7074 93.647 54.3455 70.801 55.0274 69.7099C55.7094 68.6187 55.0274 66.8456 55.0274 66.8456Z" fill="#3F3D56"/>
<path d="M40.8084 95.9997C41.6371 95.9997 42.3088 95.328 42.3088 94.4994C42.3088 93.6708 41.6371 92.999 40.8084 92.999C39.9798 92.999 39.3081 93.6708 39.3081 94.4994C39.3081 95.328 39.9798 95.9997 40.8084 95.9997Z" fill="#3F3D56"/>
<path d="M26.2483 89.6911C27.0769 89.6911 27.7486 89.0194 27.7486 88.1908C27.7486 87.3622 27.0769 86.6904 26.2483 86.6904C25.4196 86.6904 24.7479 87.3622 24.7479 88.1908C24.7479 89.0194 25.4196 89.6911 26.2483 89.6911Z" fill="#3F3D56"/>
<path d="M52.6941 53.642C52.0906 53.8331 51.438 53.7961 50.86 53.5382C50.2819 53.2802 49.8186 52.8192 49.5577 52.2424C49.2969 51.6657 49.2567 51.0133 49.4447 50.4088C49.6328 49.8044 50.036 49.29 50.578 48.963L55.841 42.5449L60.5158 43.3818L54.2188 50.0053C54.3913 50.3394 54.4885 50.7072 54.5035 51.0828C54.5184 51.4585 54.4509 51.8329 54.3055 52.1796C54.1601 52.5264 53.9405 52.837 53.6621 53.0897C53.3837 53.3423 53.0532 53.5309 52.6941 53.642Z" fill="#EFAD88"/>
<path d="M88.5646 81.8822L91.8247 81.8311L91.4326 92.9427H88.5651L88.5646 81.8822Z" fill="#EFAD88"/>
<path d="M87.8336 92.0071L93.4809 92.0068H93.4811C94.4356 92.0069 95.3509 92.3861 96.0258 93.061C96.7007 93.7359 97.0799 94.6512 97.08 95.6057V95.7226L87.8338 95.723L87.8336 92.0071Z" fill="#2F2E41"/>
<path d="M66.9793 78.9355L70.5406 81.2219L63.4168 89.7922L61.0038 88.243L66.9793 78.9355Z" fill="#EFAD88"/>
<path d="M60.8941 87.0596L65.6463 90.1105L65.6465 90.1106C66.4496 90.6264 67.015 91.44 67.2183 92.3725C67.4215 93.3051 67.2461 94.2802 66.7305 95.0834L66.6673 95.1818L58.8866 90.1865L60.8941 87.0596Z" fill="#2F2E41"/>
<path d="M65.7104 45.0048C65.7104 45.0048 73.6233 18.7235 76.1663 18.3684C78.7092 18.0132 82.8065 25.1118 82.8065 25.1118C88.1188 31.8898 93.5966 53.8449 93.5966 53.8449C93.5966 53.8449 84.4649 54.4164 77.7896 57.9679C71.1142 61.5194 63.2365 57.7881 63.2365 57.7881L65.7104 45.0048Z" fill="#FDD95B"/>
<path opacity="0.1" d="M65.7104 45.0047C65.7104 45.0047 73.6233 18.7234 76.1663 18.3682C78.7092 18.0131 81.7659 25.1838 81.7659 25.1838C84.4129 36.1249 93.5966 53.8448 93.5966 53.8448C93.5966 53.8448 84.4649 54.4162 77.7896 57.9678C71.1142 61.5193 63.2365 57.788 63.2365 57.788L65.7104 45.0047Z" fill="black"/>
<path d="M72.2024 37.1417V50.3479L70.6483 69.478L62.8835 83.9486L66.5894 86.5956L77.1777 72.8309L81.3655 59.1635L87.9424 89.4192L92.8835 89.0662L89.4519 47.1172L82.94 35.3096L72.2024 37.1417Z" fill="#8067AB"/>
<path d="M80.1806 24.3682C82.6512 26.8388 80.3571 29.4858 80.3571 29.4858L83.1806 35.8388L72.063 38.8388L68.1777 21.4779L70.8248 18.6544C76.1189 18.4779 76.1218 18.3682 76.1218 18.3682C77.0493 19.2759 80.1806 24.3682 80.1806 24.3682Z" fill="#BF482E"/>
<path d="M67.6685 19.7244C66.7495 20.4004 66.1048 21.3849 65.8527 22.4976C65.6007 23.6102 65.7581 24.7765 66.2961 25.7825C67.5698 28.2139 68.9398 31.9802 68.2333 36.1148C66.955 43.5976 62.8569 49.2827 60.5742 51.1085C59.7795 51.744 59.7517 52.6696 59.8684 53.3342C60.1943 55.1907 61.9944 57.2975 63.2394 57.7199C63.3233 57.7477 63.4111 57.7615 63.4994 57.7607C65.5221 57.7614 70.4976 51.3194 76.215 38.7354C79.7758 30.8982 77.1915 24.6143 74.3965 20.7227C74.0296 20.2135 73.5654 19.7822 73.0306 19.4537C72.4958 19.1252 71.9012 18.9061 71.2811 18.809C70.6611 18.712 70.0279 18.7389 69.4184 18.8883C68.8088 19.0376 68.2349 19.3065 67.73 19.6792L67.6685 19.7244Z" fill="#FDD95B"/>
<path d="M72.9423 27.3017L56.8863 48.3686L52.651 46.6039L67.8275 21.0156L72.9423 27.3017Z" fill="#FDD95B"/>
<path d="M77.705 16.0817H66.6616C66.4345 16.0815 66.2167 15.9911 66.0561 15.8305C65.8954 15.6699 65.8051 15.4521 65.8048 15.2249V10.4649C65.8044 9.62694 65.969 8.79714 66.2894 8.02288C66.6097 7.24862 67.0795 6.54507 67.6718 5.95241C68.2642 5.35976 68.9675 4.88962 69.7416 4.56886C70.5157 4.2481 71.3454 4.08301 72.1833 4.08301C73.0212 4.08301 73.8509 4.2481 74.625 4.56886C75.3991 4.88962 76.1024 5.35976 76.6948 5.95241C77.2871 6.54507 77.7569 7.24862 78.0772 8.02288C78.3976 8.79714 78.5622 9.62694 78.5618 10.4649V15.2249C78.5615 15.4521 78.4712 15.6699 78.3106 15.8305C78.1499 15.9911 77.9321 16.0815 77.705 16.0817Z" fill="#2F2E41"/>
<path d="M77.5974 13.5371C78.8362 11.2709 78.0034 8.42945 75.7371 7.1906C73.4709 5.95176 70.6294 6.78464 69.3906 9.05089C68.1517 11.3171 68.9846 14.1586 71.2509 15.3974C73.5171 16.6363 76.3586 15.8034 77.5974 13.5371Z" fill="#EFAD88"/>
<path d="M80.0707 10.9407H73.318L73.2487 9.97119L72.9025 10.9407H71.8627L71.7255 9.01917L71.0393 10.9407H69.0273V10.8455C69.0288 9.50775 69.5609 8.22524 70.5068 7.27932C71.4527 6.3334 72.7352 5.80132 74.073 5.7998H75.025C76.3628 5.80131 77.6453 6.3334 78.5912 7.27932C79.5371 8.22524 80.0692 9.50775 80.0707 10.8455V10.9407Z" fill="#2F2E41"/>
<path d="M73.2628 16.97C73.212 16.9699 73.1612 16.9655 73.1112 16.9566L68.1665 16.0842V7.91211H73.6096L73.4749 8.06923C71.5999 10.2559 73.0125 13.8016 74.0213 15.7205C74.0957 15.861 74.1289 16.0197 74.117 16.1783C74.1051 16.3368 74.0487 16.4888 73.9543 16.6167C73.8752 16.7261 73.7712 16.8151 73.651 16.8766C73.5308 16.938 73.3978 16.97 73.2628 16.97Z" fill="#2F2E41"/>
<path d="M0 95.823C0 95.7762 0.0185922 95.7313 0.0516869 95.6982C0.0847816 95.6651 0.129668 95.6465 0.176471 95.6465H149.824C149.87 95.6465 149.915 95.6651 149.948 95.6982C149.981 95.7313 150 95.7762 150 95.823C150 95.8698 149.981 95.9146 149.948 95.9477C149.915 95.9808 149.87 95.9994 149.824 95.9994H0.176471C0.129668 95.9994 0.0847816 95.9808 0.0516869 95.9477C0.0185922 95.9146 0 95.8698 0 95.823Z" fill="#CBCBCB"/>
</g>
<defs>
<clipPath id="clip0_3539_132">
<rect width="150" height="91.9138" fill="white" transform="translate(0 4.08594)"/>
</clipPath>
</defs>
</svg>
