<svg width="21" height="21" viewBox="0 0 21 21" fill="none" xmlns="http://www.w3.org/2000/svg">
<path fill-rule="evenodd" clip-rule="evenodd" d="M2.5 3.6543C1.39539 3.6543 0.5 4.54971 0.5 5.6543V18.6543C0.5 19.7589 1.39539 20.6543 2.5 20.6543H15.5C16.6046 20.6543 17.5 19.7589 17.5 18.6543V5.6543C17.5 4.54971 16.6046 3.6543 15.5 3.6543H13.5V0.65625H11.5V3.6543H6.5V0.65625H4.5V3.6543H2.5ZM15.5 9.1543H2.5V18.6543H15.5V9.1543Z" fill="white"/>
<path d="M11.5 15.1543C11.5 14.8782 11.7239 14.6543 12 14.6543H14C14.2761 14.6543 14.5 14.8782 14.5 15.1543V17.1543C14.5 17.4304 14.2761 17.6543 14 17.6543H12C11.7239 17.6543 11.5 17.4304 11.5 17.1543V15.1543Z" fill="white" fill-opacity="0.6"/>
<path d="M3.5 10.6543C3.5 10.3782 3.72386 10.1543 4 10.1543H6C6.27614 10.1543 6.5 10.3782 6.5 10.6543V12.6543C6.5 12.9304 6.27614 13.1543 6 13.1543H4C3.72386 13.1543 3.5 12.9304 3.5 12.6543V10.6543Z" fill="white"/>
</svg>
