<svg width="40" height="40" viewBox="0 0 40 40" fill="none" xmlns="http://www.w3.org/2000/svg">
<rect width="40" height="40" rx="5" fill="#009FB5"/>
<path fill-rule="evenodd" clip-rule="evenodd" d="M22.909 12.7274C22.909 11.1208 21.6066 9.81836 19.9999 9.81836C18.3933 9.81836 17.0909 11.1208 17.0909 12.7274H14.9091C13.3024 12.7274 12 14.0299 12 15.6365V27.2728C12 28.8794 13.3024 30.1819 14.9091 30.1819H25.0908C26.6975 30.1819 27.9999 28.8794 27.9999 27.2728V15.6365C27.9999 14.0299 26.6975 12.7274 25.0908 12.7274H22.909ZM21.2727 12.7274C21.2727 13.4303 20.7029 14.0002 19.9999 14.0002C19.297 14.0002 18.7272 13.4303 18.7272 12.7274C18.7272 12.0245 19.297 11.4547 19.9999 11.4547C20.7029 11.4547 21.2727 12.0245 21.2727 12.7274ZM14.5455 17.6366C14.3447 17.8374 14.3447 18.163 14.5455 18.3639L16.1065 19.9249C16.2485 20.0669 16.4788 20.0669 16.6208 19.9249L19.6364 16.9093C19.8372 16.7085 19.8372 16.3829 19.6364 16.182C19.4355 15.9812 19.1099 15.9812 18.9091 16.182L16.3637 18.7275L15.2728 17.6366C15.0719 17.4358 14.7463 17.4358 14.5455 17.6366ZM14.9091 25.0911C14.9091 25.8944 15.5603 26.5456 16.3637 26.5456C17.167 26.5456 17.8182 25.8944 17.8182 25.0911C17.8182 24.2878 17.167 23.6365 16.3637 23.6365C15.5603 23.6365 14.9091 24.2878 14.9091 25.0911ZM20.7273 20.0005C20.3256 20.0005 20 19.6748 20 19.2732C20 18.8715 20.3256 18.5459 20.7273 18.5459H25.0909C25.4925 18.5459 25.8181 18.8715 25.8181 19.2732C25.8181 19.6748 25.4925 20.0005 25.0909 20.0005H20.7273ZM20.7273 22.9095C20.3256 22.9095 20 22.5839 20 22.1823C20 21.7806 20.3256 21.455 20.7273 21.455H25.0909C25.4925 21.455 25.8181 21.7806 25.8181 22.1823C25.8181 22.5839 25.4925 22.9095 25.0909 22.9095H20.7273ZM20.7273 25.8186C20.3256 25.8186 20 25.493 20 25.0913C20 24.6897 20.3256 24.3641 20.7273 24.3641H22.9091C23.3107 24.3641 23.6363 24.6897 23.6363 25.0913C23.6363 25.493 23.3107 25.8186 22.9091 25.8186H20.7273Z" fill="white"/>
</svg>
