<svg width="16" height="16" viewBox="0 0 16 16" fill="none" xmlns="http://www.w3.org/2000/svg">
<path fill-rule="evenodd" clip-rule="evenodd" d="M9.30435 3.30435C9.30435 3.76513 9.06542 4.1701 8.7047 4.40214C9.49873 4.6004 10.087 5.31846 10.087 6.17391V6.69565C10.087 6.83973 9.97016 6.95652 9.82609 6.95652H6.17391C6.02984 6.95652 5.91304 6.83973 5.91304 6.69565V6.17391C5.91304 5.31846 6.50127 4.6004 7.2953 4.40214C6.93458 4.1701 6.69565 3.76513 6.69565 3.30435C6.69565 2.58398 7.27963 2 8 2C8.72037 2 9.30435 2.58398 9.30435 3.30435ZM5.3913 10.3478C5.3913 10.8086 5.15238 11.2136 4.79165 11.4456C5.58569 11.6439 6.17391 12.3619 6.17391 13.2174V13.7391C6.17391 13.8832 6.05712 14 5.91304 14H2.26087C2.1168 14 2 13.8832 2 13.7391V13.2174C2 12.3619 2.58822 11.6439 3.38226 11.4456C3.02154 11.2136 2.78261 10.8086 2.78261 10.3478C2.78261 9.62745 3.36659 9.04348 4.08696 9.04348C4.80733 9.04348 5.3913 9.62745 5.3913 10.3478ZM12.6177 11.4456C12.9785 11.2136 13.2174 10.8086 13.2174 10.3478C13.2174 9.62745 12.6334 9.04348 11.913 9.04348C11.1927 9.04348 10.6087 9.62745 10.6087 10.3478C10.6087 10.8086 10.8476 11.2136 11.2083 11.4456C10.4143 11.6439 9.82609 12.3619 9.82609 13.2174V13.7391C9.82609 13.8832 9.94288 14 10.087 14H13.7391C13.8832 14 14 13.8832 14 13.7391V13.2174C14 12.3619 13.4118 11.6439 12.6177 11.4456ZM5.13557 4.85207C5.23183 4.74487 5.23231 4.58014 5.13043 4.47827C5.02855 4.37639 4.86294 4.37599 4.76614 4.4827C4.03208 5.29201 3.4929 6.36907 3.23528 7.43332C3.20138 7.57335 3.2935 7.71088 3.43478 7.73914C3.57605 7.76739 3.71295 7.67568 3.74732 7.53577C3.98432 6.57109 4.47348 5.58928 5.13557 4.85207ZM10.8644 4.85207C10.7682 4.74487 10.7677 4.58014 10.8696 4.47827C10.9714 4.37639 11.1371 4.37599 11.2339 4.4827C11.9679 5.29201 12.5071 6.36907 12.7647 7.43332C12.7986 7.57335 12.7065 7.71088 12.5652 7.73914C12.4239 7.76739 12.287 7.67568 12.2527 7.53577C12.0157 6.57109 11.5265 5.58928 10.8644 4.85207ZM9.82608 10.8696C9.88284 11.002 9.82169 11.1561 9.68643 11.2057C8.5978 11.6051 7.40219 11.6051 6.31356 11.2057C6.1783 11.1561 6.11716 11.002 6.17391 10.8696C6.23066 10.7371 6.38383 10.6766 6.5194 10.7254C7.47629 11.0696 8.52371 11.0696 9.48059 10.7254C9.61616 10.6766 9.76933 10.7371 9.82608 10.8696Z" fill="#189FB5"/>
</svg>
