<svg width="16" height="16" viewBox="0 0 16 16" fill="none" xmlns="http://www.w3.org/2000/svg">
<path d="M14.3332 3H1.66659C0.733297 3 0 3.73339 0 4.66668V11.9999C0 12.9333 0.733297 13.6666 1.66668 13.6666H14.3333C15.2666 13.6666 16 12.9333 16 11.9999V4.66668C15.9999 3.73339 15.2666 3 14.3332 3ZM5.86678 8.93343L1.86682 12.2667C1.73343 12.3334 1.53343 12.3334 1.40013 12.2C1.26682 12.0667 1.33343 11.8667 1.46682 11.7333L5.46679 8.40004C5.60009 8.26674 5.80009 8.33344 5.93339 8.46674C6.06678 8.60004 6.00009 8.80004 5.86678 8.93343ZM14.6 12.1999C14.4667 12.3332 14.2667 12.3332 14.1333 12.2666L10.1333 8.93339C10 8.80009 10 8.60009 10.0666 8.4667C10.1333 8.33339 10.3999 8.33339 10.5333 8.4L14.5333 11.7332C14.6667 11.8666 14.7333 12.0666 14.6 12.1999ZM14.5333 4.93347L9.06657 8.66669C8.73327 8.86669 8.33328 8.99999 7.99998 8.99999C7.66668 8.99999 7.26668 8.86669 6.93329 8.66669L1.46682 4.93347C1.33343 4.86677 1.26682 4.60008 1.40013 4.46678C1.46682 4.33347 1.73342 4.26678 1.86682 4.40008L7.33328 8.13353C7.73328 8.40023 8.26658 8.40023 8.66658 8.13353L14.1333 4.40031C14.2666 4.26701 14.4666 4.33361 14.6 4.467C14.7333 4.60022 14.6667 4.86691 14.5333 4.93361V4.93347Z" fill="#189FB5"/>
</svg>
