<svg width="16" height="16" viewBox="0 0 16 16" fill="none" xmlns="http://www.w3.org/2000/svg">
<path d="M12.4 7.13906C10.4103 7.13906 8.8 8.74931 8.8 10.7391C8.8 12.7288 10.4103 14.3391 12.4 14.3391C14.3898 14.3391 16 12.7288 16 10.7391C16 8.74931 14.3898 7.13906 12.4 7.13906ZM14 10.8963C14 11.0298 13.8907 11.1391 13.7572 11.1391H12.243C12.1095 11.1391 12.0003 11.0298 12.0003 10.8963V8.98206C12.0003 8.84856 12.1095 8.73931 12.243 8.73931H12.5573C12.6908 8.73931 12.8 8.84856 12.8 8.98206V10.3391H13.7572C13.8907 10.3391 14 10.4483 14 10.5818V10.8963ZM12.4 6.33906C12.535 6.33906 12.668 6.34731 12.8 6.35931V5.13906C12.8 4.49906 12.24 3.93906 11.6 3.93906H9.6V2.73906C9.6 2.09906 9.04 1.53906 8.4 1.53906H4.4C3.76 1.53906 3.2 2.09906 3.2 2.73906V3.93906H1.2C0.56 3.93906 0 4.49906 0 5.13906V7.13906H9.878C10.593 6.63681 11.4618 6.33906 12.4 6.33906ZM8 3.93906H4.8V3.13906H8V3.93906ZM8.1705 9.53906H5.2C4.979 9.53906 4.8 9.36006 4.8 9.13906V7.93906H0V11.5391C0 12.1791 0.56 12.7391 1.2 12.7391H8.48575C8.1775 12.1381 8 11.4596 8 10.7391C8 10.3226 8.062 9.92106 8.1705 9.53906Z" fill="#189FB5"/>
</svg>
