<svg width="16" height="16" viewBox="0 0 16 16" fill="none" xmlns="http://www.w3.org/2000/svg">
<path d="M9.14518 10.3177C9.29201 10.3978 9.43885 10.4778 9.599 10.4645L9.59899 10.4645C9.61231 10.4645 9.62571 10.4511 9.63903 10.4377C9.79916 10.411 9.93269 10.2909 10.0528 10.1708C10.3197 9.91715 10.6267 9.69025 10.9604 9.50338C11.0805 9.43662 11.2007 9.36995 11.3342 9.38327C11.4543 9.39658 11.5611 9.46334 11.6679 9.53009C12.2285 9.90394 12.7491 10.331 13.2163 10.8116C13.5366 11.1453 13.857 11.519 13.937 11.9862C14.0171 12.4401 13.8437 12.9206 13.5233 13.2543C13.203 13.6014 12.7758 13.8016 12.322 13.9084C11.4143 14.1219 10.4666 13.935 9.58561 13.628C7.07615 12.747 5.00721 10.8916 3.49884 8.70254C2.85815 7.78151 2.31086 6.7671 2.08395 5.6725C1.87036 4.61799 1.96384 1.92167 3.57893 2.00175C3.93935 2.02847 4.27306 2.18862 4.58014 2.37549C5.22083 2.76264 5.78145 3.28322 6.22194 3.88386C6.48897 4.24419 6.71588 4.71143 6.54232 5.1252C6.45582 5.34763 6.27208 5.51 6.09038 5.67056C5.87955 5.85687 5.67148 6.04074 5.62127 6.31319C5.56782 6.58022 5.70134 6.84717 5.84818 7.07408C6.64907 8.40895 7.79697 9.53017 9.14518 10.3177Z" fill="#189FB5"/>
</svg>
