<svg width="16" height="16" viewBox="0 0 16 16" fill="none" xmlns="http://www.w3.org/2000/svg">
<path d="M4.26064 12.1851C4.23917 12.3373 4.29051 12.4907 4.3993 12.5992C4.52956 12.7295 5.32844 13.3935 8.00013 13.3935C10.6718 13.3935 11.4687 12.732 11.601 12.5992C11.7097 12.4907 11.7611 12.3373 11.7396 12.1851L11.4076 9.86323H11.4075C11.2994 9.1278 10.931 8.45557 10.3696 7.96844C9.8081 7.48131 9.09064 7.21152 8.34734 7.20803H7.65452C6.91122 7.21152 6.19377 7.48131 5.63229 7.96844C5.07082 8.45557 4.70251 9.1278 4.59426 9.86323L4.26064 12.1851Z" fill="#189FB5"/>
<path d="M1.15038 9.40885L1.00715 10.2162H1.00704C0.984912 10.3442 1.01543 10.4757 1.09174 10.5809C1.1894 10.7241 1.7754 11.4273 3.70923 11.4403L3.95013 9.77349C4.07036 8.9261 4.47976 8.1463 5.10904 7.56616C4.35625 7.13071 3.43847 7.08994 2.65004 7.45694C1.86162 7.82383 1.30179 8.55254 1.15038 9.40885Z" fill="#189FB5"/>
<path d="M14.9083 10.5809C14.9846 10.4757 15.0151 10.3442 14.993 10.2162L14.8497 9.40885H14.8496C14.6982 8.55251 14.1384 7.82384 13.35 7.45694C12.5615 7.08994 11.6437 7.13071 10.891 7.56617C11.5202 8.14628 11.9297 8.92608 12.0499 9.77349L12.2908 11.4404C14.2246 11.4273 14.8106 10.7241 14.9083 10.5809Z" fill="#189FB5"/>
<path d="M1.9772 5.09199C1.97676 5.56693 2.16534 6.02256 2.50116 6.3585C2.83711 6.69433 3.29274 6.88292 3.76768 6.88247C4.34497 6.88508 4.88702 6.60549 5.2197 6.13373C4.90926 5.6236 4.74487 5.03802 4.74434 4.4408C4.74391 4.17734 4.77672 3.91474 4.84201 3.65947C4.48558 3.39219 4.04215 3.26727 3.5986 3.30935C3.15497 3.35153 2.74293 3.55744 2.44318 3.88706C2.14331 4.21678 1.9772 4.64638 1.9772 5.09199Z" fill="#189FB5"/>
<path d="M12.2322 3.30134C11.8449 3.30232 11.4682 3.42789 11.1579 3.65941C11.2232 3.9147 11.256 4.1773 11.2555 4.44075C11.255 5.03796 11.0906 5.62355 10.7802 6.13367C11.1129 6.60543 11.6549 6.88504 12.2322 6.88241C12.8718 6.88241 13.4629 6.54114 13.7829 5.98717C14.1027 5.43321 14.1027 4.75066 13.7829 4.19658C13.4629 3.64261 12.8718 3.30134 12.2322 3.30134Z" fill="#189FB5"/>
<path d="M10.4415 4.44069C10.4415 5.78927 9.34835 6.88236 7.99988 6.88236C6.65141 6.88236 5.55822 5.78927 5.55822 4.44069C5.55822 3.09222 6.65141 1.99902 7.99988 1.99902C9.34835 1.99902 10.4415 3.09222 10.4415 4.44069Z" fill="#189FB5"/>
</svg>
