<svg width="20" height="20" viewBox="0 0 20 20" fill="none" xmlns="http://www.w3.org/2000/svg">
<path d="M3.57143 1C2.15313 1 1 2.15313 1 3.57143V16.4286C1 17.8469 2.15313 19 3.57143 19H16.4286C17.8469 19 19 17.8469 19 16.4286V3.57143C19 2.15313 17.8469 1 16.4286 1H3.57143ZM14.0902 5.32723L14.6688 5.9058C15.2955 6.53259 15.2955 7.54911 14.6688 8.17991L13.8089 9.03973L10.9563 6.18705L11.8161 5.32723C12.4429 4.70045 13.4594 4.70045 14.0902 5.32723ZM5.81741 11.3259L10.0442 7.09911L12.8969 9.95179L8.67009 14.1746C8.50536 14.3393 8.30045 14.4558 8.07143 14.5121L5.6567 15.1147C5.43571 15.171 5.2067 15.1067 5.04598 14.946C4.88527 14.7853 4.82098 14.5562 4.87723 14.3353L5.47991 11.9205C5.53616 11.6955 5.65268 11.4866 5.81741 11.3219V11.3259Z" fill="white"/>
</svg>
