<svg width="200" height="120" viewBox="0 0 200 120" fill="none" xmlns="http://www.w3.org/2000/svg">
<g clip-path="url(#clip0_3448_27036)">
<path d="M166.535 119.027C164.707 117.471 163.597 115.013 163.888 112.62C164.179 110.228 165.982 108.028 168.322 107.52C170.661 107.012 173.328 108.418 174.039 110.72C174.43 106.282 174.881 101.658 177.223 97.8785C179.344 94.4563 183.018 92.0075 186.999 91.5695C190.981 91.1314 195.173 92.786 197.656 95.9514C200.139 99.1169 200.747 103.719 199.008 107.353C197.727 110.03 195.367 112.023 192.894 113.644C184.902 118.837 175.318 120.949 165.904 119.591" fill="#F2F2F2"/>
<path d="M193.719 92.8783C190.434 95.5737 187.42 98.5883 184.721 101.878C180.497 107.01 177.079 112.763 174.586 118.938C174.404 119.388 175.13 119.585 175.31 119.139C179.389 109.104 185.901 100.259 194.25 93.4132C194.625 93.1057 194.091 92.5733 193.719 92.8783Z" fill="white"/>
<path d="M98.286 7.57586C98.2858 7.63011 98.2644 7.6821 98.2263 7.72046C98.1882 7.75882 98.1366 7.78045 98.0827 7.78062H97.9851C97.8348 7.64957 97.6883 7.51238 97.546 7.37109H98.0827C98.1366 7.37126 98.1882 7.39288 98.2263 7.43125C98.2643 7.46961 98.2858 7.5216 98.286 7.57586Z" fill="#F2F2F2"/>
<path d="M103.165 0H52.1413C51.7641 0.000422198 51.4024 0.151568 51.1356 0.420279C50.8689 0.68899 50.7188 1.05332 50.7184 1.43334V29.281C50.7188 29.661 50.8689 30.0253 51.1356 30.294C51.4024 30.5628 51.7641 30.7139 52.1413 30.7143H103.165C103.542 30.7139 103.904 30.5628 104.17 30.294C104.437 30.0253 104.587 29.661 104.588 29.281V1.43334C104.587 1.05332 104.437 0.68899 104.17 0.420279C103.904 0.151568 103.542 0.000422198 103.165 0ZM104.181 29.281C104.181 29.5525 104.074 29.8128 103.883 30.0048C103.693 30.1968 103.434 30.3047 103.165 30.3048H52.1413C51.8718 30.3047 51.6134 30.1968 51.4228 30.0048C51.2322 29.8128 51.1251 29.5525 51.1249 29.281V1.43334C51.1251 1.16184 51.2322 0.901488 51.4228 0.70951C51.6134 0.517531 51.8718 0.409633 52.1413 0.409524H103.165C103.434 0.409633 103.693 0.517531 103.883 0.70951C104.074 0.901488 104.181 1.16184 104.181 1.43334V29.281Z" fill="#3F3D56"/>
<path d="M72.2092 12.1142C71.6014 10.644 70.6561 9.41956 69.2819 8.60871C67.8407 7.75485 66.1921 7.04433 64.5333 6.78838C62.8728 6.54111 61.1797 6.63655 59.557 7.0689C59.3456 7.12419 59.126 7.18357 58.9066 7.24909C58.3358 7.39751 57.7932 7.63964 57.3006 7.96576C57.2843 7.976 57.2681 7.98624 57.2518 7.99852C56.6217 8.46538 56.1907 9.23529 55.837 9.92533C55.5016 10.5867 55.2902 11.3157 55.4731 12.0549C55.6715 12.7291 56.0843 13.3191 56.6481 13.7339C57.0404 14.0451 57.5547 14.4383 58.0791 14.4465C58.2032 14.4493 58.3267 14.4284 58.443 14.3851C58.4794 14.3722 58.5142 14.355 58.5466 14.3339C58.758 14.3978 58.9766 14.4343 59.1972 14.4424C60.0896 14.4833 60.982 14.1025 61.8988 13.7912C62.1137 13.7157 62.3339 13.6562 62.5574 13.6131C62.9577 13.5253 63.3734 13.5394 63.7669 13.6541C63.8396 13.6747 63.9109 13.7 63.9804 13.7298C64.6596 14.0506 65.2327 14.5617 65.631 15.2021C66.0193 15.7836 66.2755 16.445 66.7023 17.004C66.9142 17.292 67.1839 17.5321 67.4938 17.7084C67.8037 17.8848 68.147 17.9936 68.5013 18.0278C69.5665 18.1465 70.904 18.0892 71.8209 17.4442C72.0697 17.273 72.2831 17.0546 72.449 16.8012C72.4653 16.7767 72.4816 16.7521 72.4957 16.7275C73.3395 15.329 72.7865 13.5046 72.2092 12.1142ZM58.1645 9.96628C58.3678 9.9888 58.5732 10.0134 58.7764 10.0359C58.3876 10.1058 58.0238 10.2774 57.7214 10.5335C57.6065 10.6317 57.4998 10.7392 57.4022 10.8549C57.4063 10.8468 57.4063 10.8365 57.4103 10.8283C57.47 10.6399 57.5678 10.4659 57.6976 10.3176C57.8274 10.1692 57.9864 10.0495 58.1645 9.96628ZM70.4203 15.1672C70.4569 15.159 70.4955 15.1529 70.5322 15.1468C70.5906 15.1376 70.6462 15.1152 70.6947 15.0812C70.6947 15.0874 70.6968 15.0956 70.6968 15.1017C70.6971 15.1291 70.6991 15.1565 70.7029 15.1836C70.6927 15.2 70.6846 15.2164 70.6744 15.2328C70.589 15.2102 70.5056 15.1877 70.4203 15.1672ZM69.8531 10.1874C70.3032 10.6156 70.6863 11.1099 70.9895 11.6535C70.6307 11.2119 70.2341 10.8029 69.8044 10.4311C69.8367 10.354 69.8533 10.2711 69.8531 10.1874ZM69.3592 15.9965C69.3417 16.0265 69.3286 16.0589 69.3205 16.0928C69.2657 16.0948 69.2088 16.0969 69.1519 16.0969H69.1234C69.1214 16.0887 69.1172 16.0784 69.1153 16.0702C69.103 16.0334 69.0929 15.9965 69.0807 15.9597C69.1742 15.972 69.2657 15.9842 69.3592 15.9965ZM65.013 11.4037C65.0185 11.3623 65.0198 11.3205 65.0171 11.2788C65.0619 11.3128 65.1142 11.3353 65.1695 11.3443C65.1757 11.3464 65.1838 11.3464 65.1899 11.3484C65.2285 11.3709 65.2651 11.3914 65.3037 11.4139L65.2915 11.4324C65.198 11.4221 65.1045 11.4139 65.013 11.4037ZM68.233 10.384H68.2269C68.0928 10.3 67.9586 10.2161 67.8224 10.1362C67.9606 10.214 68.0989 10.298 68.233 10.384ZM67.4849 14.2212C67.464 14.2424 67.4462 14.2666 67.4321 14.2929C67.4219 14.2786 67.4138 14.2663 67.4036 14.2519C67.4292 14.238 67.4566 14.2277 67.4849 14.2212ZM65.6636 10.2099C65.6184 10.1738 65.5684 10.1442 65.5152 10.1219C65.2533 10.0201 64.9851 9.936 64.7122 9.87004C64.6716 9.83113 64.6309 9.79223 64.5923 9.75128C64.823 9.79626 65.051 9.85436 65.2752 9.92532C65.5625 10.0181 65.8441 10.1275 66.1188 10.2529C65.9664 10.2366 65.816 10.2222 65.6636 10.2099ZM64.1145 7.64223C64.6994 7.72088 65.2758 7.85386 65.8364 8.03947C65.7794 8.02513 65.7225 8.01285 65.6656 7.99851C65.1269 7.87565 64.5781 7.74461 64.0251 7.63199C64.0556 7.63608 64.0841 7.63813 64.1145 7.64223Z" fill="#CCCCCC"/>
<path d="M66.3044 23.5427C65.7917 23.5283 65.1536 23.5102 64.6623 23.1487C64.5159 23.0366 64.3957 22.8936 64.3099 22.7297C64.2242 22.5659 64.1751 22.3851 64.166 22.2001C64.1571 22.0687 64.1786 21.9369 64.2286 21.8152C64.2786 21.6935 64.356 21.585 64.4545 21.4984C64.601 21.3883 64.7724 21.3168 64.9533 21.2906C65.1342 21.2644 65.3188 21.2842 65.4901 21.3482L65.0715 18.267L65.3788 18.2246L65.8709 21.8469L65.6143 21.7283C65.3168 21.5909 64.9085 21.521 64.6547 21.737C64.5924 21.7934 64.5439 21.8636 64.5129 21.942C64.4819 22.0204 64.4692 22.1049 64.476 22.1891C64.4835 22.3268 64.5203 22.4612 64.5841 22.5833C64.6478 22.7053 64.7368 22.8121 64.8452 22.8964C65.2275 23.1778 65.7362 23.2141 66.3131 23.2305L66.3044 23.5427Z" fill="#3F3D56"/>
<path d="M63.5521 18.5332H61.8817V18.8456H63.5521V18.5332Z" fill="#3F3D56"/>
<path d="M68.8244 18.5332H67.1541V18.8456H68.8244V18.5332Z" fill="#3F3D56"/>
<path d="M58.9797 14.2183C57.6346 14.0638 56.5929 12.7656 56.4784 11.4484C56.3423 9.88138 57.2483 8.39308 58.4912 7.51374C59.791 6.59415 61.4105 6.21014 62.9774 6.1256C66.034 5.97239 69.038 6.96974 71.4051 8.9237C72.5792 9.90595 73.6757 11.1572 74.0913 12.6685C74.4522 13.981 74.1585 15.4679 73.1105 16.3872C72.8513 16.6124 72.5485 16.7811 72.2213 16.8826C71.8941 16.9841 71.5495 17.0161 71.2094 16.9768C70.3962 16.8917 69.6459 16.461 68.9965 15.9854C67.7332 15.0602 66.696 13.7712 65.1569 13.2877C64.0284 12.9332 62.5638 13.2453 61.8742 14.2733C61.7177 14.5086 61.6163 14.7766 61.5776 15.0572C61.5634 15.117 61.5722 15.1801 61.6024 15.2336C61.6325 15.2871 61.6818 15.327 61.7401 15.3454C61.7995 15.3615 61.8629 15.3534 61.9165 15.3228C61.9701 15.2921 62.0095 15.2415 62.0262 15.1817C62.2073 13.8869 63.7878 13.4038 64.8969 13.6995C66.5141 14.1306 67.5996 15.5842 68.9264 16.5077C69.6132 17.0236 70.4224 17.3489 71.273 17.4512C72.0106 17.5095 72.7425 17.283 73.3204 16.8176C74.4539 15.916 74.8874 14.3654 74.6367 12.9693C74.3465 11.3525 73.2662 9.9669 72.0809 8.89414C69.678 6.74232 66.5584 5.58148 63.3437 5.64295C61.7041 5.68088 59.9933 6.02183 58.5808 6.89476C57.2106 7.7415 56.1516 9.15809 56.0132 10.8047C55.8913 12.2541 56.6633 13.7701 57.9885 14.405C58.301 14.5541 58.636 14.6494 58.9797 14.6869C59.2767 14.721 59.2742 14.2521 58.9797 14.2183Z" fill="#3F3D56"/>
<path d="M98.286 7.57586C98.2858 7.63011 98.2644 7.6821 98.2263 7.72046C98.1882 7.75882 98.1366 7.78045 98.0827 7.78062H81.4137C81.3598 7.78062 81.3081 7.75904 81.27 7.72064C81.2319 7.68224 81.2104 7.63016 81.2104 7.57586C81.2104 7.52155 81.2319 7.46947 81.27 7.43107C81.3081 7.39267 81.3598 7.37109 81.4137 7.37109H98.0827C98.1366 7.37126 98.1882 7.39288 98.2263 7.43125C98.2644 7.46961 98.2858 7.5216 98.286 7.57586Z" fill="#3F3D56"/>
<path d="M98.0827 10.8529H81.4137C81.3598 10.8529 81.3081 10.8313 81.27 10.7929C81.2319 10.7545 81.2104 10.7024 81.2104 10.6481C81.2104 10.5938 81.2319 10.5417 81.27 10.5033C81.3081 10.4649 81.3598 10.4434 81.4137 10.4434H98.0827C98.1366 10.4434 98.1883 10.4649 98.2264 10.5033C98.2646 10.5417 98.286 10.5938 98.286 10.6481C98.286 10.7024 98.2646 10.7545 98.2264 10.7929C98.1883 10.8313 98.1366 10.8529 98.0827 10.8529Z" fill="#3F3D56"/>
<path d="M98.0827 13.9232H81.4137C81.3598 13.9232 81.3081 13.9016 81.27 13.8632C81.2319 13.8248 81.2104 13.7727 81.2104 13.7184C81.2104 13.6641 81.2319 13.612 81.27 13.5736C81.3081 13.5352 81.3598 13.5137 81.4137 13.5137H98.0827C98.1366 13.5137 98.1883 13.5352 98.2264 13.5736C98.2646 13.612 98.286 13.6641 98.286 13.7184C98.286 13.7727 98.2646 13.8248 98.2264 13.8632C98.1883 13.9016 98.1366 13.9232 98.0827 13.9232Z" fill="#3F3D56"/>
<path d="M98.0827 16.9955H81.4137C81.3598 16.9955 81.3081 16.9739 81.27 16.9355C81.2319 16.8971 81.2104 16.845 81.2104 16.7907C81.2104 16.7364 81.2319 16.6843 81.27 16.6459C81.3081 16.6075 81.3598 16.5859 81.4137 16.5859H98.0827C98.1366 16.5859 98.1883 16.6075 98.2264 16.6459C98.2646 16.6843 98.286 16.7364 98.286 16.7907C98.286 16.845 98.2646 16.8971 98.2264 16.9355C98.1883 16.9739 98.1366 16.9955 98.0827 16.9955Z" fill="#3F3D56"/>
<path d="M98.0827 20.0658H81.4137C81.3598 20.0658 81.3081 20.0442 81.27 20.0058C81.2319 19.9674 81.2104 19.9153 81.2104 19.861C81.2104 19.8067 81.2319 19.7546 81.27 19.7162C81.3081 19.6778 81.3598 19.6562 81.4137 19.6562H98.0827C98.1366 19.6562 98.1883 19.6778 98.2264 19.7162C98.2646 19.7546 98.286 19.8067 98.286 19.861C98.286 19.9153 98.2646 19.9674 98.2264 20.0058C98.1883 20.0442 98.1366 20.0658 98.0827 20.0658Z" fill="#3F3D56"/>
<path d="M98.0827 23.138H81.4137C81.3598 23.138 81.3081 23.1165 81.27 23.0781C81.2319 23.0397 81.2104 22.9876 81.2104 22.9333C81.2104 22.879 81.2319 22.8269 81.27 22.7885C81.3081 22.7501 81.3598 22.7285 81.4137 22.7285H98.0827C98.1366 22.7285 98.1883 22.7501 98.2264 22.7885C98.2646 22.8269 98.286 22.879 98.286 22.9333C98.286 22.9876 98.2646 23.0397 98.2264 23.0781C98.1883 23.1165 98.1366 23.138 98.0827 23.138Z" fill="#3F3D56"/>
<path d="M37.8367 50.4851C37.2702 50.4867 36.7233 50.2765 36.3019 49.8951C36.066 49.6832 35.8756 49.425 35.7424 49.1363C35.6092 48.8476 35.5359 48.5346 35.5272 48.2163L26.5064 41.6079C26.2342 41.4085 26.0081 41.152 25.8438 40.8562C25.6794 40.5603 25.5807 40.2321 25.5544 39.8942C25.5281 39.5562 25.5748 39.2165 25.6913 38.8985C25.8078 38.5804 25.9914 38.2916 26.2294 38.0519L32.9454 31.287C33.2221 31.0082 33.5747 30.8183 33.9586 30.7414C34.3424 30.6645 34.7403 30.704 35.1019 30.8549C35.4635 31.0057 35.7725 31.2612 35.9899 31.589C36.2074 31.9168 36.3234 32.3022 36.3234 32.6964C36.2686 33.7306 35.8639 34.7146 35.1767 35.485L30.6166 40.0783L37.7738 45.825C37.7959 45.8235 37.8179 45.8223 37.8403 45.8223C38.4313 45.8222 38.9998 46.0498 39.4295 46.4585C39.8592 46.8671 40.1175 47.4258 40.1514 48.0201C40.1853 48.6143 39.9923 49.1991 39.6119 49.6547C39.2315 50.1102 38.6925 50.4019 38.1054 50.47C38.0162 50.48 37.9265 50.4851 37.8367 50.4851Z" fill="#FFB8B8"/>
<path d="M48.5561 89.519L50.9766 88.6089L48.6431 78.7715L45.0707 80.1149L48.5561 89.519Z" fill="#FFB8B8"/>
<path d="M56.4836 89.1172L48.8764 91.9779L47.7791 89.0173L52.5513 87.2227C53.3032 86.94 54.1358 86.9697 54.866 87.3053C55.5962 87.6409 56.1641 88.255 56.4448 89.0124L56.4836 89.1172Z" fill="#2F2E41"/>
<path d="M26.7803 89.964H29.364L30.593 79.9258L26.7799 79.926L26.7803 89.964Z" fill="#FFB8B8"/>
<path d="M34.3468 92.3809L26.2267 92.3812L26.2266 89.2211L31.3205 89.2208C32.1231 89.2208 32.8928 89.5419 33.4603 90.1135C34.0279 90.6852 34.3468 91.4605 34.3468 92.269L34.3468 92.3809Z" fill="#2F2E41"/>
<path d="M29.5689 87.2262C29.5399 87.2262 29.5108 87.2248 29.4816 87.222L26.7429 86.9592C26.5207 86.9379 26.314 86.8355 26.1616 86.6713C26.0091 86.5072 25.9215 86.2926 25.9152 86.0679C25.7571 80.0937 25.359 49.9418 33.062 43.0323C33.1955 42.914 33.3611 42.8387 33.5374 42.8159C34.9327 42.6232 39.64 42.1507 41.6324 44.1694C41.7588 44.2965 41.8464 44.4575 41.8847 44.6332L50.6071 85.2555C50.6339 85.3805 50.6346 85.5098 50.6092 85.635C50.5837 85.7603 50.5327 85.8789 50.4592 85.9832C50.3858 86.0875 50.2916 86.1753 50.1827 86.241C50.0738 86.3066 49.9525 86.3487 49.8265 86.3646L46.4822 86.7856C46.3615 86.801 46.2389 86.7919 46.1216 86.7589C46.0044 86.7258 45.8949 86.6695 45.7996 86.5933C45.7043 86.517 45.625 86.4223 45.5666 86.3148C45.5081 86.2073 45.4715 86.0891 45.459 85.9671C45.1262 82.7018 43.1268 66.1154 36.4261 60.236C36.3354 60.1558 36.2262 60.0997 36.1084 60.073C35.9906 60.0464 35.868 60.0499 35.752 60.0834C35.6383 60.1152 35.5345 60.1756 35.4504 60.2589C35.3663 60.3423 35.3047 60.4459 35.2713 60.5599C34.0309 64.6482 30.0195 78.5833 30.4805 86.2496C30.4882 86.375 30.4703 86.5006 30.428 86.6187C30.3856 86.7368 30.3197 86.845 30.2343 86.9365C30.1489 87.028 30.0458 87.1009 29.9314 87.1507C29.8169 87.2005 29.6936 87.2262 29.5689 87.2262Z" fill="#2F2E41"/>
<path d="M34.8398 26.4099C37.5972 26.4099 39.8326 24.1583 39.8326 21.3807C39.8326 18.6032 37.5972 16.3516 34.8398 16.3516C32.0824 16.3516 29.847 18.6032 29.847 21.3807C29.847 24.1583 32.0824 26.4099 34.8398 26.4099Z" fill="#FFB8B8"/>
<path d="M29.9374 30.8533C29.9374 30.8533 34.5737 25.334 38.3671 29.7919C40.8078 32.6602 42.0987 36.3424 41.9874 40.1185L41.8443 44.9698L33.0985 43.59L29.9374 30.8533Z" fill="#009FB5"/>
<path d="M42.1213 41.5474C42.0849 41.5474 42.0485 41.5466 42.012 41.5451C41.6383 41.5295 41.2725 41.4324 40.9397 41.2605C40.607 41.0886 40.3152 40.846 40.0846 40.5495L34.4099 33.2614C34.1684 32.9512 34.0236 32.5758 33.9939 32.1827C33.9641 31.7897 34.0508 31.3965 34.2429 31.053C34.4349 30.7095 34.7238 30.4312 35.073 30.253C35.4221 30.0749 35.8159 30.0051 36.2044 30.0524L37.0033 30.1497C37.5135 30.2399 37.9777 30.5033 38.3187 30.896L42.7951 36.6452L49.3178 30.1776C49.319 30.1554 49.3205 30.1332 49.3232 30.1108C49.3777 29.6556 49.5642 29.2267 49.8595 28.8778C50.1547 28.5289 50.5455 28.2753 50.983 28.1489C51.4205 28.0225 51.8853 28.0289 52.3193 28.1672C52.7532 28.3055 53.1371 28.5696 53.4228 28.9265C53.7085 29.2834 53.8834 29.7172 53.9257 30.1737C53.9679 30.6302 53.8756 31.0891 53.6603 31.493C53.4449 31.8969 53.1162 32.2279 52.7151 32.4446C52.314 32.6613 51.8583 32.7541 51.4052 32.7113L44.0154 40.7158C43.7735 40.9782 43.4804 41.1875 43.1545 41.3306C42.8285 41.4737 42.4768 41.5475 42.1213 41.5474Z" fill="#FFB8B8"/>
<path d="M35.6491 22.2519L37.7942 19.7064C38.347 19.0504 38.9253 18.3358 39.0034 17.479C39.0891 16.5397 38.522 15.6267 37.7465 15.0978C36.9711 14.569 36.0189 14.37 35.0853 14.297C33.3538 14.1616 31.5316 14.4498 30.1082 15.4521C28.6847 16.4545 27.7534 18.2641 28.1005 19.9782C28.3738 21.328 29.3808 22.6209 28.9894 23.9408C28.5611 25.385 26.8048 25.8281 25.3709 26.2587C22.964 26.9816 20.6657 28.4047 19.4043 30.5924C18.1429 32.7802 18.1484 35.7968 19.8299 37.6761C20.9187 38.893 22.5608 39.5084 24.1846 39.601C25.8083 39.6936 27.4245 39.3084 28.9644 38.7815C30.3826 38.2963 31.7855 37.6721 32.902 36.6665C34.0186 35.6609 34.8229 34.2217 34.7881 32.7134C34.7549 31.276 33.9905 29.9667 33.6765 28.5641C33.4288 27.3896 33.4938 26.1701 33.8649 25.029C34.236 23.888 34.9 22.8661 35.7896 22.067" fill="#2F2E41"/>
<path d="M139.755 73.101H88.7318C88.3545 73.1006 87.9928 72.9495 87.7261 72.6808C87.4593 72.412 87.3093 72.0477 87.3088 71.6677V43.8201C87.3093 43.44 87.4593 43.0757 87.7261 42.807C87.9928 42.5383 88.3545 42.3871 88.7318 42.3867H139.755C140.132 42.3871 140.494 42.5383 140.761 42.807C141.028 43.0757 141.178 43.44 141.178 43.8201V71.6677C141.178 72.0477 141.028 72.412 140.761 72.6808C140.494 72.9495 140.132 73.1006 139.755 73.101ZM88.7318 42.7962C88.4623 42.7966 88.204 42.9045 88.0134 43.0965C87.8229 43.2884 87.7157 43.5486 87.7154 43.8201V71.6677C87.7157 71.9391 87.8229 72.1994 88.0134 72.3913C88.204 72.5832 88.4623 72.6912 88.7318 72.6915H139.755C140.025 72.6912 140.283 72.5832 140.473 72.3913C140.664 72.1994 140.771 71.9391 140.772 71.6677V43.8201C140.771 43.5486 140.664 43.2884 140.473 43.0965C140.283 42.9045 140.025 42.7966 139.755 42.7962H88.7318Z" fill="#3F3D56"/>
<path d="M108.801 54.4981C108.192 53.0296 107.246 51.8046 105.873 50.9927C104.43 50.1396 102.784 49.4293 101.125 49.1731C99.4639 48.9259 97.7706 49.0214 96.1477 49.4536C95.3653 49.6577 94.5029 49.8948 93.8431 50.3835C93.2123 50.8506 92.7802 51.6191 92.4284 52.3095C92.0914 52.9709 91.8813 53.6992 92.0637 54.44C92.262 55.1145 92.6752 55.7045 93.2394 56.119C93.7197 56.5011 94.3913 57.007 95.0336 56.7702C95.0701 56.7567 95.1049 56.739 95.1374 56.7175C96.2467 57.0575 97.3496 56.563 98.4883 56.1759C99.1804 55.9406 99.8763 55.8216 100.571 56.1153C101.25 56.4355 101.823 56.946 102.222 57.5858C102.611 58.1686 102.866 58.8303 103.293 59.389C103.505 59.6766 103.775 59.9162 104.084 60.0924C104.394 60.2686 104.737 60.3774 105.091 60.4117C106.467 60.5668 108.293 60.424 109.086 59.1117C109.93 57.7133 109.378 55.89 108.801 54.4981ZM94.7553 52.3505C94.9593 52.3738 95.1634 52.3971 95.3675 52.4204C94.9787 52.4909 94.6149 52.6627 94.3124 52.9188C94.1973 53.0166 94.0906 53.124 93.9934 53.2398C93.9962 53.2304 93.9978 53.2215 94.0008 53.212C94.0608 53.0238 94.1588 52.8501 94.2887 52.7018C94.4185 52.5536 94.5773 52.434 94.7553 52.3505ZM101.607 53.6633C101.652 53.6975 101.705 53.7202 101.761 53.7294C101.767 53.7305 101.774 53.7317 101.78 53.7328C101.818 53.7547 101.856 53.7765 101.894 53.798C101.89 53.8041 101.887 53.8107 101.883 53.8169C101.789 53.8072 101.696 53.7979 101.603 53.7884C101.609 53.7471 101.611 53.705 101.607 53.6633ZM104.076 56.605C104.056 56.627 104.038 56.6512 104.022 56.6771C104.013 56.6638 104.004 56.6504 103.995 56.637C104.02 56.6219 104.048 56.6111 104.076 56.605ZM105.671 58.3439C105.764 58.3562 105.856 58.3684 105.949 58.3806C105.932 58.4109 105.919 58.4435 105.911 58.4775C105.846 58.4797 105.78 58.4808 105.713 58.4811L105.671 58.3439ZM107.011 57.5509L107.123 57.5316C107.181 57.5221 107.237 57.4998 107.286 57.4663C107.286 57.4729 107.287 57.4796 107.287 57.4862C107.288 57.5086 107.29 57.5366 107.293 57.5685C107.283 57.5846 107.274 57.6006 107.264 57.6165C107.18 57.5947 107.095 57.5728 107.011 57.5509ZM102.254 52.5955C102.21 52.5582 102.159 52.5285 102.105 52.5074C101.843 52.4055 101.575 52.321 101.302 52.2545C101.261 52.2158 101.221 52.176 101.183 52.1353C101.413 52.1811 101.641 52.2395 101.865 52.3102C102.152 52.403 102.434 52.5122 102.709 52.6373C102.557 52.6203 102.406 52.6063 102.254 52.5955ZM104.817 52.7684C104.683 52.6843 104.548 52.6016 104.413 52.5206C104.552 52.5993 104.688 52.6819 104.823 52.7683L104.817 52.7684ZM107.58 54.0387C107.221 53.5968 106.824 53.1877 106.394 52.816C106.428 52.7392 106.444 52.6561 106.443 52.5723C106.894 53.0001 107.277 53.4946 107.58 54.0387ZM102.427 50.423C102.37 50.4099 102.313 50.3966 102.257 50.3837C101.718 50.2612 101.169 50.1293 100.615 50.0173C100.645 50.0208 100.675 50.0237 100.704 50.0275C101.289 50.1055 101.866 50.238 102.427 50.423Z" fill="#009FB5"/>
<path d="M102.895 65.9294C102.382 65.915 101.744 65.8969 101.253 65.5354C101.106 65.4233 100.986 65.2803 100.9 65.1165C100.815 64.9526 100.766 64.7719 100.756 64.5869C100.748 64.4554 100.769 64.3237 100.819 64.2019C100.869 64.0802 100.946 63.9718 101.045 63.8851C101.191 63.775 101.363 63.7035 101.544 63.6773C101.725 63.6511 101.909 63.6709 102.081 63.7349L101.662 60.6537L101.969 60.6113L102.461 64.2337L102.205 64.1151C101.907 63.9776 101.499 63.9078 101.245 64.1237C101.183 64.1801 101.134 64.2503 101.103 64.3287C101.072 64.4071 101.06 64.4917 101.066 64.5758C101.074 64.7135 101.111 64.8479 101.175 64.97C101.238 65.092 101.327 65.1988 101.436 65.2831C101.818 65.5645 102.327 65.6009 102.904 65.6172L102.895 65.9294Z" fill="#3F3D56"/>
<path d="M100.143 60.918H98.4722V61.2304H100.143V60.918Z" fill="#3F3D56"/>
<path d="M105.415 60.918H103.745V61.2304H105.415V60.918Z" fill="#3F3D56"/>
<path d="M95.5701 56.605C94.2249 56.4505 93.1832 55.1523 93.0688 53.8351C92.9327 52.2681 93.8386 50.7798 95.0816 49.9005C96.3814 48.9809 98.0008 48.5969 99.5677 48.5123C102.624 48.3591 105.628 49.3565 107.995 51.3104C109.17 52.2927 110.266 53.5439 110.682 55.0552C111.043 56.3677 110.749 57.8546 109.701 58.7739C109.442 58.9991 109.139 59.1678 108.812 59.2693C108.484 59.3708 108.14 59.4029 107.8 59.3635C106.987 59.2784 106.236 58.8478 105.587 58.3721C104.323 57.4469 103.286 56.1579 101.747 55.6744C100.619 55.3199 99.1542 55.632 98.4645 56.66C98.308 56.8953 98.2066 57.1633 98.1679 57.4439C98.1537 57.5037 98.1625 57.5668 98.1927 57.6203C98.2229 57.6738 98.2721 57.7138 98.3304 57.7321C98.3899 57.7482 98.4533 57.7401 98.5068 57.7095C98.5604 57.6788 98.5998 57.6282 98.6165 57.5685C98.7976 56.2737 100.378 55.7905 101.487 56.0862C103.104 56.5173 104.19 57.9709 105.517 58.8944C106.204 59.4103 107.013 59.7356 107.863 59.8379C108.601 59.8962 109.333 59.6697 109.911 59.2043C111.044 58.3028 111.478 56.7521 111.227 55.356C110.937 53.7392 109.857 52.3536 108.671 51.2809C106.268 49.129 103.149 47.9682 99.9341 48.0297C98.2944 48.0676 96.5836 48.4086 95.1711 49.2815C93.8009 50.1282 92.7419 51.5448 92.6035 53.1914C92.4817 54.6408 93.2537 56.1568 94.5788 56.7917C94.8913 56.9408 95.2263 57.0361 95.5701 57.0736C95.867 57.1077 95.8646 56.6388 95.5701 56.605Z" fill="#3F3D56"/>
<path d="M134.673 50.1673H118.004C117.95 50.1673 117.899 50.1458 117.86 50.1074C117.822 50.069 117.801 50.0169 117.801 49.9626C117.801 49.9083 117.822 49.8562 117.86 49.8178C117.899 49.7794 117.95 49.7578 118.004 49.7578H134.673C134.727 49.7578 134.779 49.7794 134.817 49.8178C134.855 49.8562 134.876 49.9083 134.876 49.9626C134.876 50.0169 134.855 50.069 134.817 50.1074C134.779 50.1458 134.727 50.1673 134.673 50.1673Z" fill="#3F3D56"/>
<path d="M134.673 53.2376H118.004C117.95 53.2376 117.899 53.2161 117.86 53.1777C117.822 53.1393 117.801 53.0872 117.801 53.0329C117.801 52.9786 117.822 52.9265 117.86 52.8881C117.899 52.8497 117.95 52.8281 118.004 52.8281H134.673C134.727 52.8281 134.779 52.8497 134.817 52.8881C134.855 52.9265 134.876 52.9786 134.876 53.0329C134.876 53.0872 134.855 53.1393 134.817 53.1777C134.779 53.2161 134.727 53.2376 134.673 53.2376Z" fill="#3F3D56"/>
<path d="M134.673 56.3099H118.004C117.95 56.3099 117.899 56.2883 117.86 56.2499C117.822 56.2115 117.801 56.1595 117.801 56.1052C117.801 56.0508 117.822 55.9988 117.86 55.9604C117.899 55.922 117.95 55.9004 118.004 55.9004H134.673C134.727 55.9004 134.779 55.922 134.817 55.9604C134.855 55.9988 134.876 56.0508 134.876 56.1052C134.876 56.1595 134.855 56.2115 134.817 56.2499C134.779 56.2883 134.727 56.3099 134.673 56.3099Z" fill="#3F3D56"/>
<path d="M134.673 59.3802H118.004C117.95 59.3802 117.899 59.3587 117.86 59.3203C117.822 59.2819 117.801 59.2298 117.801 59.1755C117.801 59.1212 117.822 59.0691 117.86 59.0307C117.899 58.9923 117.95 58.9707 118.004 58.9707H134.673C134.727 58.9707 134.779 58.9923 134.817 59.0307C134.855 59.0691 134.876 59.1212 134.876 59.1755C134.876 59.2298 134.855 59.2819 134.817 59.3203C134.779 59.3587 134.727 59.3802 134.673 59.3802Z" fill="#3F3D56"/>
<path d="M134.673 62.4525H118.004C117.95 62.4525 117.899 62.4309 117.86 62.3925C117.822 62.3541 117.801 62.302 117.801 62.2477C117.801 62.1934 117.822 62.1413 117.86 62.1029C117.899 62.0645 117.95 62.043 118.004 62.043H134.673C134.727 62.043 134.779 62.0645 134.817 62.1029C134.855 62.1413 134.876 62.1934 134.876 62.2477C134.876 62.302 134.855 62.3541 134.817 62.3925C134.779 62.4309 134.727 62.4525 134.673 62.4525Z" fill="#3F3D56"/>
<path d="M134.673 65.5248H118.004C117.95 65.5248 117.899 65.5032 117.86 65.4648C117.822 65.4264 117.801 65.3743 117.801 65.32C117.801 65.2657 117.822 65.2136 117.86 65.1752C117.899 65.1368 117.95 65.1152 118.004 65.1152H134.673C134.727 65.1152 134.779 65.1368 134.817 65.1752C134.855 65.2136 134.876 65.2657 134.876 65.32C134.876 65.3743 134.855 65.4264 134.817 65.4648C134.779 65.5032 134.727 65.5248 134.673 65.5248Z" fill="#3F3D56"/>
<path d="M165.813 43.3431C168.758 43.3431 171.147 40.9376 171.147 37.9704C171.147 35.0031 168.758 32.5977 165.813 32.5977C162.867 32.5977 160.479 35.0031 160.479 37.9704C160.479 40.9376 162.867 43.3431 165.813 43.3431Z" fill="#FFB8B8"/>
<path d="M149.917 117.128L147.38 116.314L149.291 106.07L153.035 107.272L149.917 117.128Z" fill="#FFB8B8"/>
<path d="M145.684 114.964L150.691 116.571L149.709 119.674L141.737 117.114L141.774 116.998C141.898 116.606 142.097 116.242 142.361 115.928C142.625 115.613 142.947 115.354 143.311 115.165C143.674 114.976 144.07 114.861 144.477 114.827C144.885 114.792 145.295 114.839 145.684 114.964Z" fill="#2F2E41"/>
<path d="M168.372 117.075H165.71L164.443 106.73H168.372V117.075Z" fill="#FFB8B8"/>
<path d="M163.687 116.309H168.943V119.565H160.575V119.443C160.575 119.032 160.656 118.624 160.812 118.244C160.968 117.863 161.198 117.518 161.487 117.227C161.776 116.936 162.119 116.705 162.496 116.547C162.874 116.39 163.279 116.309 163.687 116.309Z" fill="#2F2E41"/>
<path d="M168.294 113.719L167.396 113.584C164.67 113.175 164.507 113.15 164.075 112.959C163.854 112.861 163.838 111.383 163.971 103.078C164.068 96.9811 164.189 89.3936 163.954 85.3203C163.944 85.1595 163.881 85.0068 163.775 84.8867C163.668 84.7665 163.525 84.686 163.367 84.6581C163.21 84.6301 163.048 84.6564 162.907 84.7327C162.766 84.809 162.655 84.9308 162.591 85.0785C160.563 89.7956 157.161 100.352 154.91 107.337C154.127 109.767 153.508 111.686 153.117 112.836C153.041 113.054 152.888 113.235 152.687 113.345C152.486 113.455 152.251 113.485 152.029 113.43C150.176 112.963 150.3 112.765 147.661 112.077C147.433 112.019 147.236 111.873 147.112 111.672C146.987 111.47 146.945 111.228 146.994 110.996C147.471 108.729 156.206 71.9683 156.874 68.4739C156.897 68.3543 156.943 68.2404 157.009 68.1387C157.076 68.0371 157.162 67.9498 157.262 67.8818C157.362 67.8138 157.475 67.7664 157.593 67.7425C157.712 67.7186 157.834 67.7186 157.953 67.7425C159.919 68.1416 161.115 68.5651 163.059 68.9745C165.156 69.4163 167.324 69.8732 169.439 70.2996C169.649 70.3423 169.838 70.4588 169.971 70.6284C170.495 71.2942 171.271 71.6679 172.092 72.0635C172.646 72.3303 171.391 72.3062 171.873 72.6909C173.827 74.2486 171.018 105.88 169.32 113.024C169.266 113.248 169.131 113.443 168.941 113.572C168.751 113.7 168.52 113.752 168.294 113.719Z" fill="#2F2E41"/>
<path d="M166.687 77.866C166.626 77.5883 166.626 77.3007 166.688 77.0232C166.75 76.7458 166.871 76.4854 167.044 76.2603C167.216 76.0352 167.435 75.8509 167.686 75.7204C167.937 75.59 168.213 75.5165 168.495 75.5051L172.806 70.6035L175.483 73.8614L170.525 77.5096C170.513 77.9881 170.327 78.4454 170.002 78.7948C169.677 79.1442 169.236 79.3614 168.763 79.4053C168.29 79.4493 167.817 79.3168 167.434 79.0331C167.052 78.7494 166.786 78.3341 166.687 77.866Z" fill="#FFB8B8"/>
<path d="M168.086 42.6716C167.775 41.3407 169.349 38.4768 169.038 37.1458C168.827 36.2444 166.722 36.8572 166.231 36.0743C165.74 35.2914 164.918 34.6571 163.999 34.6467C162.942 34.6348 161.902 35.4243 160.901 35.0831C159.889 34.7381 159.566 33.342 160.013 32.3647C160.461 31.3874 161.424 30.7646 162.377 30.2766C163.998 29.4456 165.887 28.8387 167.622 29.3885C168.672 29.7209 169.549 30.4411 170.398 31.1454C171.172 31.7875 171.959 32.4441 172.499 33.2944C173.559 34.9601 173.495 37.2044 172.59 38.96C171.684 40.7155 170.034 42.0038 168.215 42.7516" fill="#2F2E41"/>
<path d="M154.989 73.6455C155.565 72.6767 156.439 68.1379 157.517 60.5195C158.251 55.3187 158.89 50.0344 159.207 47.3351C159.232 47.1167 159.311 46.9081 159.438 46.7289C159.564 46.5498 159.734 46.406 159.931 46.311C160.137 46.2109 160.341 46.1162 160.545 46.0269C163.172 44.8759 165.834 44.4945 168.457 44.8933C171.076 45.2985 173.533 46.4261 175.556 48.1513L175.579 48.174L175.586 48.2064C175.597 48.2664 176.699 54.2464 174.442 58.2867C172.217 62.2732 172.191 72.8302 172.191 72.9364V73.0721L172.061 73.0349C168.599 72.0383 155.224 73.7817 155.09 73.7995L154.881 73.8269L154.989 73.6455Z" fill="#CCCCCC"/>
<path d="M169.197 74.4556L175.998 65.3213L172.491 57.7513L172.745 48.7734L175.62 48.2383L175.651 48.2537C177.048 49.0766 178.13 50.3471 178.726 51.8625C179.365 53.471 180.69 58.9434 181.688 63.251C181.949 64.3596 181.923 65.5171 181.613 66.6127C181.302 67.7083 180.718 68.7052 179.915 69.5081L171.572 77.9121L169.197 74.4556Z" fill="#CCCCCC"/>
<path d="M140.645 56.3518C140.808 56.1194 141.019 55.9257 141.264 55.7844C141.509 55.6432 141.782 55.5577 142.063 55.5341C142.344 55.5104 142.627 55.5492 142.892 55.6477C143.157 55.7461 143.397 55.9018 143.595 56.1039L150.096 56.0031L149.514 60.1914L143.496 58.9659C143.137 59.2794 142.676 59.4494 142.201 59.4435C141.726 59.4377 141.269 59.2565 140.918 58.9343C140.566 58.6121 140.345 58.1712 140.294 57.6952C140.244 57.2192 140.369 56.7412 140.645 56.3518Z" fill="#FFB8B8"/>
<path d="M143.908 60.0163L144.838 55.9179L156.12 54.8131L159.213 47.3205L159.303 47.0992L160.519 46.0432L160.545 46.0268C163.172 44.8759 165.834 44.4946 168.457 44.8932L168.549 44.9073L168.544 45.0009C168.484 45.9597 168.24 46.8977 167.824 47.7623C166.657 50.2006 159.477 60.5658 159.404 60.6702L159.372 60.7164L143.908 60.0163Z" fill="#CCCCCC"/>
<path d="M197.995 119.992H120.545C120.491 119.992 120.44 119.97 120.401 119.932C120.363 119.893 120.342 119.841 120.342 119.787C120.342 119.732 120.363 119.68 120.401 119.642C120.44 119.604 120.491 119.582 120.545 119.582H197.995C198.049 119.582 198.101 119.604 198.139 119.642C198.177 119.68 198.198 119.732 198.198 119.787C198.198 119.841 198.177 119.893 198.139 119.932C198.101 119.97 198.049 119.992 197.995 119.992Z" fill="#3F3D56"/>
<path d="M77.653 92.347H0.20328C0.149367 92.347 0.0976632 92.3254 0.0595408 92.287C0.0214184 92.2486 0 92.1966 0 92.1423C0 92.088 0.0214184 92.0359 0.0595408 91.9975C0.0976632 91.9591 0.149367 91.9375 0.20328 91.9375H77.653C77.7069 91.9375 77.7587 91.9591 77.7968 91.9975C77.8349 92.0359 77.8563 92.088 77.8563 92.1423C77.8563 92.1966 77.8349 92.2486 77.7968 92.287C77.7587 92.3254 77.7069 92.347 77.653 92.347Z" fill="#3F3D56"/>
</g>
<defs>
<clipPath id="clip0_3448_27036">
<rect width="200" height="120" fill="white"/>
</clipPath>
</defs>
</svg>
